<?xml version="1.0" encoding="UTF-8"?>
<svg version="1.1" xmlns="http://www.w3.org/2000/svg" width="447" height="447">
<path d="M0 0 C147.51 0 295.02 0 447 0 C447 147.51 447 295.02 447 447 C299.49 447 151.98 447 0 447 C0 299.49 0 151.98 0 0 Z " fill="#EDF1F8" transform="translate(0,0)"/>
<path d="M0 0 C0.66 0 1.32 0 2 0 C1.98588074 0.9173996 1.97176147 1.83479919 1.95721436 2.77999878 C1.83437358 11.45974006 1.7698183 20.13759126 1.76940536 28.8182354 C1.76717253 33.28054837 1.74304726 37.74042699 1.66748047 42.20214844 C1.59526505 46.51493061 1.58239945 50.82431468 1.60929108 55.13757706 C1.60934654 56.77618874 1.58863314 58.41494711 1.5460434 60.05300522 C1.13891787 69.86460837 1.13891787 69.86460837 5.63691711 78.19824219 C8.53814903 80.80179704 11.70939946 82.91347323 15 85 C16.22549399 85.94662655 17.44079853 86.90690138 18.63671875 87.890625 C19.64347656 88.66921875 20.65023437 89.4478125 21.6875 90.25 C27.05800223 94.42824009 32.32503649 98.71892346 37.5625 103.0625 C43.4862249 107.97263469 49.49422406 112.71651314 55.62109375 117.37109375 C59.68646385 120.49801954 63.61779347 123.7856872 67.5625 127.0625 C73.33286766 131.85404613 79.17731047 136.45491872 85.21484375 140.90625 C89.07930657 143.81137212 92.80416198 146.87403458 96.52734375 149.95703125 C97.34332031 150.63121094 98.15929687 151.30539062 99 152 C99.84691406 152.72574219 100.69382813 153.45148438 101.56640625 154.19921875 C103.93802767 155.95414246 105.12414269 156.66045823 108 157 C109.7534393 156.14279316 109.7534393 156.14279316 111.3203125 154.68359375 C111.93285889 154.16917725 112.54540527 153.65476074 113.17651367 153.12475586 C113.81951416 152.56796143 114.46251465 152.01116699 115.125 151.4375 C116.47455295 150.31890918 117.82741565 149.20429921 119.18359375 148.09375 C119.83956543 147.55621094 120.49553711 147.01867187 121.17138672 146.46484375 C130.82424373 138.73224801 141.46435745 135.30281078 153.84765625 135.64453125 C169.61405122 137.42240231 181.25893005 145.10479944 192.296875 156.03125 C194.00562648 157.19006215 194.00562648 157.19006215 196.29296875 156.9921875 C200.02470326 155.62442334 202.64894732 153.2401566 205.5625 150.625 C206.68801304 149.63712113 207.81429626 148.65011896 208.94140625 147.6640625 C209.46879395 147.20161133 209.99618164 146.73916016 210.53955078 146.26269531 C215.46983759 142 215.46983759 142 218 142 C218 141.34 218 140.68 218 140 C219.37970908 139.048772 220.76643626 138.10655244 222.18164062 137.20898438 C225.5565857 134.96506278 228.62514532 132.32503564 231.75 129.75 C233.17948443 128.58048091 234.60917127 127.41120918 236.0390625 126.2421875 C237.06628418 125.40059082 237.06628418 125.40059082 238.11425781 124.54199219 C243.72601805 119.95319394 249.4111094 115.45794671 255.11767578 110.98803711 C260.94397152 106.42407939 266.71699049 101.80689647 272.43359375 97.10546875 C279.68275461 91.15828807 287.05664393 85.36794932 294.44262695 79.59228516 C297.31658137 77.40637763 297.31658137 77.40637763 300 75 C300.12484154 72.65847159 300.18599291 70.34492415 300.20532227 68.00170898 C300.21522186 67.27004517 300.22512146 66.53838135 300.23532104 65.7845459 C300.26702383 63.35509528 300.29172793 60.92562507 300.31640625 58.49609375 C300.33696822 56.81599913 300.35796448 55.13590977 300.37937927 53.45582581 C300.43467826 49.02532197 300.48405287 44.59477085 300.53222656 40.16418457 C300.5823846 35.64652275 300.63810033 31.12892992 300.69335938 26.61132812 C300.8010366 17.7409443 300.90246018 8.87050068 301 0 C302.41676639 0.93154664 303.83178706 1.86574857 305.24609375 2.80102539 C306.0342749 3.32096573 306.82245605 3.84090607 307.63452148 4.37660217 C311.25758855 6.86306703 314.62391668 9.62944948 318 12.4375 C322.28034887 15.9761673 326.55441487 19.43982289 331.0625 22.6875 C335.73259056 26.27089641 339.19406029 30.83923628 342 36 C342 36.99 342 37.98 342 39 C342.66 39 343.32 39 344 39 C347.93574852 49.30792952 347.43802488 59.80776678 347.41992188 70.65527344 C347.4272707 72.74091036 347.43585928 74.82654323 347.44558716 76.91217041 C347.4677277 82.55287845 347.47073752 88.19344008 347.46883965 93.8341856 C347.46871958 98.5554604 347.47729839 103.27670458 347.48561716 107.99797082 C347.50482493 119.14417598 347.50774484 130.29030626 347.50097656 141.43652344 C347.49433978 152.90582331 347.51719186 164.37480126 347.55429029 175.84403586 C347.58505779 185.71704061 347.59633962 195.58994218 347.59245348 205.46299386 C347.59039305 211.34820784 347.59575584 217.23317129 347.62034607 223.11833954 C347.64272685 228.6572999 347.64064139 234.1957396 347.62041855 239.73470306 C347.61702835 241.75701305 347.62201076 243.77935887 347.63640213 245.80162048 C347.74054943 261.53302051 346.57687401 276.11969986 335 288 C334.319375 288.70769531 333.63875 289.41539062 332.9375 290.14453125 C321.89557678 300.77238235 309.11190426 303.30814262 294.29849243 303.26069641 C292.39384564 303.26643473 292.39384564 303.26643473 290.45072114 303.27228898 C286.94218127 303.2825432 283.43374387 303.28039376 279.92519569 303.27610838 C276.13505078 303.27363647 272.34493024 303.2826611 268.55479431 303.29014587 C261.13563055 303.30288197 253.71650301 303.30468793 246.29733016 303.30234561 C240.26547039 303.30056107 234.2336216 303.30231501 228.20176315 303.30657005 C226.91301386 303.30746284 226.91301386 303.30746284 225.59822922 303.30837366 C223.85271181 303.30958543 222.10719439 303.31079957 220.36167698 303.31201603 C203.99961006 303.32288738 187.63756377 303.320731 171.27549569 303.31463119 C156.31595846 303.3094624 141.35648635 303.32071719 126.396962 303.33972941 C111.02622561 303.35911407 95.65552002 303.3673627 80.28477132 303.36360615 C71.65939591 303.36169506 63.03407591 303.36417271 54.40871048 303.37832069 C47.06581193 303.39024346 39.72300293 303.39162934 32.38010313 303.37953053 C28.63605781 303.37364812 24.89217621 303.37252462 21.14814186 303.38453293 C17.08379023 303.39741677 13.01982705 303.38691218 8.95547485 303.3742218 C7.19222553 303.38528323 7.19222553 303.38528323 5.39335501 303.39656812 C-8.99090423 303.30218629 -21.2059379 298.45497407 -31.671875 288.515625 C-44.13326982 275.05062791 -44.44887561 260.69223918 -44.41992188 243.32885742 C-44.42727064 241.24159798 -44.43585921 239.1543426 -44.44558716 237.0670929 C-44.46772695 231.42231992 -44.47073761 225.77769326 -44.46883965 220.13288283 C-44.46871959 215.40902845 -44.47729788 210.68520467 -44.48561716 205.96135885 C-44.5048242 194.81039992 -44.50774491 183.65951585 -44.50097656 172.50854492 C-44.49433796 161.03127278 -44.51719933 149.55432219 -44.55429029 138.07711524 C-44.58504697 128.19903063 -44.59634084 118.32104914 -44.59245348 108.44291764 C-44.59039214 102.55382325 -44.59577016 96.66497916 -44.62034607 90.7759304 C-44.64270922 85.2345108 -44.64065584 79.69361185 -44.62041855 74.15218925 C-44.6170254 72.12784668 -44.62202375 70.10346839 -44.63640213 68.07917404 C-44.74480487 51.67527636 -42.78038002 37.51995545 -31 25 C-26.57552904 20.94878426 -21.85400206 17.26852452 -17.10009766 13.61523438 C-14.36000551 11.50776523 -11.64760055 9.36611086 -8.93408203 7.22460938 C-7.15955085 5.82646584 -5.37924826 4.43600188 -3.59765625 3.046875 C-1.73726445 1.5927332 -1.73726445 1.5927332 0 0 Z " fill="#FEC243" transform="translate(72,126)"/>
<path d="M0 0 C147.51 0 295.02 0 447 0 C447 147.51 447 295.02 447 447 C299.49 447 151.98 447 0 447 C0 299.49 0 151.98 0 0 Z M185.92822266 35.36621094 C183.08506651 37.775226 180.149662 40.05254357 177.1875 42.3125 C176.25292969 43.03050781 175.31835938 43.74851562 174.35546875 44.48828125 C173.84251755 44.86291504 173.32956635 45.23754883 172.80107117 45.62353516 C171.41510891 46.68275389 170.08190339 47.81125657 168.7747345 48.96630859 C161.11333724 55.31823685 155.2883378 56.09038293 145.53125 55.82421875 C144.16085747 55.81902335 142.79044276 55.81811877 141.42004395 55.82124329 C137.83966369 55.82135499 134.26133745 55.77845823 130.68145752 55.72143555 C124.95525644 55.63235668 119.22965962 55.58756404 113.50279236 55.58493996 C111.52476816 55.57451402 109.54700652 55.53086476 107.56945801 55.48625183 C98.04271814 55.43820146 90.63707441 57.27017928 83.125 63.3125 C78.68478043 68.92807181 74.81881628 74.1378945 74.95336914 81.51220703 C74.97186668 82.87975632 74.97186668 82.87975632 74.99073792 84.27493286 C75.01272499 85.75145828 75.01272499 85.75145828 75.03515625 87.2578125 C75.04118876 89.34895217 75.04435168 91.44010171 75.04492188 93.53125 C75.04663684 96.82399043 75.06226746 100.11312013 75.12670898 103.40527344 C75.45704618 121.61356956 75.45704618 121.61356956 72.00585938 127.26611328 C69.46394024 129.58607995 66.97333975 131.27913873 64 133 C62.51453622 134.1407118 61.0421949 135.29879323 59.5859375 136.4765625 C58.18571489 137.53060461 56.78210917 138.58016894 55.375 139.625 C41.97163259 149.61570191 31.73488545 158.92415384 28 176 C27.12276432 182.96745342 27.32471444 190.01915778 27.36889648 197.02758789 C27.36374869 199.11691391 27.35646097 201.20623558 27.34721375 203.29554749 C27.32880242 208.93194093 27.34157291 214.56785735 27.36130404 220.20423055 C27.37777479 226.12382447 27.36886608 232.04339018 27.36378479 237.96299744 C27.35927358 247.89964352 27.37507424 257.83610077 27.40307617 267.77270508 C27.4351323 279.23583524 27.43510559 290.69862512 27.4178614 302.16177946 C27.40195989 313.22282463 27.40875264 324.28374589 27.42579842 335.34478569 C27.43264358 340.03705613 27.4316626 344.72922649 27.42425346 349.42149544 C27.41655338 354.95307963 27.42883793 360.48427972 27.45610237 366.01579857 C27.462948 368.03732285 27.46312559 370.05888327 27.45588684 372.08040619 C27.4019216 389.12352436 29.13041392 402.47356433 41.2890625 415.44140625 C52.71398674 426.44923008 65.29986405 429.31002668 80.70150757 429.26069641 C82.60615436 429.26643473 82.60615436 429.26643473 84.54927886 429.27228898 C88.05781873 429.2825432 91.56625613 429.28039376 95.07480431 429.27610838 C98.86494922 429.27363647 102.65506976 429.2826611 106.44520569 429.29014587 C113.86436945 429.30288197 121.28349699 429.30468793 128.70266984 429.30234561 C134.73452961 429.30056107 140.7663784 429.30231501 146.79823685 429.30657005 C147.65740304 429.30716524 148.51656924 429.30776043 149.40177078 429.30837366 C151.14728819 429.30958543 152.89280561 429.31079957 154.63832302 429.31201603 C171.00038994 429.32288738 187.36243623 429.320731 203.72450431 429.31463119 C218.68404154 429.3094624 233.64351365 429.32071719 248.603038 429.33972941 C263.97377439 429.35911407 279.34447998 429.3673627 294.71522868 429.36360615 C303.34060409 429.36169506 311.96592409 429.36417271 320.59128952 429.37832069 C327.93418807 429.39024346 335.27699707 429.39162934 342.61989687 429.37953053 C346.36394219 429.37364812 350.10782379 429.37252462 353.85185814 429.38453293 C357.91620977 429.39741677 361.98017295 429.38691218 366.04452515 429.3742218 C367.22002469 429.38159609 368.39552424 429.38897037 369.60664499 429.39656812 C384.10533365 429.30143546 396.22381993 424.39877348 406.7421875 414.375 C419.22143191 401.24804395 419.59046238 386.16476022 419.50170898 369.05419922 C419.50549833 366.96177813 419.51100341 364.86935957 419.51808167 362.77694702 C419.53197146 357.12829009 419.52091283 351.47993996 419.50437045 345.83130026 C419.4904566 339.90275971 419.49698708 333.97423583 419.50050354 328.04568481 C419.50320024 318.09469698 419.48977508 308.14383013 419.46655273 298.19287109 C419.43993187 286.70647727 419.43820263 275.22028546 419.4499411 263.73387134 C419.4607381 252.65735419 419.45451764 241.58090974 419.44038582 230.50439835 C419.43464419 225.80211788 419.43469429 221.09989093 419.43945122 216.39760971 C419.44424052 210.85707906 419.43403852 205.31676831 419.41249657 199.77627945 C419.40695565 197.74907421 419.40643848 195.72184773 419.41144943 193.69464111 C419.5165168 179.09608816 419.5165168 179.09608816 416 165 C415.34 165 414.68 165 414 165 C413.90203125 164.27167969 413.8040625 163.54335937 413.703125 162.79296875 C411.25668686 153.0751728 401.31373455 146.84139903 393.64160156 141.22900391 C391.04198655 139.2827722 388.55787221 137.20221038 386.0625 135.125 C383.26148965 132.8057961 380.50415592 130.5805487 377.4375 128.625 C375 127 375 127 373 124 C372.75517273 121.92222595 372.75517273 121.92222595 372.76049805 119.50366211 C372.75676682 118.59519028 372.75303558 117.68671844 372.74919128 116.75071716 C372.75332535 115.76950394 372.75745941 114.78829071 372.76171875 113.77734375 C372.7462884 111.69074878 372.729984 109.60416013 372.71289062 107.51757812 C372.69649591 104.2349655 372.68746681 100.95281586 372.69458008 97.67016602 C372.69721776 94.49703111 372.66894023 91.32529136 372.63671875 88.15234375 C372.65202888 86.70177834 372.65202888 86.70177834 372.66764832 85.22190857 C372.54887014 76.8408137 369.93571093 70.44946034 364.5 64.0625 C355.17214808 56.36702217 345.86032899 55.58308263 334.09375 55.69921875 C332.07673688 55.69353215 330.05972316 55.68781007 328.04271698 55.68004322 C323.11056401 55.66529073 318.1786249 55.68164166 313.24658203 55.71508789 C310.46608011 55.73273722 307.68639963 55.73429692 304.90588379 55.7191925 C302.30033836 55.70618068 299.69453019 55.71702021 297.0892334 55.7552948 C288.9898939 55.68810607 284.16627638 54.28694062 278 49 C277.00613281 48.21238281 276.01226562 47.42476562 274.98828125 46.61328125 C274.10527344 45.85402344 273.22226562 45.09476563 272.3125 44.3125 C266.69035053 39.54808871 260.9388068 34.97782907 255.12890625 30.4453125 C253.21433624 28.94903182 251.32131766 27.42395789 249.46875 25.8515625 C228.23879044 9.92909283 203.45040476 20.29824793 185.92822266 35.36621094 Z " fill="#FEFEFE" transform="translate(0,0)"/>
<path d="M0 0 C1.41676639 0.93154664 2.83178706 1.86574857 4.24609375 2.80102539 C5.0342749 3.32096573 5.82245605 3.84090607 6.63452148 4.37660217 C10.25758855 6.86306703 13.62391668 9.62944948 17 12.4375 C21.28034887 15.9761673 25.55441487 19.43982289 30.0625 22.6875 C34.73259056 26.27089641 38.19406029 30.83923628 41 36 C41 36.99 41 37.98 41 39 C41.66 39 42.32 39 43 39 C46.95038942 49.32355385 46.43086681 59.85350281 46.40405273 70.71875 C46.40976214 72.81087609 46.4167286 74.90299907 46.42485046 76.99511719 C46.4427321 82.65209402 46.44162309 88.30891531 46.43590808 93.96591187 C46.43280955 98.69750323 46.43891593 103.42906501 46.44494683 108.16065216 C46.45897352 119.32587667 46.45744569 130.49102463 46.44604492 141.65625 C46.43456035 153.15739842 46.44864945 164.65831374 46.4754414 176.15943146 C46.49762119 186.05275357 46.50423077 195.94600264 46.49836498 205.83934784 C46.49500032 211.74004198 46.49737827 217.64058665 46.51461601 223.54125977 C46.53011974 229.09000382 46.52609136 234.63840318 46.50731087 240.18713379 C46.50363477 242.21756933 46.50670472 244.24803062 46.51719666 246.27844238 C46.61117325 265.97593709 46.61117325 265.97593709 42 275 C38.18821969 273.18567032 35.03419622 270.81337761 31.75 268.1875 C31.1415625 267.70539063 30.533125 267.22328125 29.90625 266.7265625 C24.55628261 262.47486077 19.25856029 258.15881328 13.96386719 253.83862305 C9.6776941 250.34616659 5.35774888 246.90262584 1 243.5 C-4.04846287 239.55804954 -9.03756894 235.54969078 -14 231.5 C-19.54918059 226.97245928 -25.13915637 222.50484138 -30.78125 218.09375 C-35.68397872 214.25828195 -40.54452907 210.37189935 -45.39916992 206.47583008 C-49.5341758 203.16130851 -53.69702787 199.88509791 -57.875 196.625 C-64.01184601 191.83089132 -70.01997854 186.88840696 -76.01928711 181.92382812 C-80.27391725 178.4073307 -84.5592025 174.9469706 -88.94140625 171.58984375 C-92.28057988 169.01101326 -95.55426091 166.35060507 -98.8359375 163.69921875 C-101.09107859 161.88325839 -101.09107859 161.88325839 -104 160 C-102.42483475 155.67340973 -99.0791259 153.25634063 -95.625 150.4375 C-95.0475 149.95603516 -94.47 149.47457031 -93.875 148.97851562 C-85.46622464 142 -85.46622464 142 -83 142 C-83 141.34 -83 140.68 -83 140 C-81.62029092 139.048772 -80.23356374 138.10655244 -78.81835938 137.20898438 C-75.4434143 134.96506278 -72.37485468 132.32503564 -69.25 129.75 C-67.82051557 128.58048091 -66.39082873 127.41120918 -64.9609375 126.2421875 C-63.93371582 125.40059082 -63.93371582 125.40059082 -62.88574219 124.54199219 C-57.27398195 119.95319394 -51.5888906 115.45794671 -45.88232422 110.98803711 C-40.05602848 106.42407939 -34.28300951 101.80689647 -28.56640625 97.10546875 C-21.31724539 91.15828807 -13.94335607 85.36794932 -6.55737305 79.59228516 C-3.68341863 77.40637763 -3.68341863 77.40637763 -1 75 C-0.87515846 72.65847159 -0.81400709 70.34492415 -0.79467773 68.00170898 C-0.78477814 67.27004517 -0.77487854 66.53838135 -0.76467896 65.7845459 C-0.73297617 63.35509528 -0.70827207 60.92562507 -0.68359375 58.49609375 C-0.66303178 56.81599913 -0.64203552 55.13590977 -0.62062073 53.45582581 C-0.56532174 49.02532197 -0.51594713 44.59477085 -0.46777344 40.16418457 C-0.4176154 35.64652275 -0.36189967 31.12892992 -0.30664062 26.61132812 C-0.1989634 17.7409443 -0.09753982 8.87050068 0 0 Z " fill="#FEA121" transform="translate(373,126)"/>
<path d="M0 0 C0.66 0 1.32 0 2 0 C1.98588074 0.9173996 1.97176147 1.83479919 1.95721436 2.77999878 C1.83437358 11.45974006 1.7698183 20.13759126 1.76940536 28.8182354 C1.76717253 33.28054837 1.74304726 37.74042699 1.66748047 42.20214844 C1.59526505 46.51493061 1.58239945 50.82431468 1.60929108 55.13757706 C1.60934654 56.77618874 1.58863314 58.41494711 1.5460434 60.05300522 C1.13891787 69.86460837 1.13891787 69.86460837 5.63691711 78.19824219 C8.53814903 80.80179704 11.70939946 82.91347323 15 85 C16.22549399 85.94662655 17.44079853 86.90690138 18.63671875 87.890625 C19.64347656 88.66921875 20.65023437 89.4478125 21.6875 90.25 C27.05800223 94.42824009 32.32503649 98.71892346 37.5625 103.0625 C43.4862249 107.97263469 49.49422406 112.71651314 55.62109375 117.37109375 C59.68646385 120.49801954 63.61779347 123.7856872 67.5625 127.0625 C73.3356706 131.85637361 79.18432901 136.45779356 85.22265625 140.9140625 C92.39362428 146.29985283 99.22476487 152.12812955 106 158 C101.74311347 163.67584871 96.61050635 167.70242847 91 172 C89.95972656 172.79792969 88.91945312 173.59585938 87.84765625 174.41796875 C86.19278626 175.68718984 84.53787834 176.95635526 82.88208008 178.22436523 C78.52486723 181.57073016 74.25902091 185.01708818 70.01953125 188.51171875 C61.44190496 195.58021545 52.84534231 202.63039739 44.04296875 209.41796875 C37.24695392 214.6806571 30.60197559 220.13515185 23.9375 225.5625 C19.15109669 229.46008632 14.34125738 233.3135848 9.44921875 237.078125 C6.03415085 239.7578912 2.67614143 242.50612235 -0.6875 245.25 C-6.35774921 249.87270142 -12.05245091 254.45895353 -17.82836914 258.94921875 C-20.86901942 261.31373303 -23.874561 263.71015026 -26.84375 266.1640625 C-27.47651855 266.6801709 -28.10928711 267.1962793 -28.76123047 267.72802734 C-29.97695366 268.72079894 -31.1847775 269.72334698 -32.38330078 270.73681641 C-36.45379865 274.03426779 -36.45379865 274.03426779 -39.07722425 273.86967832 C-41 273 -41 273 -42.03300905 271.25394982 C-43.74778797 265.68879031 -44.4332602 260.69859592 -44.39440918 254.88764954 C-44.40354584 253.58011138 -44.40354584 253.58011138 -44.41286707 252.2461583 C-44.42940622 249.34927267 -44.42473426 246.45283098 -44.41992188 243.5559082 C-44.42726761 241.46894376 -44.43585531 239.38198337 -44.44558716 237.29502869 C-44.46776207 231.64187322 -44.47073573 225.9888637 -44.46883965 220.33567071 C-44.46871972 215.60694601 -44.47729297 210.87825198 -44.48561716 206.14953583 C-44.50483793 194.98614425 -44.50774036 183.82282743 -44.50097656 172.65942383 C-44.49434132 161.1674245 -44.51718261 149.6757466 -44.55429029 138.18381244 C-44.58504835 128.29727567 -44.59634056 118.41084194 -44.59245348 108.52425832 C-44.59039178 102.62842733 -44.59577533 96.73284635 -44.62034607 90.83706093 C-44.64271062 85.28746033 -44.64065466 79.73837961 -44.62041855 74.18877602 C-44.61702532 72.16121003 -44.62202411 70.13360839 -44.63640213 68.10609055 C-44.74469746 51.6916926 -42.78871914 37.5288181 -31 25 C-26.57552904 20.94878426 -21.85400206 17.26852452 -17.10009766 13.61523438 C-14.36000551 11.50776523 -11.64760055 9.36611086 -8.93408203 7.22460938 C-7.15955085 5.82646584 -5.37924826 4.43600188 -3.59765625 3.046875 C-1.73726445 1.5927332 -1.73726445 1.5927332 0 0 Z " fill="#FEA121" transform="translate(72,126)"/>
<path d="M0 0 C1.05832031 0.29132813 2.11664063 0.58265625 3.20703125 0.8828125 C22.56214199 6.50132465 37.76785677 18.52909529 48.36328125 35.79296875 C55.28487998 49.35533762 60.63253041 66.93422355 56.40527344 82.13916016 C54.76993441 86.40475739 52.52629857 90.19254391 50 94 C49.52175781 94.72703125 49.04351562 95.4540625 48.55078125 96.203125 C42.93610085 103.60356335 34.7042914 107.51000626 25.6640625 108.7578125 C15.021984 109.72527418 7.51122625 108.73805411 -1 102 C-1.81984375 102.42152344 -2.6396875 102.84304687 -3.484375 103.27734375 C-4.56203125 103.82519531 -5.6396875 104.37304688 -6.75 104.9375 C-7.81734375 105.48277344 -8.8846875 106.02804688 -9.984375 106.58984375 C-17.5551986 110.13008639 -27.06646157 110.22021948 -35.06640625 107.80859375 C-44.46579513 103.87794022 -49.77165502 97.32504136 -53.875 88.1875 C-57.08278874 78.4680922 -54.99511466 68.15351272 -51 59 C-48.96364557 55.67832284 -46.635198 52.8604286 -44 50 C-43.49984375 49.38640625 -42.9996875 48.7728125 -42.484375 48.140625 C-36.37608935 41.16854138 -25.33525111 35.42064355 -16.0859375 34.69140625 C-1.11367326 34.13380969 -1.11367326 34.13380969 5.2734375 39.1015625 C10.42589053 44.76692941 11.55365145 48.57072832 11.25 55.9765625 C11.23485352 56.82423187 11.21970703 57.67190125 11.20410156 58.54525757 C11.15545474 61.23935436 11.08094378 63.93169201 11 66.625 C10.89358878 70.17964155 10.8136772 73.7334276 10.75 77.2890625 C10.71680664 78.10267242 10.68361328 78.91628235 10.64941406 79.75454712 C10.58576821 83.42092649 10.64356155 85.52074171 12.86767578 88.51123047 C16.65682769 91.15678214 20.57279074 90.72622991 25 90 C27.33152708 88.8960933 28.96444431 87.62844456 31 86 C31.66 86 32.32 86 33 86 C38.446214 75.49658729 38.71266169 64.10323527 35.1875 52.8125 C29.39213027 38.68933008 18.86203561 28.0747663 5.08203125 21.63671875 C-11.01115044 15.39465251 -26.44875125 15.73590445 -42.3984375 22.59375 C-56.70941683 30.3294145 -65.68135119 41.63755086 -71 57 C-74.39170393 68.67387825 -73.23435969 84.16969656 -68 95 C-67.649375 95.77988281 -67.29875 96.55976563 -66.9375 97.36328125 C-60.60663638 110.09095498 -49.16227959 119.94738299 -36 125 C-21.56617393 129.64110762 -6.78372365 127.75673164 7 122 C7.88945312 121.45988281 8.77890625 120.91976562 9.6953125 120.36328125 C13.15573175 118.31635529 16.09941522 118.17427137 20 119 C23 121.0625 23 121.0625 25 124 C25.53222547 127.72557827 25.42015694 130.04604938 23.90234375 133.4921875 C21.46330534 136.70751123 18.67201055 138.0544289 15.0625 139.625 C14.39734375 139.92422363 13.7321875 140.22344727 13.046875 140.53173828 C7.18747293 143.08472346 1.28104708 144.80315414 -5 146 C-6.155 146.226875 -7.31 146.45375 -8.5 146.6875 C-30.50312497 148.65206473 -48.96733239 143.09478274 -66.31640625 129.41796875 C-70.80034374 125.37785623 -74.44894698 120.86416606 -78 116 C-78.57621094 115.22527344 -79.15242187 114.45054687 -79.74609375 113.65234375 C-83.45974516 108.40137031 -85.91699463 103.06825945 -88 97 C-88.37382812 96.01902344 -88.74765625 95.03804688 -89.1328125 94.02734375 C-94.29769286 78.87582409 -93.79528368 61.87924044 -88 47 C-87.69964844 46.18789062 -87.39929688 45.37578125 -87.08984375 44.5390625 C-78.59976815 23.58952531 -61.82998997 9.60637187 -41.4453125 0.91015625 C-28.9930525 -3.72463062 -12.71235349 -3.64379859 0 0 Z " fill="#103D8E" transform="translate(241,86)"/>
<path d="M0 0 C5.32163928 3.93205143 10.51217729 7.98841468 15.625 12.1875 C20.71082994 16.34345805 25.82220714 20.45917719 31 24.5 C36.74023035 28.98183938 42.39693627 33.55956868 48.0390625 38.1640625 C52.32451618 41.65530083 56.64329453 45.09818888 61 48.5 C66.04846171 52.44194956 71.03761608 56.45025209 76 60.5 C82.28154225 65.62615862 88.62236298 70.66919636 95.01171875 75.66015625 C97.6887134 77.75626056 100.34940139 79.87066939 103 82 C106.75626874 80.63101876 109.84372779 78.86360572 113.1875 76.6875 C130.72624163 66.46369695 150.86199095 65.50292596 170.21435547 70.58105469 C176.04630987 72.18877486 181.01523439 75.15370577 186.12768555 78.30712891 C189.47832813 80.33099433 190.96525074 81 195 81 C197.31307772 79.42357123 199.41526668 77.84016593 201.5625 76.0625 C202.18382812 75.56105469 202.80515625 75.05960937 203.4453125 74.54296875 C205.30506246 73.03836611 207.15375468 71.52112677 209 70 C209.94746094 69.22527344 210.89492188 68.45054687 211.87109375 67.65234375 C213.64135125 66.20299474 215.40954371 64.75112021 217.17578125 63.296875 C220.31689276 60.74227809 223.497095 58.24250391 226.6875 55.75 C231.83948543 51.72394516 236.93452894 47.63433175 242 43.5 C247.52337068 38.99236839 253.09184494 34.55157313 258.7109375 30.1640625 C263.18437718 26.66222963 267.59830666 23.09145239 272 19.5 C277.24989307 15.22358437 282.5092953 10.96022034 287.8125 6.75 C288.39322266 6.28400391 288.97394531 5.81800781 289.57226562 5.33789062 C292.04929275 3.38171986 293.97809738 2.00730087 297 1 C297.29933577 5.80088531 297.51551235 10.59622984 297.65917969 15.40429688 C297.71910384 17.03449146 297.80069064 18.66405247 297.90527344 20.29199219 C298.7246008 33.38516476 298.7246008 33.38516476 295.89120483 37.68115234 C292.71971103 41.12329879 288.9461974 43.53055792 285 46 C283.77309483 46.94479683 282.55718306 47.90445269 281.36328125 48.890625 C280.35652344 49.66921875 279.34976562 50.4478125 278.3125 51.25 C272.8606173 55.49233593 267.50914288 59.84560043 262.1875 64.25 C257.18201628 68.39243108 252.16126732 72.49495818 247.0078125 76.453125 C244.79920008 78.15470188 242.61602195 79.88505838 240.4375 81.625 C239.61894531 82.27855469 238.80039062 82.93210937 237.95703125 83.60546875 C235.60656906 85.50881528 233.27453725 87.42955004 230.94921875 89.36328125 C229.88006226 90.24669189 229.88006226 90.24669189 228.78930664 91.14794922 C227.36584706 92.32493272 225.94691203 93.50741359 224.53295898 94.69580078 C223.87497314 95.23833496 223.2169873 95.78086914 222.5390625 96.33984375 C221.95334473 96.82831787 221.36762695 97.31679199 220.76416016 97.82006836 C218.84947546 99.10067604 217.25035622 99.57778796 215 100 C215 100.66 215 101.32 215 102 C213.41796875 103.41015625 213.41796875 103.41015625 211.1875 105.0625 C206.44147868 108.60889508 202.00532541 112.43971075 197.578125 116.375 C195 118 195 118 192.5390625 118.046875 C189.2175053 116.67737141 186.77427955 114.61179371 184.125 112.25 C183.0557686 111.33467312 181.98546471 110.42059747 180.9140625 109.5078125 C179.47160156 108.26644531 179.47160156 108.26644531 178 107 C168.09977136 98.55449884 154.72156293 95.99876588 142 97 C131.21246654 98.81426699 123.47223329 103.38410318 115 110 C113.99839844 110.77988281 112.99679688 111.55976563 111.96484375 112.36328125 C109.62213248 114.21833954 107.30106647 116.09369888 105 118 C99.37879732 116.08639909 95.88839023 113.30489397 91.55859375 109.2890625 C88.27523538 106.35158463 84.79440546 103.7211017 81.28613281 101.05981445 C76.82926739 97.66480679 72.46474149 94.16825647 68.125 90.625 C58.17957378 82.50820663 48.17310081 74.47277737 38.0625 66.5625 C32.31508022 62.06586469 26.64704843 57.47720957 20.99414062 52.86254883 C15.79467099 48.62559099 10.54068901 44.4627623 5.25195312 40.33789062 C1.08952873 37.08952873 1.08952873 37.08952873 0 36 C-0.08855161 33.3337397 -0.11524673 30.69352886 -0.09765625 28.02734375 C-0.0962413 27.22970108 -0.09482635 26.43205841 -0.09336853 25.61024475 C-0.08775316 23.05262565 -0.07519812 20.49509282 -0.0625 17.9375 C-0.05748698 16.20768355 -0.05292373 14.47786574 -0.04882812 12.74804688 C-0.03777875 8.49866447 -0.02050386 4.24934688 0 0 Z " fill="#CFDFF1" transform="translate(75,166)"/>
<path d="M0 0 C0.33 0 0.66 0 1 0 C1.09350799 27.45135518 1.16401098 54.90268644 1.20724869 82.35416889 C1.22785975 95.10083152 1.25595268 107.8473951 1.30175781 120.59399414 C1.34166995 131.70601013 1.36744339 142.81795438 1.37635398 153.93004006 C1.38156126 159.81192832 1.39377027 165.69361135 1.42292023 171.57543373 C1.4501583 177.11660177 1.45842797 182.65748086 1.45243073 188.19870949 C1.4535272 190.2275398 1.46143078 192.25638021 1.4768219 194.28515244 C1.61882871 213.97685903 1.61882871 213.97685903 -3 223 C-6.81178031 221.18567032 -9.96580378 218.81337761 -13.25 216.1875 C-13.8584375 215.70539063 -14.466875 215.22328125 -15.09375 214.7265625 C-20.44371739 210.47486077 -25.74143971 206.15881328 -31.03613281 201.83862305 C-35.3223059 198.34616659 -39.64225112 194.90262584 -44 191.5 C-49.04846287 187.55804954 -54.03756894 183.54969078 -59 179.5 C-64.54918059 174.97245928 -70.13915637 170.50484138 -75.78125 166.09375 C-80.68397872 162.25828195 -85.54452907 158.37189935 -90.39916992 154.47583008 C-94.5341758 151.16130851 -98.69702787 147.88509791 -102.875 144.625 C-109.01184601 139.83089132 -115.01997854 134.88840696 -121.01928711 129.92382812 C-125.27391725 126.4073307 -129.5592025 122.9469706 -133.94140625 119.58984375 C-137.28057988 117.01101326 -140.55426091 114.35060507 -143.8359375 111.69921875 C-146.09107859 109.88325839 -146.09107859 109.88325839 -149 108 C-147.42530227 103.72005233 -144.16708335 101.30552481 -140.75 98.5 C-139.90888672 97.79037109 -139.90888672 97.79037109 -139.05078125 97.06640625 C-135.511304 94.11547949 -131.87678604 91.49054133 -128 89 C-125.17661664 90.31365216 -122.86065127 91.77796612 -120.4609375 93.7578125 C-119.47456299 94.56629639 -119.47456299 94.56629639 -118.46826172 95.39111328 C-117.77748535 95.9632959 -117.08670898 96.53547852 -116.375 97.125 C-114.92728396 98.31274458 -113.47936794 99.50024546 -112.03125 100.6875 C-111.33386719 101.26113281 -110.63648438 101.83476562 -109.91796875 102.42578125 C-104.94571894 106.50687427 -99.90958607 110.50854884 -94.84375 114.47265625 C-87.82407938 119.96587489 -80.86827489 125.52710037 -73.96240234 131.1628418 C-69.67648246 134.65451779 -65.35717028 138.09774925 -61 141.5 C-53.83902275 147.09258765 -46.80018996 152.83130788 -39.75683594 158.57080078 C-33.61566061 163.56669299 -27.40764621 168.47807034 -21.1875 173.375 C-20.66720215 173.78508301 -20.1469043 174.19516602 -19.61083984 174.61767578 C-13.44470118 179.46157566 -7.21616544 184.21833428 -1 189 C-0.67 126.63 -0.34 64.26 0 0 Z " fill="#FE8300" transform="translate(418,178)"/>
<path d="M0 0 C0.33 0 0.66 0 1 0 C1.33 62.37 1.66 124.74 2 189 C12.56386675 180.89175777 12.56386675 180.89175777 22.9375 172.5625 C27.9186898 168.48916446 32.9276543 164.45925768 38 160.5 C44.51239182 155.41414989 50.92366688 150.20903602 57.328125 144.98828125 C60.97400003 142.01698563 64.64555148 139.07900604 68.32421875 136.1484375 C70.45982483 134.43371729 72.58590389 132.70907417 74.70703125 130.9765625 C80.89278432 125.92539911 87.08081681 120.89772142 93.4375 116.0625 C98.64237453 112.09564668 103.70837782 107.98451774 108.75 103.8125 C109.84284302 102.91132446 109.84284302 102.91132446 110.95776367 101.99194336 C113.95106756 99.52346838 116.93940267 97.05106791 119.90625 94.55078125 C120.6796875 93.91527344 121.453125 93.27976562 122.25 92.625 C122.87390625 92.10164063 123.4978125 91.57828125 124.140625 91.0390625 C126.74941394 89.58120985 128.04083118 89.45842445 131 90 C133.32492646 91.66149313 135.34089341 93.27725844 137.4375 95.1875 C138.54021243 96.16032875 139.64307627 97.13298589 140.74609375 98.10546875 C141.28089355 98.58419434 141.81569336 99.06291992 142.36669922 99.55615234 C144.86319479 101.76306935 147.42986989 103.87954574 150 106 C145.74311347 111.67584871 140.61050635 115.70242847 135 120 C133.95972656 120.79792969 132.91945312 121.59585938 131.84765625 122.41796875 C130.19278626 123.68718984 128.53787834 124.95635526 126.88208008 126.22436523 C122.52486723 129.57073016 118.25902091 133.01708818 114.01953125 136.51171875 C105.44190496 143.58021545 96.84534231 150.63039739 88.04296875 157.41796875 C81.24695392 162.6806571 74.60197559 168.13515185 67.9375 173.5625 C63.15109669 177.46008632 58.34125738 181.3135848 53.44921875 185.078125 C50.03415085 187.7578912 46.67614143 190.50612235 43.3125 193.25 C37.64225079 197.87270142 31.94754909 202.45895353 26.17163086 206.94921875 C23.13098058 209.31373303 20.125439 211.71015026 17.15625 214.1640625 C16.52348145 214.6801709 15.89071289 215.1962793 15.23876953 215.72802734 C14.02304634 216.72079894 12.8152225 217.72334698 11.61669922 218.73681641 C7.54617736 222.03428723 7.54617736 222.03428723 4.92290717 221.86960691 C3 221 3 221 1.96580809 219.25459248 C0.24451136 213.6769344 -0.42448636 208.69337397 -0.36076355 202.86936951 C-0.36332682 201.99596658 -0.3658901 201.12256366 -0.36853105 200.22269398 C-0.37343929 197.32071441 -0.35702523 194.41926494 -0.34057617 191.51733398 C-0.33972926 189.4273632 -0.3402063 187.33739153 -0.34190369 185.24742126 C-0.34276255 179.59103107 -0.32515423 173.93483269 -0.30418181 168.27848697 C-0.285397 162.36080323 -0.28366315 156.44311484 -0.28010559 150.52540588 C-0.27079045 139.32713446 -0.24618378 128.12895115 -0.21605712 116.93071848 C-0.18249665 104.17864872 -0.16602295 91.42657469 -0.15097082 78.67447174 C-0.11963381 52.44959902 -0.06688356 26.22480445 0 0 Z " fill="#FE8300" transform="translate(28,178)"/>
<path d="M0 0 C4.94792923 3.44165474 9.48859788 7.36350979 14.03173828 11.31445312 C17.09017601 13.9335866 20.2585604 16.40470805 23.4375 18.875 C24.01000488 19.32359375 24.58250977 19.7721875 25.17236328 20.234375 C27.72867342 22.23710355 30.29477766 24.22619673 32.87109375 26.203125 C33.69738281 26.83734375 34.52367187 27.4715625 35.375 28.125 C36.08398438 28.66382813 36.79296875 29.20265625 37.5234375 29.7578125 C38.01070313 30.16773438 38.49796875 30.57765625 39 31 C39 31.33 39 31.66 39 32 C-2.25 32 -43.5 32 -86 32 C-80.36961451 26.36961451 -80.36961451 26.36961451 -77.46875 24.01953125 C-76.8291333 23.4999585 -76.1895166 22.98038574 -75.53051758 22.44506836 C-74.86044678 21.9063208 -74.19037598 21.36757324 -73.5 20.8125 C-72.80092529 20.24732666 -72.10185059 19.68215332 -71.3815918 19.09985352 C-65.90705179 14.6902734 -60.36271281 10.37880449 -54.76953125 6.12109375 C-52.97864256 4.74951046 -51.21422337 3.34233912 -49.484375 1.89453125 C-36.00418738 -8.38517158 -14.38922553 -8.13089799 0 0 Z " fill="#FE8201" transform="translate(247,24)"/>
<path d="M0 0 C0.66 0 1.32 0 2 0 C2 24.75 2 49.5 2 75 C-6.92307692 68.30769231 -6.92307692 68.30769231 -10.625 65.3125 C-14.72716412 62.01183564 -18.85618672 58.74803478 -23 55.5 C-28.69468078 51.03467662 -34.36052838 46.53496681 -40 42 C-38.78565254 31.43978852 -31.25773901 24.83041978 -23.375 18.5 C-21.29395575 16.85747025 -19.20222914 15.23068467 -17.10009766 13.61523438 C-14.36000551 11.50776523 -11.64760055 9.36611086 -8.93408203 7.22460938 C-7.15955085 5.82646584 -5.37924826 4.43600188 -3.59765625 3.046875 C-1.73726445 1.5927332 -1.73726445 1.5927332 0 0 Z " fill="#FE6501" transform="translate(72,126)"/>
<path d="M0 0 C5.96803031 3.97868687 11.52572984 7.88428678 17 12.4375 C21.28034887 15.9761673 25.55441487 19.43982289 30.0625 22.6875 C35.51502978 26.8946343 40.26726809 32.47372769 41.6875 39.30859375 C41.790625 40.19675781 41.89375 41.08492187 42 42 C33.71262249 48.76981877 25.4067715 55.5078797 16.96948242 62.09033203 C12.24609595 65.78297516 7.61724674 69.57890819 3.01171875 73.41796875 C1 75 1 75 0 75 C0 50.25 0 25.5 0 0 Z " fill="#FE6500" transform="translate(373,126)"/>
<path d="M0 0 C0.08770383 3.85402129 0.14062735 7.70778291 0.1875 11.5625 C0.21263672 12.64853516 0.23777344 13.73457031 0.26367188 14.85351562 C0.3309475 22.23140912 -0.14833273 27.36166589 -4.8125 33.3125 C-8.80231448 36.39035688 -12.53261912 37.22947079 -17.5 37.0625 C-20.99686194 36.53589981 -23.03701779 35.61465977 -25.5625 33.125 C-28.48829829 29.15602015 -28.7516932 25.53567924 -28.44140625 20.703125 C-27.19718838 13.0836669 -23.20828292 8.51635129 -17.3671875 3.6328125 C-11.91506398 -0.12789316 -6.48633217 -0.06221901 0 0 Z " fill="#EBF0F7" transform="translate(233,140)"/>
<path d="M0 0 C0 12.87 0 25.74 0 39 C-8.81012658 32.39240506 -8.81012658 32.39240506 -12.17578125 29.82421875 C-12.85833984 29.30666016 -13.54089844 28.78910156 -14.24414062 28.25585938 C-15.64485446 27.19375058 -17.04322827 26.12854991 -18.43945312 25.06054688 C-19.11556641 24.54943359 -19.79167969 24.03832031 -20.48828125 23.51171875 C-21.09196533 23.05240967 -21.69564941 22.59310059 -22.31762695 22.11987305 C-24.11918434 20.8144727 -24.11918434 20.8144727 -27 20 C-26.11699219 19.31035156 -25.23398437 18.62070313 -24.32421875 17.91015625 C-23.111807 16.96115741 -21.89958076 16.01192155 -20.6875 15.0625 C-20.05682617 14.56903076 -19.42615234 14.07556152 -18.77636719 13.56713867 C-13.80607734 9.66522303 -8.93691824 5.6597342 -4.109375 1.58203125 C-2 0 -2 0 0 0 Z " fill="#FE8203" transform="translate(74,126)"/>
<path d="M0 0 C5.88455336 3.92303558 11.5469897 7.80508547 17.0625 12.1875 C17.73732422 12.70763672 18.41214844 13.22777344 19.10742188 13.76367188 C19.74357422 14.26833984 20.37972656 14.77300781 21.03515625 15.29296875 C21.6062915 15.7418042 22.17742676 16.19063965 22.76586914 16.65307617 C24 18 24 18 24 21 C22.07829577 22.69579856 20.19318602 24.19062022 18.125 25.6875 C16.93417273 26.57324742 15.7440773 27.45997952 14.5546875 28.34765625 C13.6589502 29.01112061 13.6589502 29.01112061 12.74511719 29.68798828 C9.36358943 32.23028405 6.10518704 34.92705703 2.828125 37.6015625 C1 39 1 39 0 39 C0 26.13 0 13.26 0 0 Z " fill="#FF8101" transform="translate(373,126)"/>
<path d="M0 0 C0.66 0.33 1.32 0.66 2 1 C0.515 2.485 0.515 2.485 -1 4 C38.27 4 77.54 4 118 4 C118.495 4.99 118.495 4.99 119 6 C77.75 6 36.5 6 -6 6 C-4 4 -2 2 0 0 Z " fill="#FE8C2F" transform="translate(167,50)"/>
</svg>
