<?xml version="1.0" encoding="UTF-8"?>
<svg version="1.1" xmlns="http://www.w3.org/2000/svg" width="554" height="554">
<path d="M0 0 C182.82 0 365.64 0 554 0 C554 182.82 554 365.64 554 554 C371.18 554 188.36 554 0 554 C0 371.18 0 188.36 0 0 Z " fill="#FEFEFF" transform="translate(0,0)"/>
<path d="M0 0 C1.06734375 0.7734375 2.1346875 1.546875 3.234375 2.34375 C23.3776613 17.28347399 39.4351689 36.04306391 51.05664062 58.20703125 C51.89750921 59.80520385 52.76714418 61.38816565 53.640625 62.96875 C65.13973507 84.51445098 70.22311222 108.87885812 70.25 133.125 C70.25133942 133.83498138 70.25267883 134.54496277 70.25405884 135.27645874 C70.2475861 151.12997473 69.03083508 166.86740842 64 182 C63.6918335 183.00039307 63.6918335 183.00039307 63.37744141 184.02099609 C55.49393227 209.54776577 42.48027593 231.74062306 24 251 C22.68322266 252.41152344 22.68322266 252.41152344 21.33984375 253.8515625 C9.3629631 266.45848125 -4.55346594 276.11026656 -20 284 C-20.62229492 284.31807617 -21.24458984 284.63615234 -21.88574219 284.96386719 C-37.69444076 292.92227042 -55.1173323 300 -73 300 C-73 261.06 -73 222.12 -73 182 C-60.46 182 -47.92 182 -35 182 C-33.77011948 171.02236965 -33.77011948 171.02236965 -32.54736328 160.04394531 C-32.38859804 158.63864342 -32.22959574 157.23336828 -32.0703125 155.828125 C-31.95610962 154.78664307 -31.95610962 154.78664307 -31.83959961 153.72412109 C-31.11980961 147.42004989 -30.04807219 141.28843311 -29 135 C-43.52 135 -58.04 135 -73 135 C-73.0825 129.616875 -73.165 124.23375 -73.25 118.6875 C-73.28641602 117.01260498 -73.32283203 115.33770996 -73.36035156 113.61206055 C-73.48342007 103.86531917 -73.02058846 94.9728331 -66.625 87.0625 C-60.47804308 82.23274814 -56.4403732 79.86678564 -48.58203125 79.90234375 C-46.88784058 79.90609009 -46.88784058 79.90609009 -45.15942383 79.90991211 C-43.00769653 79.92356812 -43.00769653 79.92356812 -40.8125 79.9375 C-36.254375 79.958125 -31.69625 79.97875 -27 80 C-27 66.8 -27 53.6 -27 40 C-33.435 39.505 -33.435 39.505 -40 39 C-42.97 38.505 -42.97 38.505 -46 38 C-60.47880754 37.14954748 -75.34096529 36.55786822 -89 42 C-89.91136719 42.350625 -90.82273437 42.70125 -91.76171875 43.0625 C-103.9269262 48.42785949 -112.26409707 58.37562834 -117.46875 70.390625 C-123.01508242 85.0303629 -123.37278822 99.29455804 -123.625 114.75 C-123.74875 121.4325 -123.8725 128.115 -124 135 C-137.53 135 -151.06 135 -165 135 C-165 150.51 -165 166.02 -165 182 C-151.47 182 -137.94 182 -124 182 C-124 220.94 -124 259.88 -124 300 C-142.68411693 296.49672808 -142.68411693 296.49672808 -150 293.8125 C-151.25526489 293.36076416 -151.25526489 293.36076416 -152.53588867 292.89990234 C-160.69250554 289.88214785 -168.39132644 286.19687114 -176 282 C-176.62181152 281.66274902 -177.24362305 281.32549805 -177.88427734 280.97802734 C-213.04267746 261.71177272 -236.9207034 230.49018422 -252 194 C-252.4846875 192.84113281 -252.969375 191.68226563 -253.46875 190.48828125 C-257.41574844 180.31994685 -259.27751152 169.73785215 -261 159 C-261.19464844 157.7934375 -261.38929688 156.586875 -261.58984375 155.34375 C-265.59260524 120.98886594 -259.00897454 86.13913195 -242 56 C-241.48034668 55.06003174 -241.48034668 55.06003174 -240.95019531 54.10107422 C-225.42373159 26.20884044 -202.00519045 3.73315325 -173.77539062 -11.06103516 C-172.22550463 -11.88073559 -170.69662064 -12.73990182 -169.171875 -13.60546875 C-117.86413473 -41.58468969 -46.51108092 -34.81835108 0 0 Z " fill="#0080FF" transform="translate(373,141)"/>
</svg>
