<?xml version="1.0" encoding="UTF-8"?>
<svg version="1.1" xmlns="http://www.w3.org/2000/svg" width="554" height="554">
<path d="M0 0 C182.82 0 365.64 0 554 0 C554 182.82 554 365.64 554 554 C371.18 554 188.36 554 0 554 C0 371.18 0 188.36 0 0 Z " fill="#013EAC" transform="translate(0,0)"/>
<path d="M0 0 C182.82 0 365.64 0 554 0 C554 182.82 554 365.64 554 554 C371.18 554 188.36 554 0 554 C0 371.18 0 188.36 0 0 Z M74 81 C71.40756459 84.19635502 69.15927863 87.4996957 67 91 C66.32710937 92.00546875 66.32710937 92.00546875 65.640625 93.03125 C55.61087532 109.12837911 56.27957899 127.18470021 56.3903538 145.42824876 C56.40802775 149.25713354 56.39643185 153.08595359 56.38868713 156.91485596 C56.37807646 164.39171077 56.39386294 171.86828125 56.4188254 179.34509275 C56.44690286 188.06639892 56.44809889 196.78764927 56.44826841 205.50899311 C56.44945277 221.07465937 56.47434035 236.64019593 56.51293945 252.20581055 C56.55030995 267.2859045 56.57153776 282.36590421 56.57446289 297.44604492 C56.5746457 298.37569739 56.57482851 299.30534986 56.57501686 300.26317362 C56.57519583 301.19127321 56.5753748 302.11937281 56.5755592 303.07559663 C56.57592464 304.94457456 56.57629701 306.81355248 56.57667637 308.6825304 C56.57686188 309.60440393 56.5770474 310.52627746 56.57723853 311.47608655 C56.58081369 325.88548459 56.59926455 340.29486823 56.61916961 354.70425156 C56.62617418 359.91328995 56.63096718 365.12232492 56.63413096 370.33136699 C56.63919275 378.59200823 56.65069523 386.85258428 56.67543126 395.11319206 C56.68660419 398.88383309 56.69477044 402.65441066 56.69429779 406.42506981 C56.69392975 410.52103266 56.70914797 414.61679392 56.72584534 418.71272278 C56.72343025 419.89182136 56.72101517 421.07091994 56.7185269 422.28574878 C56.85100164 443.11016632 63.01136621 461.16963455 77.35546875 476.515625 C98.23373918 496.12948023 120.80770974 497.46408061 148.20736527 497.4214921 C152.03980038 497.41879783 155.8721785 497.43339802 159.70458984 497.44558716 C167.19399955 497.46654176 174.68333169 497.47118782 182.17276727 497.46939927 C188.26542699 497.46808682 194.35806271 497.47192031 200.45071793 497.47932434 C202.21192713 497.48142374 203.97313634 497.48352134 205.73434556 497.48561716 C206.61119299 497.48666069 207.48804043 497.48770422 208.391459 497.48877937 C224.93833277 497.50764085 241.48516211 497.50664387 258.03204216 497.49981004 C273.13841253 497.4942352 288.24461328 497.51506482 303.35094403 497.54817051 C318.89935618 497.58197802 334.44768723 497.59706723 349.99613678 497.59245348 C358.71053944 497.59021623 367.42478528 497.59534273 376.13915634 497.62034607 C383.55712461 497.64145047 390.97485001 497.644861 398.39282857 497.62604648 C402.17029857 497.61694529 405.94731685 497.61557067 409.72475052 497.63640213 C436.81819978 497.77595466 457.76106644 494.12958876 478.18359375 474.94921875 C489.46746037 463.26942698 497.11658905 445.59459085 497.12863445 429.37296772 C497.1318589 428.27053551 497.13508335 427.1681033 497.1384055 426.03226405 C497.1368569 424.83159571 497.1353083 423.63092736 497.13371277 422.39387512 C497.13597833 421.1101908 497.13824388 419.82650648 497.14057809 418.50392264 C497.14668792 414.94721327 497.14656345 411.39052744 497.14538372 407.83381402 C497.1451795 403.99522374 497.15070052 400.15664097 497.15544128 396.3180542 C497.16374429 388.79936096 497.16649598 381.28067557 497.16705366 373.76197813 C497.16752906 367.64856033 497.16958499 361.53514511 497.17275429 355.42172813 C497.18156047 338.08157656 497.1861738 320.74143117 497.18542381 303.40127734 C497.18538386 302.46665611 497.1853439 301.53203488 497.18530273 300.5690918 C497.18526185 299.63332657 497.18522097 298.69756134 497.18517885 297.73343959 C497.18477256 282.57400377 497.19433808 267.41459281 497.2084411 252.25516418 C497.22281424 236.68221845 497.22971074 221.10928484 497.22884732 205.53633231 C497.22851564 196.79632911 497.23124997 188.05635197 497.24202538 179.31635475 C497.25114279 171.87354219 497.25329549 164.43076747 497.24651595 156.98795173 C497.2432568 153.19319647 497.24317208 149.39851379 497.2518692 145.60376549 C497.26121647 141.48280343 497.25494226 137.36200853 497.24723816 133.24104309 C497.2549535 131.45677098 497.2549535 131.45677098 497.26282471 129.63645297 C497.18422639 110.57186561 491.28381816 93.26886863 478.1953125 79.16015625 C465.53103968 66.69869207 448.70427997 56.88484915 430.48039818 56.87136555 C429.37647362 56.8681411 428.27254906 56.86491665 427.13517225 56.8615945 C425.92770011 56.8631431 424.72022797 56.8646917 423.47616577 56.86628723 C422.18925233 56.86402167 420.90233888 56.86175612 419.57642806 56.85942191 C416.0060578 56.85330423 412.43571096 56.85343747 408.86533666 56.85461628 C405.01377708 56.85482031 401.16222502 56.84930131 397.31066895 56.84455872 C389.76443303 56.83625115 382.21820492 56.8335038 374.67196481 56.83294634 C368.53611653 56.83247111 362.40027083 56.83041601 356.26442337 56.82724571 C338.86302612 56.81843788 321.46163504 56.81382639 304.06023555 56.81457619 C303.12206192 56.81461614 302.18388829 56.8146561 301.21728516 56.81469727 C300.27796381 56.81473815 299.33864247 56.81477903 298.37085684 56.81482115 C283.15639201 56.81522738 267.94195195 56.80566399 252.72749428 56.7915589 C237.10033962 56.77718574 221.47319704 56.77028927 205.8460356 56.77115268 C197.07471841 56.77148438 188.30342717 56.76874906 179.53211594 56.75797462 C172.06183082 56.74885714 164.59158342 56.74670453 157.12129514 56.75348405 C153.31237006 56.7567433 149.5035173 56.75682755 145.69459915 56.7481308 C141.55825707 56.73878396 137.42208154 56.74505756 133.28573608 56.75276184 C132.09164828 56.74761828 130.89756047 56.74247471 129.66728818 56.73717529 C107.63678701 56.82766867 89.25866431 64.88548113 74 81 Z " fill="#FEFEFE" transform="translate(0,0)"/>
<path d="M0 0 C11.73500188 9.49976343 15.03151004 24.6352583 17 39 C17.13501862 42.04285258 17.12658028 45.08105627 17.11352539 48.12646484 C17.11367142 49.02466949 17.11381744 49.92287415 17.1139679 50.84829712 C17.11327398 53.80253557 17.10550605 56.75671013 17.09765625 59.7109375 C17.09579022 61.76502447 17.09436719 63.81911189 17.09336853 65.87319946 C17.08955794 71.26870969 17.07974012 76.66419283 17.06866455 82.05969238 C17.05661639 88.53921448 17.05204125 95.01874566 17.04621124 101.49827576 C17.03652758 111.33220266 17.0173608 121.16607016 17 131 C2.81 131 -11.38 131 -26 131 C-26.03738281 125.37582031 -26.07476562 119.75164062 -26.11328125 113.95703125 C-26.14359672 110.37041346 -26.17476791 106.78384316 -26.20898438 103.19726562 C-26.26308185 97.51833647 -26.31419939 91.83950122 -26.34643555 86.16040039 C-26.37265713 81.57608195 -26.41318913 76.99208328 -26.46318626 72.40796471 C-26.4797286 70.6687388 -26.4913208 68.92945775 -26.49761391 67.19016457 C-26.16268525 48.47136252 -26.16268525 48.47136252 -34.20703125 32.26953125 C-40.34127923 27.92610948 -47.84426784 28.45697014 -55 29 C-60.52477174 29.98496741 -64.31128861 32.35025916 -67.65409851 36.88076782 C-73.50192258 46.088646 -72.47514563 57.44805093 -72.51171875 67.9140625 C-72.52858829 69.7382425 -72.54674155 71.56241105 -72.56611633 73.38656616 C-72.61337558 78.15725115 -72.64334005 82.92788964 -72.66955566 87.69873047 C-72.70475742 93.4392505 -72.76170091 99.17959209 -72.81494904 104.91996765 C-72.89318027 113.61328828 -72.94399934 122.30637985 -73 131 C-87.19 131 -101.38 131 -116 131 C-116 85.79 -116 40.58 -116 -6 C-102.47 -6 -88.94 -6 -75 -6 C-74.505 1.92 -74.505 1.92 -74 10 C-73.01 8.80375 -72.02 7.6075 -71 6.375 C-53.66180939 -13.37030359 -20.6990389 -16.6771151 0 0 Z " fill="#FBFCFD" transform="translate(363,249)"/>
<path d="M0 0 C13.86 0 27.72 0 42 0 C42 44.88 42 89.76 42 136 C28.14 136 14.28 136 0 136 C0 91.12 0 46.24 0 0 Z " fill="#FDFEFE" transform="translate(178,243)"/>
<path d="M0 0 C1.28736002 -0.00367669 2.57472005 -0.00735338 3.90109098 -0.01114148 C7.45888651 -0.0211029 11.01666518 -0.02486874 14.57447267 -0.02753079 C18.41786039 -0.03145118 22.26123498 -0.04102802 26.10461426 -0.04974365 C35.37691436 -0.0694561 44.64921546 -0.07956624 53.92153126 -0.08847144 C58.29401568 -0.09286167 62.66649891 -0.09822645 67.03898239 -0.10346031 C81.58302623 -0.12046504 96.12706935 -0.1349588 110.6711216 -0.14220905 C114.44069037 -0.14411875 118.21025913 -0.14603912 121.97982788 -0.147995 C122.91666579 -0.14847874 123.8535037 -0.14896248 124.81873064 -0.14946087 C139.99220601 -0.15775988 155.16560251 -0.183098 170.33904345 -0.21557567 C185.93579705 -0.24868599 201.53251061 -0.26666128 217.12929952 -0.26985329 C225.87890927 -0.27201438 234.62840389 -0.28070445 243.37797928 -0.30631447 C250.82946781 -0.32807556 258.28081322 -0.33604526 265.73232992 -0.32634769 C269.5295815 -0.321819 273.32653812 -0.32360508 277.12374878 -0.34310913 C281.25246315 -0.36413161 285.38053031 -0.35370462 289.50927734 -0.34057617 C291.28423173 -0.35703004 291.28423173 -0.35703004 293.09504378 -0.37381631 C303.3941261 -0.29516918 312.64994151 2.21437752 322.1355896 6.14717102 C322.1355896 6.47717102 322.1355896 6.80717102 322.1355896 7.14717102 C317.09728547 8.07257382 313.17039559 7.87755271 308.1355896 7.14717102 C305.61585003 7.03516461 303.0938996 6.96763258 300.57188416 6.93490601 C299.47706414 6.91902399 299.47706414 6.91902399 298.36012655 6.90282112 C295.93058102 6.86899356 293.50101529 6.84198546 291.07138062 6.81538391 C289.32329727 6.79333221 287.57521674 6.77105547 285.8271389 6.7485714 C281.07449784 6.68939119 276.32180445 6.63762633 271.56905055 6.58841968 C268.56018279 6.55715255 265.55133309 6.52444263 262.54248238 6.49157906 C219.33145694 6.02775939 176.13010348 6.2030478 132.91880858 6.52052557 C121.97873889 6.60072361 111.03861469 6.67215091 100.09848022 6.74287415 C99.11932184 6.7492053 98.14016345 6.75553645 97.13133359 6.76205945 C93.22237821 6.78731038 89.31342269 6.81253804 85.40446627 6.83762705 C80.65335188 6.86814974 75.90224054 6.89904598 71.15113449 6.93084335 C42.81217616 7.1204735 14.47528151 7.22912664 -13.8644104 7.14717102 C-14.3594104 5.16717102 -14.3594104 5.16717102 -14.8644104 3.14717102 C-15.7719104 3.82779602 -16.6794104 4.50842102 -17.6144104 5.20967102 C-20.8644104 7.14717102 -20.8644104 7.14717102 -23.0519104 6.83467102 C-23.6500354 6.60779602 -24.2481604 6.38092102 -24.8644104 6.14717102 C-25.8544104 6.47717102 -26.8444104 6.80717102 -27.8644104 7.14717102 C-28.1944104 9.45717102 -28.5244104 11.76717102 -28.8644104 14.14717102 C-33.92175182 15.83295149 -39.5504001 15.14717102 -44.8644104 15.14717102 C-44.8644104 17.78717102 -44.8644104 20.42717102 -44.8644104 23.14717102 C-45.6275354 22.92029602 -46.3906604 22.69342102 -47.1769104 22.45967102 C-49.82320771 21.87868068 -49.82320771 21.87868068 -51.6769104 23.20967102 C-53.32747077 25.90269058 -53.07069678 28.0528753 -52.8644104 31.14717102 C-55.62717217 30.62448636 -58.190498 30.03847516 -60.8644104 29.14717102 C-57.96598045 18.51959453 -45.24089208 11.97481944 -36.3644104 6.89717102 C-24.61742209 0.68402488 -13.05364011 -0.00201105 0 0 Z " fill="#042992" transform="translate(132.86441040039063,56.85282897949219)"/>
<path d="M0 0 C2.0625 0.4375 2.0625 0.4375 4 1 C3.505 1.474375 3.01 1.94875 2.5 2.4375 C0.29546331 6.20358351 0.75391887 9.73459379 1 14 C0.36320312 14.12375 -0.27359375 14.2475 -0.9296875 14.375 C-3.18942306 14.79638536 -3.18942306 14.79638536 -4.125 17 C-4.558125 17.99 -4.558125 17.99 -5 19 C-5.66 19.33 -6.32 19.66 -7 20 C-8.0761054 23.57535019 -8.0761054 23.57535019 -7 27 C-7.680625 27.5775 -8.36125 28.155 -9.0625 28.75 C-10.0215625 29.86375 -10.0215625 29.86375 -11 31 C-10.86358623 33.21858253 -10.86358623 33.21858253 -10 35 C-9.01 35 -8.02 35 -7 35 C-7.33 137.96 -7.66 240.92 -8 347 C-8.66 347 -9.32 347 -10 347 C-10.495 350.96 -10.495 350.96 -11 355 C-9.68 355 -8.36 355 -7 355 C-7.2784375 355.86625 -7.2784375 355.86625 -7.5625 356.75 C-8.05219985 359.26845636 -7.66694826 360.55452304 -7 363 C-6.96213099 364.66623639 -6.95372155 366.33397597 -7 368 C-7.66 368 -8.32 368 -9 368 C-9.65780202 366.19180934 -10.30055208 364.37814157 -10.9375 362.5625 C-11.29714844 361.55316406 -11.65679687 360.54382813 -12.02734375 359.50390625 C-14.33808654 351.17966416 -14.15030769 342.64644032 -14.15390015 334.07348633 C-14.1582824 332.79147213 -14.16266465 331.50945793 -14.1671797 330.18859482 C-14.17905911 326.65025449 -14.18477337 323.11192775 -14.18936086 319.57357144 C-14.19534975 315.74922893 -14.20695095 311.92490236 -14.21765137 308.10057068 C-14.24209674 298.87613644 -14.25678899 289.65169697 -14.26971143 280.42724037 C-14.2734285 277.81881807 -14.27740128 275.21039628 -14.2814641 272.60197449 C-14.30670089 256.37762992 -14.32873725 240.15328441 -14.34119225 223.92892456 C-14.34412155 220.17673744 -14.34708328 216.42455034 -14.35009766 212.67236328 C-14.35084371 211.73986842 -14.35158976 210.80737356 -14.35235842 209.84662127 C-14.36500515 194.74958131 -14.39822445 179.6526593 -14.43989949 164.55567443 C-14.48240403 149.03006629 -14.50589689 133.50451842 -14.51111281 117.97885227 C-14.51451677 109.27216727 -14.52615206 100.56566677 -14.55921555 91.85903931 C-14.58733429 84.44277525 -14.59816373 77.02673361 -14.58702008 69.61042041 C-14.58186393 65.8329769 -14.58451931 62.05599831 -14.60948563 58.27862358 C-14.72379186 40.00150138 -14.66484702 23.04540128 -4.75 7 C-4.399375 6.41734375 -4.04875 5.8346875 -3.6875 5.234375 C-1.29352679 1.29352679 -1.29352679 1.29352679 0 0 Z " fill="#045491" transform="translate(71,85)"/>
<path d="M0 0 C6.48694808 3.93949851 11.437928 10.25146024 13.5625 17.5 C14.42230606 24.8749562 13.4544348 31.21467843 9.2734375 37.41015625 C5.12302392 42.637014 0.21733416 46.18147211 -6.4375 47.5 C-15.87130214 48.32170471 -22.29910902 45.84833347 -29.7109375 40.0390625 C-34.05872353 36.16343423 -35.98515929 30.93421832 -36.734375 25.24609375 C-37.12356029 18.33805486 -35.38496438 13.16499095 -31.4375 7.5 C-23.32390053 -1.34971232 -11.57361449 -5.12869975 0 0 Z " fill="#FAFCFC" transform="translate(210.4375,176.5)"/>
<path d="M0 0 C1.26865308 -0.00085442 2.53730616 -0.00170885 3.84440327 -0.00258917 C7.34942631 -0.00481645 10.85441858 -0.00083711 14.3594377 0.0041889 C18.14529017 0.00851865 21.93114099 0.00704518 25.71699524 0.00628662 C32.2708375 0.00576299 38.82466977 0.00889304 45.37850952 0.01452446 C54.85419088 0.02266118 64.32986742 0.02525691 73.80555189 0.02651245 C89.18026649 0.02869955 104.55497578 0.03535039 119.9296875 0.04481506 C134.86230442 0.05399801 149.79491989 0.06107453 164.72753906 0.06532288 C165.64841891 0.0655856 166.56929875 0.06584832 167.51808405 0.06611901 C172.13799698 0.06742407 176.75790993 0.06868777 181.37782288 0.06993091 C219.68759527 0.08029289 257.99736174 0.09790192 296.30712891 0.12025452 C296.30712891 0.45025452 296.30712891 0.78025452 296.30712891 1.12025452 C258.19212891 1.61525452 258.19212891 1.61525452 219.30712891 2.12025452 C219.30712891 2.45025452 219.30712891 2.78025452 219.30712891 3.12025452 C199.27472639 3.25255604 179.24231253 3.38300145 159.20988464 3.51140594 C149.90244999 3.57110549 140.59501959 3.63135653 131.28759766 3.69300842 C51.22286171 4.2227805 51.22286171 4.2227805 11.30712891 4.12025452 C11.30712891 5.11025452 11.30712891 6.10025452 11.30712891 7.12025452 C3.05712891 7.12025452 -5.19287109 7.12025452 -13.69287109 7.12025452 C-14.18787109 5.14025452 -14.18787109 5.14025452 -14.69287109 3.12025452 C-15.60037109 3.80087952 -16.50787109 4.48150452 -17.44287109 5.18275452 C-20.69287109 7.12025452 -20.69287109 7.12025452 -22.88037109 6.80775452 C-23.47849609 6.58087952 -24.07662109 6.35400452 -24.69287109 6.12025452 C-25.68287109 6.45025452 -26.67287109 6.78025452 -27.69287109 7.12025452 C-28.02287109 9.43025452 -28.35287109 11.74025452 -28.69287109 14.12025452 C-33.75021251 15.80603499 -39.37886079 15.12025452 -44.69287109 15.12025452 C-44.69287109 17.76025452 -44.69287109 20.40025452 -44.69287109 23.12025452 C-45.45599609 22.89337952 -46.21912109 22.66650452 -47.00537109 22.43275452 C-49.65166841 21.85176418 -49.65166841 21.85176418 -51.50537109 23.18275452 C-53.15593147 25.87577407 -52.89915748 28.0259588 -52.69287109 31.12025452 C-55.45563287 30.59756986 -58.01895869 30.01155865 -60.69287109 29.12025452 C-57.79444114 18.49267802 -45.06935277 11.94790293 -36.19287109 6.87025452 C-24.49751801 0.68441897 -12.99779025 -0.03211238 0 0 Z " fill="#01226D" transform="translate(132.69287109375,56.87974548339844)"/>
<path d="M0 0 C0.66 0.33 1.32 0.66 2 1 C1.67 103.96 1.34 206.92 1 313 C0.34 313 -0.32 313 -1 313 C-1.02286819 273.41448301 -1.04049915 233.82896687 -1.05106533 194.2434446 C-1.0523161 189.57440576 -1.05361041 184.90536694 -1.05493164 180.23632812 C-1.05519395 179.30677155 -1.05545626 178.37721498 -1.05572652 177.41949002 C-1.06008274 162.35059923 -1.06797003 147.28171224 -1.0771528 132.2128237 C-1.08649066 116.76102472 -1.09205589 101.30922774 -1.09408849 85.85742605 C-1.09546344 76.31599629 -1.09981254 66.77457728 -1.10791647 57.23315082 C-1.11318556 50.69816524 -1.11480392 44.16318524 -1.11350138 37.62819768 C-1.11285826 33.85284577 -1.11387263 30.07751268 -1.11920547 26.30216408 C-1.12493383 22.21718748 -1.12299913 18.1322514 -1.12025452 14.04727173 C-1.12316736 12.84301249 -1.1260802 11.63875325 -1.12908131 10.39800131 C-1.12709026 9.31068319 -1.12509921 8.22336507 -1.12304783 7.10309792 C-1.12342755 6.15911317 -1.12380727 5.21512843 -1.1241985 4.24253809 C-1 2 -1 2 0 0 Z " fill="#005799" transform="translate(62,119)"/>
<path d="M0 0 C5.94 0.99 5.94 0.99 12 2 C12 1.34 12 0.68 12 0 C13.98 0 15.96 0 18 0 C18 2.31 18 4.62 18 7 C18.99 7.33 19.98 7.66 21 8 C21 8.99 21 9.98 21 11 C23.475 11.495 23.475 11.495 26 12 C25.95875 13.2375 25.9175 14.475 25.875 15.75 C25.86650173 20.20417759 25.86650173 20.20417759 28 24 C30.55519921 24.81171228 30.55519921 24.81171228 33 25 C33.495 26.485 33.495 26.485 34 28 C32.35 28.66 30.7 29.32 29 30 C29 30.66 29 31.32 29 32 C30.32 32 31.64 32 33 32 C33.495 35.96 33.495 35.96 34 40 C33.01 40.495 33.01 40.495 32 41 C32.350625 41.515625 32.70125 42.03125 33.0625 42.5625 C34.36324552 45.94443836 33.51964345 48.42023402 33 52 C33.11411397 53.37989853 33.27175005 54.75649355 33.45874023 56.12841797 C34.31676968 64.0011406 34.12316606 71.91212634 34.09765625 79.8203125 C34.09578785 81.53237873 34.09436594 83.24444549 34.09336853 84.95651245 C34.0895766 89.4313305 34.07977524 93.90611535 34.06866455 98.38092041 C34.05837843 102.95967154 34.05385558 107.53842811 34.04882812 112.1171875 C34.03814953 121.07813947 34.02111373 130.03906696 34 139 C33.34 139 32.68 139 32 139 C31.67 139.66 31.34 140.32 31 141 C30.99191315 139.80396652 30.98382629 138.60793304 30.97549438 137.37565613 C30.89809823 126.11864357 30.81037557 114.86175285 30.71247292 103.60489941 C30.66247079 97.8172719 30.61614109 92.02966299 30.578125 86.24194336 C30.54132171 80.65923515 30.49497528 75.07668114 30.44193649 69.49410439 C30.42336616 67.36142995 30.40826802 65.22872244 30.39665604 63.09599876 C30.37983876 60.11486303 30.35081465 57.13408247 30.31884766 54.15307617 C30.31668747 53.2661911 30.31452728 52.37930603 30.31230164 51.46554565 C30.30113815 50.65366287 30.28997467 49.84178009 30.2784729 49.0052948 C30.27294214 48.30012317 30.26741138 47.59495153 30.26171303 46.86841106 C30.09106168 44.66651608 30.09106168 44.66651608 28 42 C27.34531817 39.48133324 26.75049055 36.97608088 26.1875 34.4375 C23.47896374 23.07899868 19.52739482 13.76514906 9.328125 7.30859375 C7.5484234 6.26540708 5.75355536 5.24746305 3.94140625 4.26171875 C3.30074219 3.84535156 2.66007812 3.42898437 2 3 C2 2.34 2 1.68 2 1 C1.34 0.67 0.68 0.34 0 0 Z M-14 141 C0.85 141 15.7 141 31 141 C31 141.99 31 142.98 31 144 C30.28175049 143.83773926 29.56350098 143.67547852 28.82348633 143.50830078 C26.08542906 143.01537945 23.60211825 142.87075839 20.82421875 142.8671875 C19.83808594 142.86525391 18.85195313 142.86332031 17.8359375 142.86132812 C16.79695313 142.86583984 15.75796875 142.87035156 14.6875 142.875 C13.09228516 142.87790039 13.09228516 142.87790039 11.46484375 142.88085938 C2.94421886 142.92716712 -5.50835272 143.30068787 -14 144 C-14 143.01 -14 142.02 -14 141 Z " fill="#0638C5" transform="translate(350,240)"/>
<path d="M0 0 C0.9155365 0.00085602 1.831073 0.00171204 2.77435303 0.00259399 C14.1829218 0.01404762 25.59146076 0.03421468 37 0.0625 C37 0.3925 37 0.7225 37 1.0625 C76.105 1.5575 76.105 1.5575 116 2.0625 C116 2.3925 116 2.7225 116 3.0625 C92.55430172 3.21716166 69.10856957 3.36516618 45.66278076 3.5054636 C34.77402577 3.57077245 23.88529161 3.63817715 12.99658203 3.71069336 C3.49479645 3.77396747 -6.00700481 3.83312837 -15.50884533 3.88755554 C-20.52979639 3.91645408 -25.5507175 3.94727239 -30.57162476 3.98303413 C-50.74291674 4.1254603 -70.85357676 4.25731226 -91 3.0625 C-91 2.4025 -91 1.7425 -91 1.0625 C-60.66426546 0.17471698 -30.34643748 -0.0285748 0 0 Z " fill="#013285" transform="translate(235,59.9375)"/>
<path d="M0 0 C2.64 0 5.28 0 8 0 C8 2.31 8 4.62 8 7 C10.31 7.66 12.62 8.32 15 9 C16.125 14.75 16.125 14.75 15 17 C18.465 16.505 18.465 16.505 22 16 C23.85776765 19.13498292 24.20140476 21.37471432 24 25 C27.465 24.505 27.465 24.505 31 24 C31.82638376 26.89234315 32 28.88742431 32 32 C35.3 32 38.6 32 42 32 C42.33 32.66 42.66 33.32 43 34 C43.495 33.01 43.495 33.01 44 32 C45.32 32.33 46.64 32.66 48 33 C48 34.32 48 35.64 48 37 C48.99 37 49.98 37 51 37 C51.33 35.35 51.66 33.7 52 32 C53.32 32.66 54.64 33.32 56 34 C56 34.99 56 35.98 56 37 C56.66 37 57.32 37 58 37 C58.33 37.99 58.66 38.98 59 40 C51.21923024 39.65124834 44.18510724 39.11070008 37 36 C36.06542969 35.59910156 35.13085938 35.19820313 34.16796875 34.78515625 C19.44605971 27.96280816 7.27508989 16.57773694 0 2 C0 1.34 0 0.68 0 0 Z " fill="#08457E" transform="translate(64,456)"/>
<path d="M0 0 C1.98 0 3.96 0 6 0 C7.18665245 13.76516847 0.03081673 28.70259543 -8.54296875 39.234375 C-15.12985593 46.89141061 -22.88433188 54.60418387 -33 57 C-34 56 -34 56 -34.25 53.0625 C-34.12625 51.5465625 -34.12625 51.5465625 -34 50 C-30.4144509 47.60963393 -27.2914923 47 -23 47 C-22.34 46.01 -21.68 45.02 -21 44 C-20.01 44 -19.02 44 -18 44 C-18 42.68 -18 41.36 -18 40 C-15.03 39.505 -15.03 39.505 -12 39 C-10.67696194 33.89685321 -9.8767023 29.30180097 -10 24 C-7.69 24 -5.38 24 -3 24 C-2.63705686 21.8973294 -2.28493028 19.79278943 -1.9375 17.6875 C-1.74027344 16.51574219 -1.54304688 15.34398437 -1.33984375 14.13671875 C-0.77694302 10.97488124 -0.77694302 10.97488124 -2 8 C-1.54451823 5.26187393 -0.74685247 2.6798824 0 0 Z " fill="#132390" transform="translate(490,432)"/>
<path d="M0 0 C-1.41840259 2.83680518 -3.18641385 3.62592304 -6 5 C-8.125 4.625 -8.125 4.625 -10 4 C-10.99 4.33 -11.98 4.66 -13 5 C-13.33 7.31 -13.66 9.62 -14 12 C-19.05734142 13.68578047 -24.6859897 13 -30 13 C-30 15.64 -30 18.28 -30 21 C-30.763125 20.773125 -31.52625 20.54625 -32.3125 20.3125 C-34.95879731 19.73150966 -34.95879731 19.73150966 -36.8125 21.0625 C-38.46306037 23.75551955 -38.20628638 25.90570428 -38 29 C-40.76276177 28.47731534 -43.3260876 27.89130413 -46 27 C-43.10157005 16.37242351 -30.37648168 9.82764842 -21.5 4.75 C-14.68224454 1.15307951 -7.76153229 -2.24675935 0 0 Z " fill="#0B4780" transform="translate(118,59)"/>
<path d="M0 0 C12.29238299 2.91135387 22.15197636 13.94716177 29 24 C30.23828125 27.31640625 30.23828125 27.31640625 31 30 C28.23735711 30.59732819 25.83967231 31 23 31 C23.33 28.36 23.66 25.72 24 23 C22.35 23 20.7 23 19 23 C18.67 22.01 18.34 21.02 18 20 C17.01 19.67 16.02 19.34 15 19 C15 17.68 15 16.36 15 15 C14.34 14.67 13.68 14.34 13 14 C12.67 14.33 12.34 14.66 12 15 C10.32457024 14.71395102 8.65614657 14.38218767 7 14 C7 11.36 7 8.72 7 6 C6.01 6.495 6.01 6.495 5 7 C3.00039988 7.039992 0.99952758 7.04346799 -1 7 C-1.04254356 5.00045254 -1.04080783 2.99958364 -1 1 C-0.67 0.67 -0.34 0.34 0 0 Z " fill="#061F9E" transform="translate(457,65)"/>
<path d="M0 0 C8.71785888 0.14377279 8.71785888 0.14377279 12.79296875 1.23046875 C12.79296875 3.54046875 12.79296875 5.85046875 12.79296875 8.23046875 C11.73078125 8.1840625 10.66859375 8.13765625 9.57421875 8.08984375 C-2.67510966 7.67286479 -2.67510966 7.67286479 -12.90625 13.80859375 C-18.16339605 19.46034398 -20.36903871 24.78990595 -20.33203125 32.54296875 C-20.29335937 33.57035156 -20.2546875 34.59773438 -20.21484375 35.65625 C-20.20703125 38.23046875 -20.20703125 38.23046875 -21.20703125 40.23046875 C-23.18703125 40.23046875 -25.16703125 40.23046875 -27.20703125 40.23046875 C-26.87703125 38.58046875 -26.54703125 36.93046875 -26.20703125 35.23046875 C-25.54703125 35.23046875 -24.88703125 35.23046875 -24.20703125 35.23046875 C-24.20703125 31.60046875 -24.20703125 27.97046875 -24.20703125 24.23046875 C-24.53703125 24.23046875 -24.86703125 24.23046875 -25.20703125 24.23046875 C-25.57626202 19.6766226 -25.57626202 19.6766226 -23.70703125 17.41796875 C-23.21203125 17.02609375 -22.71703125 16.63421875 -22.20703125 16.23046875 C-20.87369792 16.89713542 -19.54036458 17.56380208 -18.20703125 18.23046875 C-18.53703125 15.92046875 -18.86703125 13.61046875 -19.20703125 11.23046875 C-17.88703125 11.56046875 -16.56703125 11.89046875 -15.20703125 12.23046875 C-15.53703125 11.24046875 -15.86703125 10.25046875 -16.20703125 9.23046875 C-13.87369792 9.23046875 -11.54036458 9.23046875 -9.20703125 9.23046875 C-9.02398437 8.5859375 -8.8409375 7.94140625 -8.65234375 7.27734375 C-7.20703125 5.23046875 -7.20703125 5.23046875 -3.94921875 4.62109375 C-2.67304688 4.5746875 -1.396875 4.52828125 -0.08203125 4.48046875 C1.19929688 4.42375 2.480625 4.36703125 3.80078125 4.30859375 C5.28191406 4.26992187 5.28191406 4.26992187 6.79296875 4.23046875 C3.16296875 3.57046875 -0.46703125 2.91046875 -4.20703125 2.23046875 C-2.20703125 0.23046875 -2.20703125 0.23046875 0 0 Z " fill="#0A4CA2" transform="translate(195.20703125,167.76953125)"/>
<path d="M0 0 C5.94 0.99 5.94 0.99 12 2 C12 1.34 12 0.68 12 0 C13.98 0 15.96 0 18 0 C18 2.31 18 4.62 18 7 C18.99 7.33 19.98 7.66 21 8 C21 8.99 21 9.98 21 11 C23.475 11.495 23.475 11.495 26 12 C25.979375 13.155 25.95875 14.31 25.9375 15.5 C25.9375 20.80055791 26.31415508 25.94246525 28 31 C27.34 31 26.68 31 26 31 C25.78085937 30.3709375 25.56171875 29.741875 25.3359375 29.09375 C20.80671379 16.86852827 13.43545262 9.06779119 2 3 C2 2.34 2 1.68 2 1 C1.34 0.67 0.68 0.34 0 0 Z " fill="#0738BB" transform="translate(350,240)"/>
<path d="M0 0 C2.5654594 2.5654594 2.54046087 4.47686668 3 8 C3.99 6.35 4.98 4.7 6 3 C6.5878125 3.7734375 6.5878125 3.7734375 7.1875 4.5625 C7.785625 5.036875 8.38375 5.51125 9 6 C11.65466049 5.76956136 11.65466049 5.76956136 14 5 C14 3.68 14 2.36 14 1 C16.97 1 19.94 1 23 1 C20.18197103 3.20259736 17.30473801 5.0023831 14.1875 6.75 C7.79587137 10.53972671 3.43382653 15.0882313 -1 21 C-1 15.06 -1 9.12 -1 3 C-14.53 3 -28.06 3 -42 3 C-42 2.67 -42 2.34 -42 2 C-28.14 2 -14.28 2 0 2 C0 1.34 0 0.68 0 0 Z " fill="#315BB6" transform="translate(289,240)"/>
<path d="M0 0 C3.75493387 0.06419019 6.81157663 0.84977613 10.40260315 1.93103027 C11.58080627 2.27907715 12.7590094 2.62712402 13.97291565 2.98571777 C16.80157373 3.90185526 19.53655244 4.90789205 22.27760315 6.05603027 C22.27760315 6.38603027 22.27760315 6.71603027 22.27760315 7.05603027 C17.24592508 7.98021604 13.30555266 7.82300562 8.27760315 7.05603027 C4.94233563 6.96800269 1.61322389 6.99562668 -1.72239685 7.05603027 C-2.21739685 6.06603027 -2.21739685 6.06603027 -2.72239685 5.05603027 C-2.06239685 5.05603027 -1.40239685 5.05603027 -0.72239685 5.05603027 C-0.72239685 4.39603027 -0.72239685 3.73603027 -0.72239685 3.05603027 C-24.48239685 2.72603027 -48.24239685 2.39603027 -72.72239685 2.05603027 C-72.72239685 1.72603027 -72.72239685 1.39603027 -72.72239685 1.05603027 C-63.84681786 0.92504329 -54.97123093 0.79461133 -46.09563351 0.66487885 C-41.9739028 0.60461524 -37.85217503 0.54416381 -33.73045349 0.48327637 C-29.74934082 0.42447307 -25.76822107 0.36617198 -21.78709602 0.30821228 C-20.27173668 0.28606377 -18.75637992 0.26373736 -17.24102592 0.2412262 C-15.11104362 0.20961553 -12.9810528 0.17864981 -10.85105896 0.14782715 C-9.035709 0.12117981 -9.035709 0.12117981 -7.1836853 0.09399414 C-4.7890626 0.0677296 -2.39449549 0.03604243 0 0 Z " fill="#0A2197" transform="translate(432.72239685058594,56.9439697265625)"/>
<path d="M0 0 C1.98 0 3.96 0 6 0 C6.73108598 8.48059733 4.2035318 15.20473928 1 23 C0.6803125 23.78246094 0.360625 24.56492187 0.03125 25.37109375 C-1 27 -1 27 -4.125 27.75 C-5.548125 27.87375 -5.548125 27.87375 -7 28 C-7 29.98 -7 31.96 -7 34 C-7.99 33.67 -8.98 33.34 -10 33 C-10 30.03 -10 27.06 -10 24 C-7.69 24 -5.38 24 -3 24 C-2.63705686 21.8973294 -2.28493028 19.79278943 -1.9375 17.6875 C-1.74027344 16.51574219 -1.54304688 15.34398437 -1.33984375 14.13671875 C-0.77694302 10.97488124 -0.77694302 10.97488124 -2 8 C-1.54451823 5.26187393 -0.74685247 2.6798824 0 0 Z " fill="#0421AB" transform="translate(490,432)"/>
<path d="M0 0 C2.0625 0.4375 2.0625 0.4375 4 1 C3.505 1.474375 3.01 1.94875 2.5 2.4375 C0.29546331 6.20358351 0.75391887 9.73459379 1 14 C0.36320312 14.12375 -0.27359375 14.2475 -0.9296875 14.375 C-3.18942306 14.79638536 -3.18942306 14.79638536 -4.125 17 C-4.558125 17.99 -4.558125 17.99 -5 19 C-5.66 19.33 -6.32 19.66 -7 20 C-8.0761054 23.57535019 -8.0761054 23.57535019 -7 27 C-7.639375 27.433125 -8.27875 27.86625 -8.9375 28.3125 C-12.1101168 32.44651583 -11.82469028 36.91601822 -12 42 C-14 40 -14 40 -14.25 36.3828125 C-14.1315509 32.00216999 -13.25909961 28.05763881 -12 23.875 C-11.78504883 23.14796875 -11.57009766 22.4209375 -11.34863281 21.671875 C-9.05817896 14.41824459 -5.48092293 5.48092293 0 0 Z " fill="#1B5C93" transform="translate(71,85)"/>
<path d="M0 0 C1.89492188 0.01353516 1.89492188 0.01353516 3.828125 0.02734375 C4.79234375 0.03894531 5.7565625 0.05054688 6.75 0.0625 C6.75 1.0525 6.75 2.0425 6.75 3.0625 C-1.05853883 6.17258659 -7.72920547 8.79705125 -16.25 8.0625 C-16.25 6.0825 -16.25 4.1025 -16.25 2.0625 C-15.5075 1.918125 -14.765 1.77375 -14 1.625 C-11.40321159 1.14056632 -11.40321159 1.14056632 -9.53125 0.53125 C-6.33456757 -0.12560255 -3.2592261 -0.03017802 0 0 Z " fill="#042096" transform="translate(448.25,487.9375)"/>
<path d="M0 0 C3.31060558 1.65530279 3.88566154 5.25660913 5.125 8.5625 C5.40214844 9.25408203 5.67929687 9.94566406 5.96484375 10.65820312 C7.85204006 15.64579338 8.27558017 19.67411376 8 25 C5.36 25 2.72 25 0 25 C0 24.34 0 23.68 0 23 C1.32 22.34 2.64 21.68 4 21 C3.67 20.67 3.34 20.34 3 20 C2.34 20 1.68 20 1 20 C0.11722245 15.48184719 -0.10589503 11.22487306 -0.0625 6.625 C-0.05347656 5.37976563 -0.04445313 4.13453125 -0.03515625 2.8515625 C-0.02355469 1.91054687 -0.01195312 0.96953125 0 0 Z " fill="#0D239C" transform="translate(488,95)"/>
<path d="M0 0 C2.64 0 5.28 0 8 0 C8 2.31 8 4.62 8 7 C10.31 7.66 12.62 8.32 15 9 C15.6875 11.8125 15.6875 11.8125 16 15 C14.5625 16.875 14.5625 16.875 13 18 C13 17.34 13 16.68 13 16 C12.34 16 11.68 16 11 16 C10.67 15.34 10.34 14.68 10 14 C9.38640625 13.731875 8.7728125 13.46375 8.140625 13.1875 C5.30484524 11.6143667 4.35688852 9.79176591 2.75 7 C2.22921875 6.113125 1.7084375 5.22625 1.171875 4.3125 C0 2 0 2 0 0 Z " fill="#04518E" transform="translate(64,456)"/>
<path d="M0 0 C-1.41840259 2.83680518 -3.18641385 3.62592304 -6 5 C-6.639375 4.835 -7.27875 4.67 -7.9375 4.5 C-11.24053656 3.69926386 -13.15953713 5.34306332 -16 7 C-17.35863401 7.96534522 -18.70343137 8.95277149 -20 10 C-20.33 9.67 -20.66 9.34 -21 9 C-21.99 10.485 -21.99 10.485 -23 12 C-24.65 11.67 -26.3 11.34 -28 11 C-26.48396588 6.45189764 -23.16781817 5.57562673 -19.0546875 3.43359375 C-12.76308699 0.48088609 -6.94477372 -2.01032924 0 0 Z " fill="#1A4176" transform="translate(118,59)"/>
<path d="M0 0 C0.33 0.66 0.66 1.32 1 2 C1.33 1.34 1.66 0.68 2 0 C3.32 0.33 4.64 0.66 6 1 C6 2.32 6 3.64 6 5 C6.99 5 7.98 5 9 5 C9.33 3.35 9.66 1.7 10 0 C11.32 0.66 12.64 1.32 14 2 C14 2.99 14 3.98 14 5 C14.66 5 15.32 5 16 5 C16.33 5.99 16.66 6.98 17 8 C-1.84466019 7.15533981 -1.84466019 7.15533981 -7 2 C-4.35261084 0.5393715 -3.10551666 0 0 0 Z " fill="#0E3872" transform="translate(106,488)"/>
<path d="M0 0 C0.495 1.485 0.495 1.485 1 3 C-1.475 2.505 -1.475 2.505 -4 2 C-4.33 2.66 -4.66 3.32 -5 4 C-18.86 3.67 -32.72 3.34 -47 3 C-47 2.34 -47 1.68 -47 1 C-40.9493954 0.85698848 -34.89877684 0.71458821 -28.84814453 0.57275391 C-26.78987235 0.52441938 -24.73160408 0.47591795 -22.67333984 0.42724609 C-19.71452837 0.35730795 -16.75570334 0.28797044 -13.796875 0.21875 C-12.87694763 0.19687622 -11.95702026 0.17500244 -11.00921631 0.15246582 C-9.71833099 0.12243469 -9.71833099 0.12243469 -8.40136719 0.09179688 C-7.26885529 0.06514954 -7.26885529 0.06514954 -6.11346436 0.03796387 C-4.07593231 0.00136396 -2.03786074 0 0 0 Z " fill="#0343BA" transform="translate(295,380)"/>
<path d="M0 0 C0.66 0.33 1.32 0.66 2 1 C2 2.32 2 3.64 2 5 C2.66 5 3.32 5 4 5 C4.22142255 6.95689659 4.4267568 8.91561952 4.625 10.875 C4.79902344 12.51082031 4.79902344 12.51082031 4.9765625 14.1796875 C4.98429687 15.11039063 4.99203125 16.04109375 5 17 C4.34 17.66 3.68 18.32 3 19 C2.35232207 21.57061311 2.35232207 21.57061311 2 24 C1.34 24 0.68 24 0 24 C0 26.97 0 29.94 0 33 C-0.495 31.515 -0.495 31.515 -1 30 C-1.99 30 -2.98 30 -4 30 C-4 30.66 -4 31.32 -4 32 C-4.66 32 -5.32 32 -6 32 C-6 32.66 -6 33.32 -6 34 C-6.99 34 -7.98 34 -9 34 C-9.33 34.99 -9.66 35.98 -10 37 C-11.32 37 -12.64 37 -14 37 C-14 36.34 -14 35.68 -14 35 C-12.6403039 34.06983753 -11.23508116 33.20580596 -9.8125 32.375 C-4.58006349 29.01305654 -1.27635264 25.03229879 0.61328125 19.0625 C1.7703849 12.89128053 1.44344369 6.80317877 -1 1 C-0.67 0.67 -0.34 0.34 0 0 Z " fill="#12429F" transform="translate(222,187)"/>
<path d="M0 0 C3.93299249 3.18385106 5.69399193 7.49481395 6.29296875 12.3984375 C6.4955153 18.66773535 5.76683558 24.6155672 1.6875 29.60546875 C0.51451219 30.79511832 -0.73636034 31.90712246 -2 33 C-1.125 27.125 -1.125 27.125 0 26 C-0.66 25.34 -1.32 24.68 -2 24 C-0.25 20.125 -0.25 20.125 2 19 C2.39460023 16.67624308 2.72230092 14.3406065 3 12 C3.30903983 10.66082739 3.62942911 9.32346746 4 8 C3.01 7.67 2.02 7.34 1 7 C0.67 4.69 0.34 2.38 0 0 Z " fill="#FBFCF6" transform="translate(218,184)"/>
<path d="M0 0 C0.99 0 1.98 0 3 0 C3 0.99 3 1.98 3 3 C-3.6 3.33 -10.2 3.66 -17 4 C-10.4 4.33 -3.8 4.66 3 5 C3 5.66 3 6.32 3 7 C-10.86 6.505 -10.86 6.505 -25 6 C-25 4 -25 4 -23.80322266 2.39111328 C-21.44308186 0.5703602 -20.10416187 0.66611494 -17.1484375 0.7421875 C-16.21515625 0.75636719 -15.281875 0.77054688 -14.3203125 0.78515625 C-12.86238281 0.82962891 -12.86238281 0.82962891 -11.375 0.875 C-9.44539984 0.91816211 -7.51570754 0.95744095 -5.5859375 0.9921875 C-4.7304834 1.01651855 -3.8750293 1.04084961 -2.99365234 1.06591797 C-0.99950905 1.22729359 -0.99950905 1.22729359 0 0 Z " fill="#073CC2" transform="translate(341,232)"/>
<path d="M0 0 C1.2065625 0.0309375 1.2065625 0.0309375 2.4375 0.0625 C1.12369168 4.84447973 -0.75742397 7.96243436 -3.9375 11.75 C-4.70835937 12.68199219 -5.47921875 13.61398437 -6.2734375 14.57421875 C-8.25983568 16.73349459 -10.14905508 18.41496568 -12.5625 20.0625 C-12.5625 17.7525 -12.5625 15.4425 -12.5625 13.0625 C-10.9125 12.7325 -9.2625 12.4025 -7.5625 12.0625 C-7.376875 11.134375 -7.376875 11.134375 -7.1875 10.1875 C-6.5625 8.0625 -6.5625 8.0625 -4.5625 6.0625 C-3.9025 6.3925 -3.2425 6.7225 -2.5625 7.0625 C-2.748125 6.093125 -2.93375 5.12375 -3.125 4.125 C-3.269375 3.114375 -3.41375 2.10375 -3.5625 1.0625 C-2.5625 0.0625 -2.5625 0.0625 0 0 Z " fill="#10249A" transform="translate(485.5625,458.9375)"/>
<path d="M0 0 C1.79395695 1.79395695 3.56587042 3.59645801 5.3125 5.4375 C7.96238114 8.11550656 7.96238114 8.11550656 11.3125 10.1875 C12.199375 10.785625 13.08625 11.38375 14 12 C14 12.66 14 13.32 14 14 C13.34 13.814375 12.68 13.62875 12 13.4375 C8.10669886 12.86972692 4.88624521 13.40718293 1 14 C0 11 0 11 0.5 9.25 C1.21525718 6.03134267 0.55683839 3.21728845 0 0 Z " fill="#084EA7" transform="translate(176,210)"/>
<path d="M0 0 C6.26418531 1.48362284 10.91513505 5.24162156 16 9 C14.02 9.99 14.02 9.99 12 11 C11.67 10.01 11.34 9.02 11 8 C9.68 8 8.36 8 7 8 C7 7.34 7 6.68 7 6 C6.01 6.495 6.01 6.495 5 7 C3.00039988 7.039992 0.99952758 7.04346799 -1 7 C-1.04254356 5.00045254 -1.04080783 2.99958364 -1 1 C-0.67 0.67 -0.34 0.34 0 0 Z " fill="#0F2291" transform="translate(457,65)"/>
<path d="M0 0 C8.71785888 0.14377279 8.71785888 0.14377279 12.79296875 1.23046875 C12.79296875 3.54046875 12.79296875 5.85046875 12.79296875 8.23046875 C5.86296875 7.73546875 5.86296875 7.73546875 -1.20703125 7.23046875 C-1.20703125 6.90046875 -1.20703125 6.57046875 -1.20703125 6.23046875 C1.43296875 5.90046875 4.07296875 5.57046875 6.79296875 5.23046875 C6.79296875 4.90046875 6.79296875 4.57046875 6.79296875 4.23046875 C3.16296875 3.57046875 -0.46703125 2.91046875 -4.20703125 2.23046875 C-2.20703125 0.23046875 -2.20703125 0.23046875 0 0 Z " fill="#1654AF" transform="translate(195.20703125,167.76953125)"/>
<path d="M0 0 C1 2 1 2 1 6 C0.30519531 5.83886719 -0.38960938 5.67773438 -1.10546875 5.51171875 C-9.14919522 4.08968344 -17.23171227 4.56289012 -25 7 C-25.33 6.01 -25.66 5.02 -26 4 C-21.28410977 2.13405271 -17.48696849 1.83694955 -12.4375 2 C-7.7073895 2.15243055 -4.28173909 2.10388715 0 0 Z " fill="#EBF2F5" transform="translate(325,273)"/>
<path d="M0 0 C-2.72478774 3.36591427 -6.06856792 4.44226276 -10 6 C-10.33 5.34 -10.66 4.68 -11 4 C-10.34 4 -9.68 4 -9 4 C-9 3.34 -9 2.68 -9 2 C-11.64 1.67 -14.28 1.34 -17 1 C-17 0.67 -17 0.34 -17 0 C-11.24153561 -1.39599137 -5.75846439 -1.39599137 0 0 Z " fill="#0E2793" transform="translate(441,58)"/>
<path d="M0 0 C2.64 0.33 5.28 0.66 8 1 C8.6875 3.8125 8.6875 3.8125 9 7 C7.5625 8.875 7.5625 8.875 6 10 C6 9.34 6 8.68 6 8 C5.34 8 4.68 8 4 8 C2.375 6 2.375 6 1 4 C1.33 3.34 1.66 2.68 2 2 C1.34 2 0.68 2 0 2 C0 1.34 0 0.68 0 0 Z " fill="#044C8A" transform="translate(71,464)"/>
<path d="M0 0 C1.98 0 3.96 0 6 0 C6.31985731 6.71700347 5.4793824 11.75726932 3 18 C2.11372837 14.80545374 2.08910824 13.18812115 3 10 C3.3496418 7.66905466 3.68554487 5.33595238 4 3 C3.34 3 2.68 3 2 3 C2 3.66 2 4.32 2 5 C1.34 5 0.68 5 0 5 C0 3.35 0 1.7 0 0 Z " fill="#10239C" transform="translate(490,432)"/>
<path d="M0 0 C0.99 0.66 1.98 1.32 3 2 C5.11280345 2.63292383 5.11280345 2.63292383 7 3 C8.10844919 6.32534757 7.84454356 8.62182575 7 12 C4 9 1 6 -2 3 C-1.34 3 -0.68 3 0 3 C0 2.01 0 1.02 0 0 Z " fill="#074AB2" transform="translate(214,175)"/>
<path d="M0 0 C1.32 0 2.64 0 4 0 C4 0.99 4 1.98 4 3 C10.6 3.33 17.2 3.66 24 4 C24 4.33 24 4.66 24 5 C20.56255588 5.16783262 17.12503622 5.33406544 13.6875 5.5 C12.71103516 5.54769531 11.73457031 5.59539062 10.72851562 5.64453125 C9.79072266 5.68964844 8.85292969 5.73476562 7.88671875 5.78125 C7.02264404 5.82314453 6.15856934 5.86503906 5.26831055 5.90820312 C3.51337696 5.97922401 1.75637008 6 0 6 C0 4.02 0 2.04 0 0 Z " fill="#173DAF" transform="translate(312,234)"/>
<path d="M0 0 C4.62 0 9.24 0 14 0 C14.33 0.99 14.66 1.98 15 3 C14.34 3 13.68 3 13 3 C13 3.66 13 4.32 13 5 C8.65535464 4.39174965 4.32448133 3.73832608 0 3 C0 2.01 0 1.02 0 0 Z " fill="#0F469A" transform="translate(192,223)"/>
<path d="M0 0 C5.78461538 3.32307692 5.78461538 3.32307692 6.875 6.75 C6.936875 7.86375 6.936875 7.86375 7 9 C6.34 9 5.68 9 5 9 C5 9.99 5 10.98 5 12 C4.34 12 3.68 12 3 12 C3 11.34 3 10.68 3 10 C2.34 10 1.68 10 1 10 C1.020625 8.906875 1.04125 7.81375 1.0625 6.6875 C1.18544452 3.05615809 1.18544452 3.05615809 0 0 Z " fill="#1140B9" transform="translate(328,283)"/>
<path d="M0 0 C-1.32 1.32 -2.64 2.64 -4 4 C-4.33 3.67 -4.66 3.34 -5 3 C-5.99 4.485 -5.99 4.485 -7 6 C-8.65 5.67 -10.3 5.34 -12 5 C-11 2 -11 2 -8.8125 0.25 C-5.39631501 -1.26830444 -3.56486048 -0.91194105 0 0 Z " fill="#103F77" transform="translate(102,65)"/>
<path d="M0 0 C0.33 0 0.66 0 1 0 C1 2.31 1 4.62 1 7 C-3.04916379 8.34972126 -5.91257012 7.88376862 -10 7 C-9.34 6.67 -8.68 6.34 -8 6 C-7.34 5.01 -6.68 4.02 -6 3 C-5.01 3 -4.02 3 -3 3 C-1.37485532 1.54166642 -1.37485532 1.54166642 0 0 Z " fill="#044382" transform="translate(103,64)"/>
<path d="M0 0 C1.875 0.75 1.875 0.75 2.875 2.75 C1.25133534 5.99732932 -1.87887839 6.45155136 -5.125 7.75 C-5.3125 4.875 -5.3125 4.875 -5.125 1.75 C-2.125 -0.25 -2.125 -0.25 0 0 Z " fill="#03209E" transform="translate(461.125,480.25)"/>
<path d="M0 0 C1.75211782 0.25677589 3.50167936 0.53102953 5.25 0.8125 C6.22453125 0.96332031 7.1990625 1.11414063 8.203125 1.26953125 C11.12322338 2.03218264 12.74205815 3.03774101 15 5 C8.63544353 5.50916452 4.94875005 5.18740389 0 1 C0 0.67 0 0.34 0 0 Z " fill="#E1E6F1" transform="translate(341,240)"/>
<path d="M0 0 C3.25847699 2.63781471 4.9202733 6.02128107 6 10 C6.55114654 15.42795835 6.47056575 19.05886849 4 24 C4 18.72 4 13.44 4 8 C3.01 7.67 2.02 7.34 1 7 C0.67 4.69 0.34 2.38 0 0 Z " fill="#C8D7EF" transform="translate(218,184)"/>
<path d="M0 0 C1.98 0 3.96 0 6 0 C6 1.98 6 3.96 6 6 C3.23723823 5.47731534 0.6739124 4.89130413 -2 4 C-1.34 2.68 -0.68 1.36 0 0 Z " fill="#064882" transform="translate(74,82)"/>
<path d="M0 0 C-3.43772727 3.43772727 -7.10960984 3.97127774 -11.875 4.125 C-12.90625 4.08375 -13.9375 4.0425 -15 4 C-14.67 3.01 -14.34 2.02 -14 1 C-9.27685687 0.22887459 -4.78478822 -0.09764874 0 0 Z " fill="#132289" transform="translate(449,492)"/>
<path d="M0 0 C1.9375 0.3125 1.9375 0.3125 4 1 C4.33 1.99 4.66 2.98 5 4 C5.99 4.33 6.98 4.66 8 5 C7.34 6.98 6.68 8.96 6 11 C3.13546142 7.58983503 1.65296434 4.09305456 0 0 Z " fill="#E3EAF3" transform="translate(487,92)"/>
<path d="M0 0 C0.66 0 1.32 0 2 0 C3.32594359 5.96674616 3.0884587 11.92583615 3 18 C2.67 18 2.34 18 2 18 C2 15.36 2 12.72 2 10 C1.34 10 0.68 10 0 10 C0 6.7 0 3.4 0 0 Z " fill="#1A37A8" transform="translate(334,294)"/>
<path d="M0 0 C1.67542976 0.28604898 3.34385343 0.61781233 5 1 C5.33 1.99 5.66 2.98 6 4 C3 6 3 6 0.8125 5.625 C0.214375 5.41875 -0.38375 5.2125 -1 5 C-1 1 -1 1 0 0 Z " fill="#0237C3" transform="translate(378,264)"/>
<path d="M0 0 C0.33 1.32 0.66 2.64 1 4 C-1.31 5.98 -3.62 7.96 -6 10 C-6 7.69 -6 5.38 -6 3 C-5.195625 2.87625 -4.39125 2.7525 -3.5625 2.625 C-2.716875 2.41875 -1.87125 2.2125 -1 2 C-0.67 1.34 -0.34 0.68 0 0 Z " fill="#1D2D9D" transform="translate(479,469)"/>
<path d="M0 0 C1.10844919 3.32534757 0.84454356 5.62182575 0 9 C-0.99 9.33 -1.98 9.66 -3 10 C-3.75 7.8125 -3.75 7.8125 -4 5 C-2.0625 2.1875 -2.0625 2.1875 0 0 Z " fill="#E9F0F3" transform="translate(293,254)"/>
<path d="M0 0 C1.32 0 2.64 0 4 0 C4 0.99 4 1.98 4 3 C4.66 3 5.32 3 6 3 C5.67 4.98 5.34 6.96 5 9 C4.34 7.68 3.68 6.36 3 5 C2.01 5 1.02 5 0 5 C0 3.35 0 1.7 0 0 Z " fill="#0639C5" transform="translate(367,248)"/>
<path d="M0 0 C0.99 0.33 1.98 0.66 3 1 C3 1.66 3 2.32 3 3 C3.66 3 4.32 3 5 3 C5 3.66 5 4.32 5 5 C5.66 5 6.32 5 7 5 C7.33 5.66 7.66 6.32 8 7 C10.02463255 7.65213292 10.02463255 7.65213292 12 8 C11.67 8.99 11.34 9.98 11 11 C7.584241 9.55661511 5.63973737 7.75105832 3.25 4.9375 C2.63640625 4.22464844 2.0228125 3.51179688 1.390625 2.77734375 C0 1 0 1 0 0 Z " fill="#244E7A" transform="translate(72,469)"/>
<path d="M0 0 C1 2 1 2 1 6 C-3.62 5.34 -8.24 4.68 -13 4 C-13 3.67 -13 3.34 -13 3 C-12.31292969 2.86722656 -11.62585938 2.73445313 -10.91796875 2.59765625 C-9.56638672 2.33275391 -9.56638672 2.33275391 -8.1875 2.0625 C-6.84751953 1.80146484 -6.84751953 1.80146484 -5.48046875 1.53515625 C-2.88602829 1.02258847 -2.88602829 1.02258847 0 0 Z " fill="#E0E2F5" transform="translate(325,273)"/>
<path d="M0 0 C0.99 0 1.98 0 3 0 C5.875 6.625 5.875 6.625 7 10 C7.66 10 8.32 10 9 10 C8.67 10.99 8.34 11.98 8 13 C4.32117927 9.71533863 2.24849899 6.33639092 0 2 C0 1.34 0 0.68 0 0 Z " fill="#205482" transform="translate(64,456)"/>
<path d="M0 0 C2.31 0 4.62 0 7 0 C7 0.66 7 1.32 7 2 C7.99 2.33 8.98 2.66 10 3 C10 4.65 10 6.3 10 8 C8.70684939 7.04367001 7.41553147 6.08486149 6.125 5.125 C5.40570313 4.59132812 4.68640625 4.05765625 3.9453125 3.5078125 C2 2 2 2 0 0 Z " fill="#2242AE" transform="translate(357,245)"/>
<path d="M0 0 C1.32 0.66 2.64 1.32 4 2 C4 2.99 4 3.98 4 5 C4.66 5 5.32 5 6 5 C6 5.66 6 6.32 6 7 C3.69 6.34 1.38 5.68 -1 5 C-0.67 3.35 -0.34 1.7 0 0 Z " fill="#033A7A" transform="translate(116,488)"/>
<path d="M0 0 C0.66 -0.33 1.32 -0.66 2 -1 C2 -0.34 2 0.32 2 1 C2.99 0.67 3.98 0.34 5 0 C5 0.99 5 1.98 5 3 C3.20906809 3.08086147 1.41710372 3.13912702 -0.375 3.1875 C-1.87160156 3.23970703 -1.87160156 3.23970703 -3.3984375 3.29296875 C-4.25695312 3.19628906 -5.11546875 3.09960938 -6 3 C-6.66 2.01 -7.32 1.02 -8 0 C-4.66991025 -1.11002992 -3.34016824 -0.68516272 0 0 Z " fill="#0B27A1" transform="translate(444,490)"/>
<path d="M0 0 C4.455 0.99 4.455 0.99 9 2 C8.01 2.495 8.01 2.495 7 3 C7 3.66 7 4.32 7 5 C4.69 5 2.38 5 0 5 C0 3.35 0 1.7 0 0 Z " fill="#064EA7" transform="translate(176,379)"/>
<path d="M0 0 C0.33 0 0.66 0 1 0 C1 4.29 1 8.58 1 13 C1.99 12.67 2.98 12.34 4 12 C2.92598892 14.91517292 2.22189824 16.77810176 0 19 C0 12.73 0 6.46 0 0 Z " fill="#263B92" transform="translate(288,242)"/>
<path d="M0 0 C2.86724686 0.57344937 3.8614515 0.8614515 6 3 C6.66 2.01 7.32 1.02 8 0 C7.67 2.31 7.34 4.62 7 7 C4.13302508 5.71480435 2.02392288 4.42870746 0 2 C0 1.34 0 0.68 0 0 Z " fill="#F0F3F3" transform="translate(480,81)"/>
<path d="M0 0 C5.5 -0.36666667 5.5 -0.36666667 7.875 1.375 C9 3 9 3 9 5 C9.66 5 10.32 5 11 5 C10.67 5.66 10.34 6.32 10 7 C8.33073546 6.02526874 6.66464358 5.04510211 5 4.0625 C4.071875 3.51722656 3.14375 2.97195312 2.1875 2.41015625 C1.465625 1.94480469 0.74375 1.47945313 0 1 C0 0.67 0 0.34 0 0 Z " fill="#DEDFF0" transform="translate(459,65)"/>
<path d="M0 0 C2 3 2 3 1.625 5.6875 C1.41875 6.450625 1.2125 7.21375 1 8 C-0.98 8.33 -2.96 8.66 -5 9 C-4.34 7.35 -3.68 5.7 -3 4 C-2.01 4 -1.02 4 0 4 C0 2.68 0 1.36 0 0 Z " fill="#0A20A0" transform="translate(472,472)"/>
<path d="M0 0 C1.07765625 0.10183594 2.1553125 0.20367187 3.265625 0.30859375 C4.08546875 0.39238281 4.9053125 0.47617187 5.75 0.5625 C5.75 0.8925 5.75 1.2225 5.75 1.5625 C-0.19 1.8925 -6.13 2.2225 -12.25 2.5625 C-8.56940824 -1.11809176 -4.9688599 -0.48608412 0 0 Z " fill="#1E40B5" transform="translate(314.25,277.4375)"/>
<path d="M0 0 C3.66666667 3.66666667 7.33333333 7.33333333 11 11 C9.02 11 7.04 11 5 11 C4.731875 10.443125 4.46375 9.88625 4.1875 9.3125 C2.99300335 6.91066602 2.99300335 6.91066602 1.375 4.375 C0 2 0 2 0 0 Z " fill="#285798" transform="translate(176,210)"/>
<path d="M0 0 C1.98 1.65 3.96 3.3 6 5 C4.125 6.0625 4.125 6.0625 2 7 C0 6 0 6 -0.6875 4.0625 C-1 2 -1 2 0 0 Z " fill="#F1F5F6" transform="translate(73,472)"/>
<path d="M0 0 C4.29 0.66 8.58 1.32 13 2 C9 4 9 4 6 5 C3.8125 4.0625 3.8125 4.0625 2 3 C2 2.34 2 1.68 2 1 C1.34 0.67 0.68 0.34 0 0 Z " fill="#0D38BE" transform="translate(350,240)"/>
<path d="M0 0 C2 1 2 1 2.8515625 3.06640625 C3.10679687 3.89011719 3.36203125 4.71382813 3.625 5.5625 C3.88539063 6.38878906 4.14578125 7.21507813 4.4140625 8.06640625 C4.60742188 8.70449219 4.80078125 9.34257813 5 10 C3.68 9.67 2.36 9.34 1 9 C0.67 6.03 0.34 3.06 0 0 Z " fill="#1A2692" transform="translate(488,95)"/>
<path d="M0 0 C0.66 0.33 1.32 0.66 2 1 C2 3.97 2 6.94 2 10 C1.34 10 0.68 10 0 10 C-1.125 8.375 -1.125 8.375 -2 6 C-1.125 2.75 -1.125 2.75 0 0 Z " fill="#044E8B" transform="translate(70,89)"/>
<path d="M0 0 C3.26460973 1.80412643 4.88929795 2.83394693 7 6 C5.68 6.33 4.36 6.66 3 7 C3 6.01 3 5.02 3 4 C2.01 4 1.02 4 0 4 C0 2.68 0 1.36 0 0 Z M1 6 C1.66 6.66 2.32 7.32 3 8 C2.34 8 1.68 8 1 8 C1 7.34 1 6.68 1 6 Z " fill="#1A2B93" transform="translate(473,76)"/>
<path d="M0 0 C0.99 0.33 1.98 0.66 3 1 C2.46930939 4.82097239 1.50298434 7.06171403 -1 10 C-2.31223496 6.06329512 -1.24296256 3.87511856 0 0 Z " fill="#0B1C95" transform="translate(489,449)"/>
<path d="M0 0 C1.32 0.66 2.64 1.32 4 2 C1.60490662 4.89932357 -0.31245243 5.50168276 -4 6 C-1.125 1.125 -1.125 1.125 0 0 Z " fill="#0842BB" transform="translate(299,283)"/>
<path d="M0 0 C0.99 0 1.98 0 3 0 C1.68775452 3.93673644 0.08089673 6.22719294 -3 9 C-2.5020163 5.26512223 -2.12508244 3.18762365 0 0 Z " fill="#DDE7F3" transform="translate(219,208)"/>
<path d="M0 0 C0.33 0 0.66 0 1 0 C1.19466332 1.79090253 1.38051213 3.58276505 1.5625 5.375 C1.66691406 6.37273437 1.77132812 7.37046875 1.87890625 8.3984375 C2 11 2 11 1 13 C0.01 12.67 -0.98 12.34 -2 12 C-1.34 8.04 -0.68 4.08 0 0 Z " fill="#0C4C9B" transform="translate(173,195)"/>
<path d="M0 0 C2 2 2 2 2 4 C3.62553283 5.70680947 5.29115995 7.37660195 7 9 C6.67 9.99 6.34 10.98 6 12 C5.59007812 11.51789063 5.18015625 11.03578125 4.7578125 10.5390625 C4.21898437 9.90742188 3.68015625 9.27578125 3.125 8.625 C2.59132812 7.99851563 2.05765625 7.37203125 1.5078125 6.7265625 C0.38567993 5.44163349 -0.79371975 4.20628025 -2 3 C-1.34 3 -0.68 3 0 3 C0 2.01 0 1.02 0 0 Z " fill="#224D9F" transform="translate(214,175)"/>
<path d="M0 0 C1.32 0.33 2.64 0.66 4 1 C2 4 2 4 -1 5 C-2.69882448 7.49759982 -2.69882448 7.49759982 -4 10 C-4.33 9.34 -4.66 8.68 -5 8 C-4.00390625 6.0546875 -4.00390625 6.0546875 -2.5625 3.875 C-2.08941406 3.15054688 -1.61632812 2.42609375 -1.12890625 1.6796875 C-0.75636719 1.12539062 -0.38382812 0.57109375 0 0 Z " fill="#1B5283" transform="translate(71,85)"/>
<path d="M0 0 C0.33 0.66 0.66 1.32 1 2 C1.66 2 2.32 2 3 2 C3 2.66 3 3.32 3 4 C-0.22791555 6.1519437 -1.28400809 6.20086443 -5 6 C-3.35 4.02 -1.7 2.04 0 0 Z " fill="#1F5083" transform="translate(79,76)"/>
<path d="M0 0 C2 3 2 3 2 6 C1.34 6 0.68 6 0 6 C-0.33 8.97 -0.66 11.94 -1 15 C-1.33 15 -1.66 15 -2 15 C-2.21755666 9.5610835 -2.10428384 5.12919186 0 0 Z " fill="#2245A2" transform="translate(292,292)"/>
<path d="M0 0 C0.33 0 0.66 0 1 0 C1.19294408 4.82360189 0.75747614 8.49646738 -1 13 C-1.33 13 -1.66 13 -2 13 C-2.19294408 8.17639811 -1.75747614 4.50353262 0 0 Z " fill="#D7E2F1" transform="translate(292,285)"/>
<path d="M0 0 C2.12046792 3.53411321 2.53199289 6.94393835 3 11 C2.34 11 1.68 11 1 11 C0.01 7.7 -0.98 4.4 -2 1 C-1.34 0.67 -0.68 0.34 0 0 Z " fill="#0F32AA" transform="translate(375,260)"/>
<path d="M0 0 C0.33 0.66 0.66 1.32 1 2 C2.32 1.67 3.64 1.34 5 1 C5 2.32 5 3.64 5 5 C3.68 5.33 2.36 5.66 1 6 C1.33 5.01 1.66 4.02 2 3 C0.35 2.67 -1.3 2.34 -3 2 C-2.01 1.34 -1.02 0.68 0 0 Z " fill="#EEF3F4" transform="translate(207,216)"/>
<path d="M0 0 C0.99 0.33 1.98 0.66 3 1 C1.41037341 5.03520597 -0.28232318 9.01811282 -2 13 C-3.18771723 9.57056481 -2.80226223 7.62215325 -1.5625 4.25 C-1.27503906 3.45078125 -0.98757812 2.6515625 -0.69140625 1.828125 C-0.46324219 1.22484375 -0.23507813 0.6215625 0 0 Z " fill="#16478C" transform="translate(177,181)"/>
<path d="M0 0 C0.33 0.99 0.66 1.98 1 3 C0.67 3.66 0.34 4.32 0 5 C-0.66 5 -1.32 5 -2 5 C-2 5.66 -2 6.32 -2 7 C-2.99 7 -3.98 7 -5 7 C-4.60196439 4.11424181 -4.20990931 3.17810487 -1.9375 1.25 C-1.298125 0.8375 -0.65875 0.425 0 0 Z " fill="#18487C" transform="translate(85,71)"/>
<path d="M0 0 C2.83328987 2.83328987 3.7191375 4.35446828 5 8 C3.02 8.99 3.02 8.99 1 10 C0.67 6.7 0.34 3.4 0 0 Z " fill="#D8E2F0" transform="translate(368,255)"/>
<path d="M0 0 C3.82946843 1.45255699 5.12050295 3.42895561 7 7 C6.01 7 5.02 7 4 7 C4 6.01 4 5.02 4 4 C2.68 3.67 1.36 3.34 0 3 C0 2.01 0 1.02 0 0 Z " fill="#273491" transform="translate(479,83)"/>
<path d="M0 0 C-0.33 0.66 -0.66 1.32 -1 2 C-3.31 2 -5.62 2 -8 2 C-8.33 1.34 -8.66 0.68 -9 0 C-5.52176885 -1.15941038 -3.54104422 -0.70820884 0 0 Z " fill="#2A487C" transform="translate(118,59)"/>
<path d="M0 0 C0.99 0.33 1.98 0.66 3 1 C3 1.66 3 2.32 3 3 C2.34 3 1.68 3 1 3 C1 3.66 1 4.32 1 5 C-1.31 4.67 -3.62 4.34 -6 4 C-6 3.67 -6 3.34 -6 3 C-4.02 2.34 -2.04 1.68 0 1 C0 0.67 0 0.34 0 0 Z " fill="#0F4EA9" transform="translate(204,223)"/>
<path d="M0 0 C0.66 0 1.32 0 2 0 C1.67 1.98 1.34 3.96 1 6 C1.66 6.33 2.32 6.66 3 7 C1.68 7 0.36 7 -1 7 C-1.33 5.35 -1.66 3.7 -2 2 C-1.34 2 -0.68 2 0 2 C0 1.34 0 0.68 0 0 Z " fill="#074AB4" transform="translate(218,217)"/>
<path d="M0 0 C-1.5 1.5625 -1.5 1.5625 -4 3 C-6.77437543 2.96823234 -9.25286467 2.50364148 -12 2 C-12 1.67 -12 1.34 -12 1 C-7.9472484 0.01751476 -4.16138263 -0.08159574 0 0 Z " fill="#24389E" transform="translate(436,57)"/>
<path d="M0 0 C0.33 0.66 0.66 1.32 1 2 C2.65 2 4.3 2 6 2 C6 2.66 6 3.32 6 4 C3 5 3 5 -0.1875 3.5625 C-1.115625 3.046875 -2.04375 2.53125 -3 2 C-2.01 1.34 -1.02 0.68 0 0 Z " fill="#25497B" transform="translate(95,486)"/>
<path d="M0 0 C1.2065625 0.0309375 1.2065625 0.0309375 2.4375 0.0625 C0.7875 1.7125 -0.8625 3.3625 -2.5625 5.0625 C-3.125 3.125 -3.125 3.125 -3.5625 1.0625 C-2.5625 0.0625 -2.5625 0.0625 0 0 Z " fill="#E7ECF3" transform="translate(297.5625,279.9375)"/>
<path d="M0 0 C-0.99 0.33 -1.98 0.66 -3 1 C-3.33 1.99 -3.66 2.98 -4 4 C-5.32 4 -6.64 4 -8 4 C-8 3.34 -8 2.68 -8 2 C-3.61016949 -1.20338983 -3.61016949 -1.20338983 0 0 Z " fill="#1C4EA6" transform="translate(216,220)"/>
<path d="M0 0 C0.99 0.33 1.98 0.66 3 1 C3 1.99 3 2.98 3 4 C3.99 4 4.98 4 6 4 C5.34 5.32 4.68 6.64 4 8 C0 2.25 0 2.25 0 0 Z " fill="#D8E7F0" transform="translate(176,208)"/>
<path d="M0 0 C3.465 1.98 3.465 1.98 7 4 C5.1875 4.625 5.1875 4.625 3 5 C2.01 4.34 1.02 3.68 0 3 C0 2.01 0 1.02 0 0 Z " fill="#DFE7EF" transform="translate(84,482)"/>
</svg>
