<?xml version="1.0" encoding="UTF-8"?>
<svg version="1.1" xmlns="http://www.w3.org/2000/svg" width="554" height="554">
<path d="M0 0 C182.82 0 365.64 0 554 0 C554 182.82 554 365.64 554 554 C371.18 554 188.36 554 0 554 C0 371.18 0 188.36 0 0 Z " fill="#FEFEFE" transform="translate(0,0)"/>
<path d="M0 0 C0.80802441 -0.00155999 1.61604881 -0.00311998 2.44855881 -0.00472724 C5.14191287 -0.00869895 7.83521003 -0.00556238 10.52856445 -0.00241089 C12.46582573 -0.00376671 14.40308675 -0.00554767 16.34034729 -0.00772095 C21.59491102 -0.01227614 26.84945509 -0.01051292 32.10401917 -0.00734186 C37.61565198 -0.0048055 43.12728314 -0.00715963 48.63891602 -0.00872803 C57.90275371 -0.01054721 67.16658344 -0.00815125 76.43041992 -0.00338745 C87.11107812 0.00204183 97.79171719 0.00030122 108.47237492 -0.00521386 C117.66163578 -0.0097675 126.85089092 -0.01038416 136.04015255 -0.00777519 C141.51955923 -0.00622312 146.99895695 -0.00598888 152.47836304 -0.00931168 C157.63954998 -0.01222271 162.80071256 -0.0101559 167.9618969 -0.00441742 C169.84551897 -0.00310648 171.72914314 -0.00345523 173.61276436 -0.00568008 C204.06617905 -0.03830399 204.06617905 -0.03830399 214.4543457 3.31448364 C215.51890991 3.64657837 215.51890991 3.64657837 216.60498047 3.98538208 C227.48719007 7.52917419 235.61386029 13.0642529 243.7043457 21.12698364 C244.34243164 21.74186646 244.98051758 22.35674927 245.63793945 22.99026489 C257.68531211 35.52060572 261.88203015 53.52002557 261.83132935 70.42263794 C261.83288934 71.23066235 261.83444933 72.03868675 261.83605659 72.87119675 C261.8400283 75.56455081 261.83689173 78.25784797 261.83374023 80.95120239 C261.83509606 82.88846367 261.83687701 84.82572469 261.83905029 86.76298523 C261.84360548 92.01754896 261.84184227 97.27209303 261.83867121 102.5266571 C261.83613484 108.03828992 261.83848897 113.54992107 261.84005737 119.06155396 C261.84187656 128.32539165 261.8394806 137.58922138 261.8347168 146.85305786 C261.82928751 157.53371606 261.83102813 168.21435513 261.8365432 178.89501286 C261.84109684 188.08427372 261.84171351 197.27352886 261.83910453 206.46279049 C261.83755246 211.94219717 261.83731823 217.42159489 261.84064102 222.90100098 C261.84355205 228.06218792 261.84148525 233.2233505 261.83574677 238.38453484 C261.83443582 240.26815691 261.83478458 242.15178108 261.83700943 244.0354023 C261.86963333 274.48881699 261.86963333 274.48881699 258.5168457 284.87698364 C258.29544922 285.58669312 258.07405273 286.29640259 257.84594727 287.02761841 C254.302606 297.90844356 248.76709622 306.03559103 240.7043457 314.12698364 C239.90963867 314.95649536 239.90963867 314.95649536 239.09887695 315.80276489 C230.97977095 323.54617962 220.37068502 328.22597744 209.48997498 330.33880615 C208.6234532 330.50793349 207.75693143 330.67706083 206.86415142 330.85131323 C197.18420743 332.59664122 187.6286183 332.67525672 177.82177734 332.61282349 C175.82023878 332.61497651 173.81870146 332.61886475 171.81716919 332.62432861 C166.44769039 332.63390973 161.07855113 332.61886394 155.70911336 332.59842253 C150.05782496 332.58067866 144.40654435 332.58437985 138.75523376 332.58514404 C129.27817193 332.58327956 119.80123932 332.56602646 110.32421875 332.53860474 C99.39612691 332.50709954 88.46817596 332.49661127 77.54004198 332.49807584 C65.85169143 332.49943024 54.16339451 332.48553695 42.47506022 332.46718264 C39.12760317 332.46293776 35.78015488 332.46150276 32.43269539 332.4607048 C27.1621365 332.45868447 21.89169417 332.44638223 16.62117386 332.42637253 C14.69639361 332.42057103 12.77159994 332.41806186 10.84681129 332.4192276 C-12.22169939 332.42790666 -33.5076605 329.79216375 -50.6081543 312.90432739 C-68.42504237 294.49181661 -70.77386437 273.09913217 -70.66796875 248.58499146 C-70.67040322 246.58389599 -70.67412885 244.58280175 -70.67903137 242.58171082 C-70.68835188 237.1997185 -70.67909138 231.81791087 -70.66569924 226.43593311 C-70.65429283 220.77661462 -70.65849914 215.117304 -70.66044617 209.45797729 C-70.66132597 199.96301291 -70.65031227 190.46812036 -70.63183594 180.97317505 C-70.61064878 170.02299575 -70.60716556 159.07292138 -70.6133979 148.12272573 C-70.61910694 137.54705129 -70.61342932 126.97141348 -70.60222435 116.39574432 C-70.59760124 111.9128323 -70.59669451 107.42994286 -70.5988102 102.94702911 C-70.60070418 97.6642068 -70.59250442 92.38149016 -70.5767498 87.09869194 C-70.57253525 85.16907374 -70.57163715 83.23944476 -70.57444 81.30982399 C-70.60287458 58.21893773 -67.96438725 36.9511843 -51.0847168 19.81838989 C-36.7921876 6.02629939 -19.7938229 -0.05937323 0 0 Z " fill="#000000" transform="translate(181.295654296875,110.87301635742188)"/>
<path d="M0 0 C12.87 0 25.74 0 39 0 C39.99 8.415 39.99 8.415 41 17 C42.19949881 20.20660719 43.07575156 22.41720634 44.8125 25.1875 C45.14314453 25.77595703 45.47378906 26.36441406 45.81445312 26.97070312 C52.750198 38.96514867 63.76573437 47.03938036 77 51 C80.75094102 51.69518459 84.46998084 52.22622741 88.26171875 52.640625 C91 53 91 53 92 54 C92.01696765 56.74094208 91.97095184 59.45347432 91.87890625 62.19140625 C91.85529526 63.01124496 91.83168427 63.83108368 91.80735779 64.67576599 C91.73053389 67.30484539 91.64659081 69.93364395 91.5625 72.5625 C91.50929803 74.34048086 91.45655752 76.1184756 91.40429688 77.89648438 C91.27489358 82.26450213 91.13910335 86.63228082 91 91 C74.82180442 91.39595584 74.82180442 91.39595584 66.9375 88.9375 C66.19145508 88.71779541 65.44541016 88.49809082 64.67675781 88.27172852 C54.98856897 85.27128197 46.40517256 80.65283618 38 75 C38.00888245 76.07138214 38.01776489 77.14276428 38.0269165 78.24661255 C38.10838107 88.39633119 38.16814595 98.54598258 38.20724869 108.69595528 C38.22802837 113.91284043 38.25616814 119.12945939 38.30175781 124.34619141 C38.34556133 129.39072115 38.36920923 134.43499658 38.37950897 139.479702 C38.38683891 141.39402132 38.40115058 143.30832842 38.42292023 145.22253799 C38.65843363 166.81090062 33.58790751 186.20606183 18.25 202.25 C1.51894653 218.19875686 -17.43495415 222.75726921 -39.828125 222.3828125 C-47.63662722 222.05290921 -53.9022286 220.24263668 -61 217 C-62.33804688 216.45859375 -62.33804688 216.45859375 -63.703125 215.90625 C-80.78514253 208.38586493 -92.20603375 192.87900508 -99 176 C-105.4765727 158.03481192 -104.27569081 139.34023658 -96.5 121.9375 C-87.62836696 104.56388529 -73.55989032 91.11251766 -54.9375 85 C-49.3216945 83.27390397 -44.06424909 81.87544012 -38.171875 81.8671875 C-37.29015625 81.86589844 -36.4084375 81.86460937 -35.5 81.86328125 C-34.5925 81.86714844 -33.685 81.87101562 -32.75 81.875 C-31.82703125 81.87113281 -30.9040625 81.86726563 -29.953125 81.86328125 C-29.0765625 81.86457031 -28.2 81.86585938 -27.296875 81.8671875 C-26.49604492 81.86831543 -25.69521484 81.86944336 -24.87011719 81.87060547 C-23 82 -23 82 -22 83 C-21.91138008 85.8116338 -21.88477645 88.59858255 -21.90234375 91.41015625 C-21.9037587 92.25219101 -21.90517365 93.09422577 -21.90663147 93.96177673 C-21.91224737 96.66205335 -21.92480252 99.36224828 -21.9375 102.0625 C-21.94251295 103.88867068 -21.94707621 105.71484266 -21.95117188 107.54101562 C-21.96222196 112.02737542 -21.97949721 116.51367384 -22 121 C-23.09699219 120.98694824 -24.19398438 120.97389648 -25.32421875 120.96044922 C-26.77864367 120.94989291 -28.23307093 120.93965585 -29.6875 120.9296875 C-30.40873047 120.92026123 -31.12996094 120.91083496 -31.87304688 120.90112305 C-41.49474858 120.8516965 -47.87348418 123.63645968 -55 130 C-57.3091666 132.30302869 -57.3091666 132.30302869 -59 135 C-59.37125 135.50402344 -59.7425 136.00804687 -60.125 136.52734375 C-64.7248426 143.82639954 -64.14988792 153.81529825 -62.33984375 161.9765625 C-59.66841979 169.4472979 -54.95785776 175.75574989 -47.8125 179.375 C-46.54610082 179.92695402 -45.27526775 180.46885755 -44 181 C-43.09701172 181.53367187 -43.09701172 181.53367187 -42.17578125 182.078125 C-35.72905334 184.8095932 -26.96618353 183.7421618 -20.5625 181.3125 C-19.02119165 180.58346872 -17.49775982 179.81475983 -16 179 C-15.03126953 178.49146484 -15.03126953 178.49146484 -14.04296875 177.97265625 C-7.72133881 174.10255165 -4.20761869 167.67530373 -1.94107056 160.77722168 C-0.36712469 154.23138274 -0.69044489 147.46265225 -0.68115234 140.77148438 C-0.671843 139.23337279 -0.66167284 137.69526622 -0.65071106 136.15716553 C-0.62351036 132.00075761 -0.60829124 127.84438339 -0.59528303 123.68791008 C-0.57960886 119.33702625 -0.55283237 114.98621081 -0.5272522 110.63537598 C-0.48054012 102.40499741 -0.44375945 94.17460587 -0.41057932 85.94416285 C-0.37230433 76.57047365 -0.32290831 67.19685327 -0.27259517 57.82322216 C-0.16938794 38.54885935 -0.08155909 19.27446741 0 0 Z " fill="#FDFDFD" transform="translate(277,161)"/>
<path d="M0 0 C5.94 0.495 5.94 0.495 12 1 C12 13.87 12 26.74 12 40 C-5.58976032 40 -20.12367147 36.26373634 -35.24316406 27.38183594 C-36.32180725 26.74920837 -37.40045044 26.11658081 -38.51177979 25.46478271 C-39.33289246 24.98140442 -40.15400513 24.49802612 -41 24 C-40.99111755 25.0315773 -40.98223511 26.0631546 -40.9730835 27.12599182 C-40.89155323 36.90749275 -40.83182312 46.68892361 -40.79275131 56.47068882 C-40.77198794 61.49810144 -40.74387908 66.525237 -40.69824219 71.55249023 C-40.65437908 76.41547762 -40.6307786 81.27820064 -40.62049103 86.14137077 C-40.61317154 87.98508801 -40.59888124 89.82879284 -40.57707977 91.67239571 C-40.4142609 106.02827387 -41.79855559 119.15468678 -48.5625 132.125 C-48.90128174 132.78185791 -49.24006348 133.43871582 -49.58911133 134.11547852 C-58.08785643 149.86679051 -71.22196433 160.73128338 -88 167 C-89.53140625 167.5878125 -89.53140625 167.5878125 -91.09375 168.1875 C-107.19918866 173.60615226 -125.28923051 172.54084262 -140.6328125 165.234375 C-154.9130577 157.78791051 -154.9130577 157.78791051 -158 153 C-154.93763106 153.98252916 -151.96635033 155.01451554 -149.01171875 156.2890625 C-140.73317983 159.61604289 -133.2346953 160.48278719 -124.3125 160.5 C-122.76405396 160.50894287 -122.76405396 160.50894287 -121.18432617 160.51806641 C-110.71890403 160.35000732 -101.087939 158.1230309 -91.8125 153.25 C-91.13179443 152.89856934 -90.45108887 152.54713867 -89.74975586 152.18505859 C-73.3061505 143.47973585 -63.03118567 130.20637011 -56.859375 112.80078125 C-54.77648416 106.01245066 -53.70040149 100.08981945 -53.68115234 93.01367188 C-53.67110672 92.15418945 -53.6610611 91.29470703 -53.65071106 90.40917969 C-53.6200595 87.59570933 -53.60289445 84.78233333 -53.5859375 81.96875 C-53.56721132 80.00719399 -53.54763684 78.04564592 -53.5272522 76.08410645 C-53.47607814 70.94186087 -53.43637383 65.79958923 -53.39910889 60.65722656 C-53.35897663 55.40162789 -53.30792647 50.1461363 -53.2578125 44.890625 C-53.1612277 34.59382539 -53.0767674 24.2969651 -53 14 C-49.81219424 15.24999771 -46.88453935 16.56926092 -43.9375 18.3125 C-29.78316678 26.25673669 -16.01095164 29.25875224 0 30 C0 20.1 0 10.2 0 0 Z " fill="#E41954" transform="translate(368,222)"/>
<path d="M0 0 C12.87 0 25.74 0 39 0 C39 2.97 39 5.94 39 9 C29.76 9 20.52 9 11 9 C11.00888245 10.95500931 11.01776489 12.91001862 11.0269165 14.92427063 C11.1080493 33.36014349 11.1682288 51.79598012 11.20724869 70.23199177 C11.22784324 79.7098287 11.25590424 89.18753204 11.30175781 98.6652832 C11.34172092 106.92946296 11.36745538 115.19354593 11.37635398 123.45781964 C11.38155274 127.83067289 11.3937064 132.20324933 11.42292023 136.57601357 C11.45023936 140.69890709 11.458412 144.82141198 11.45243073 148.94438744 C11.45352364 150.45075473 11.4613789 151.95713615 11.4768219 153.46342468 C11.60363101 166.47986497 9.67749205 176.30062708 0.4453125 185.8984375 C-3.05424633 188.90604557 -6.60694859 190.66444517 -11 192 C-11.59941406 192.18691406 -12.19882812 192.37382812 -12.81640625 192.56640625 C-21.36747109 194.26438156 -30.2886201 194.00145693 -37.90234375 189.578125 C-41.20893246 187.09048657 -43.53054185 184.31427278 -46 181 C-45.14921875 181.32226562 -44.2984375 181.64453125 -43.421875 181.9765625 C-35.04614303 184.48163302 -26.07139644 183.91818097 -18.17578125 180.18359375 C-17.45777344 179.79300781 -16.73976563 179.40242187 -16 179 C-15.35417969 178.66097656 -14.70835937 178.32195312 -14.04296875 177.97265625 C-7.72133881 174.10255165 -4.20761869 167.67530373 -1.94107056 160.77722168 C-0.36712469 154.23138274 -0.69044489 147.46265225 -0.68115234 140.77148438 C-0.671843 139.23337279 -0.66167284 137.69526622 -0.65071106 136.15716553 C-0.62351036 132.00075761 -0.60829124 127.84438339 -0.59528303 123.68791008 C-0.57960886 119.33702625 -0.55283237 114.98621081 -0.5272522 110.63537598 C-0.48054012 102.40499741 -0.44375945 94.17460587 -0.41057932 85.94416285 C-0.37230433 76.57047365 -0.32290831 67.19685327 -0.27259517 57.82322216 C-0.16938794 38.54885935 -0.08155909 19.27446741 0 0 Z " fill="#0DB8C4" transform="translate(277,161)"/>
<path d="M0 0 C0.88171875 -0.00128906 1.7634375 -0.00257813 2.671875 -0.00390625 C3.579375 -0.00003906 4.486875 0.00382813 5.421875 0.0078125 C6.34484375 0.00394531 7.2678125 0.00007812 8.21875 -0.00390625 C9.0953125 -0.00261719 9.971875 -0.00132812 10.875 0 C11.67583008 0.00112793 12.47666016 0.00225586 13.30175781 0.00341797 C15.171875 0.1328125 15.171875 0.1328125 16.171875 1.1328125 C16.31302661 3.80340101 16.21434607 6.45713488 16.171875 9.1328125 C14.48384766 9.35324219 14.48384766 9.35324219 12.76171875 9.578125 C-2.12557584 11.68530999 -14.88478522 15.54838859 -26.828125 25.1328125 C-27.51132813 25.64199219 -28.19453125 26.15117187 -28.8984375 26.67578125 C-40.40937851 35.81682264 -49.42389344 51.74895496 -51.828125 66.1328125 C-53.63330832 87.88135598 -50.28114405 107.33302301 -36.1484375 124.5859375 C-35.49488281 125.35164063 -35.49488281 125.35164063 -34.828125 126.1328125 C-39.41633749 126.1328125 -41.72884655 123.20729673 -44.828125 120.1328125 C-57.46439169 106.78891487 -64.79172461 88.83827944 -65.265625 70.5078125 C-64.61983719 50.03633882 -56.52057169 31.64218554 -41.64453125 17.515625 C-30.04100805 7.69849719 -15.56274064 0.02179656 0 0 Z " fill="#0EB7C3" transform="translate(238.828125,242.8671875)"/>
<path d="M0 0 C3.3 0 6.6 0 10 0 C11 1 11 1 11.11352539 4.69360352 C11.11336624 6.33871292 11.10766988 7.98382731 11.09765625 9.62890625 C11.0962413 10.49313705 11.09482635 11.35736786 11.09336853 12.24778748 C11.08775239 15.01939292 11.07519719 17.7909188 11.0625 20.5625 C11.05748708 22.4368478 11.05292381 24.31119685 11.04882812 26.18554688 C11.03777772 30.79039544 11.0205023 35.39518421 11 40 C10.23051025 39.84136475 9.46102051 39.68272949 8.66821289 39.51928711 C-2.67573518 37.31152999 -10.32802053 40.19912941 -19.91015625 46.1953125 C-24.82035103 49.78691277 -28.12492712 55.58776611 -29.62109375 61.421875 C-30.72501465 68.93308937 -30.53653364 75.96478377 -27.75390625 83.0625 C-26.99190602 85.02080111 -26.47036361 86.95414664 -26 89 C-33.38792583 85.41797536 -38.62331271 78.61127549 -41.3359375 70.96875 C-43.36451648 61.89980866 -43.41826617 52.248527 -38.54296875 44.109375 C-33.49796351 37.21240581 -27.0465363 31.57821502 -18.60546875 29.375 C-15.68529542 28.95470519 -12.88751397 28.86754105 -9.9375 28.875 C-8.40416016 28.87113281 -8.40416016 28.87113281 -6.83984375 28.8671875 C-4 29 -4 29 0 30 C0 20.1 0 10.2 0 0 Z " fill="#E61553" transform="translate(255,252)"/>
<path d="M0 0 C1.64574566 -0.02688151 3.29161413 -0.04634123 4.9375 -0.0625 C5.85402344 -0.07410156 6.77054687 -0.08570313 7.71484375 -0.09765625 C10 0 10 0 11 1 C11.10867302 2.58179615 11.18589827 4.16577153 11.25 5.75 C12.165215 16.60585795 17.09938834 26.0172819 23 35 C12.14919191 29.79532974 5.26631491 18.99602504 1 8 C0.40254518 5.27383579 0.1554642 2.79835566 0 0 Z " fill="#E11752" transform="translate(316,170)"/>
<path d="M0 0 C0.56847656 0.19335938 1.13695312 0.38671875 1.72265625 0.5859375 C9.16085507 3.09431173 16.09895744 5.17197721 23.9609375 5.75390625 C26 6 26 6 27 7 C27.04092937 9.33297433 27.04241723 11.66705225 27 14 C16.2959023 13.40532791 7.86475504 8.06688134 0 1 C0 0.67 0 0.34 0 0 Z " fill="#14B2BD" transform="translate(342,208)"/>
<path d="M0 0 C2.6486859 3.19668988 4.93992341 6.39486597 7 10 C3.64501065 8.61172854 1.84949545 7.14414226 0 4 C0 2.68 0 1.36 0 0 Z " fill="#D11A4F" transform="translate(332,195)"/>
<path d="M0 0 C2.25 0.125 2.25 0.125 5 1 C7.3125 4.0625 7.3125 4.0625 9 7 C5.18315774 5.44499019 2.80804268 2.96404505 0 0 Z " fill="#1CA8B2" transform="translate(195,363)"/>
</svg>
