<?xml version="1.0" encoding="UTF-8"?>
<svg version="1.1" xmlns="http://www.w3.org/2000/svg" width="447" height="447">
<path d="M0 0 C147.51 0 295.02 0 447 0 C447 147.51 447 295.02 447 447 C299.49 447 151.98 447 0 447 C0 299.49 0 151.98 0 0 Z " fill="#020202" transform="translate(0,0)"/>
<path d="M0 0 C11.75213051 -0.41885585 23.50246097 -0.73775479 35.26056099 -0.93261909 C40.72214183 -1.02620064 46.17858456 -1.15285003 51.63720703 -1.35791016 C56.91563259 -1.55493751 62.18915312 -1.66138731 67.47097397 -1.70779037 C69.47535339 -1.74080606 71.47949228 -1.80529587 73.4817543 -1.90314102 C88.71124497 -2.61709182 88.71124497 -2.61709182 94.21294403 1.76099396 C98.33841486 6.04668516 101.60398049 10.81563135 104.69535446 15.88138199 C106.37742577 18.6129029 108.25055251 21.13202389 110.1875 23.6875 C110.78691406 24.5228125 111.38632813 25.358125 112.00390625 26.21875 C114.52081233 29.72567198 117.07145122 33.20720859 119.625 36.6875 C120.10203369 37.33783203 120.57906738 37.98816406 121.07055664 38.65820312 C123.85377563 42.44886283 126.648376 46.23001574 129.48046875 49.984375 C130.69540026 51.5959551 131.90520395 53.21140047 133.11328125 54.828125 C136.47830245 59.32990126 139.84483228 63.82660923 143.3125 68.25 C146.68777408 72.57257977 150.00696047 76.93649721 153.3125 81.3125 C153.84077393 82.00698242 154.36904785 82.70146484 154.91333008 83.41699219 C155.66199341 84.41134277 155.66199341 84.41134277 156.42578125 85.42578125 C156.87348877 86.01786377 157.32119629 86.60994629 157.7824707 87.2199707 C159.05214416 89.07623482 159.9999349 90.98911642 161 93 C161.98155931 94.01810673 162.98198643 95.01834406 164 96 C165.28715959 97.79731431 166.50338666 99.63014512 167.71875 101.4765625 C169.02449398 103.29844458 169.02449398 103.29844458 172 104 C172.39638672 103.12033569 172.39638672 103.12033569 172.80078125 102.22290039 C174.04446603 99.91757672 175.38027236 98.3212058 177.1875 96.43359375 C177.80367187 95.78326172 178.41984375 95.13292969 179.0546875 94.46289062 C179.69664062 93.79451172 180.33859375 93.12613281 181 92.4375 C182.27274913 91.10469142 183.54365927 89.77012368 184.8125 88.43359375 C185.37582031 87.84634521 185.93914062 87.25909668 186.51953125 86.65405273 C188.195549 84.86007264 188.195549 84.86007264 190 82 C190.66 82 191.32 82 192 82 C192.24363281 81.42765625 192.48726562 80.8553125 192.73828125 80.265625 C194.22517298 77.59566462 195.98083908 75.86170993 198.1875 73.75 C203.1784853 68.87135199 207.79626118 63.78708145 212.125 58.3125 C214.26100206 55.67809746 216.57361454 53.37124033 219 51 C220.39886684 49.62808628 221.79450786 48.2528783 223.1875 46.875 C223.86167969 46.21242187 224.53585937 45.54984375 225.23046875 44.8671875 C227.17553358 42.92056683 227.17553358 42.92056683 229 40 C229.66 40 230.32 40 231 40 C231.25652344 39.41476563 231.51304687 38.82953125 231.77734375 38.2265625 C233.10562162 35.80765392 234.56524801 34.26801128 236.5625 32.375 C239.14015389 29.95478041 239.14015389 29.95478041 241 27 C241.66 27 242.32 27 243 27 C243.38478516 26.12214844 243.38478516 26.12214844 243.77734375 25.2265625 C245.10562162 22.80765392 246.56524801 21.26801128 248.5625 19.375 C251.14015389 16.95478041 251.14015389 16.95478041 253 14 C253.66 14 254.32 14 255 14 C255.2578125 13.41347656 255.515625 12.82695313 255.78125 12.22265625 C257.09506472 9.82662877 258.5218401 8.31088448 260.5 6.4375 C262.72096733 4.32475777 264.27742417 2.58386374 266 0 C268.70556641 -0.34057617 268.70556641 -0.34057617 272.1015625 -0.29296875 C273.31328125 -0.28330078 274.525 -0.27363281 275.7734375 -0.26367188 C277.04445313 -0.23853516 278.31546875 -0.21339844 279.625 -0.1875 C280.90375 -0.17396484 282.1825 -0.16042969 283.5 -0.14648438 C286.66708282 -0.11103196 289.83333541 -0.06161441 293 0 C293 0.99 293 1.98 293 3 C291.60927247 4.18720643 290.20980539 5.36560304 288.76953125 6.4921875 C286.166041 8.71061407 284.06517799 11.29572716 281.8515625 13.89453125 C279.97906311 16.02380798 278.02216408 18.01297004 276 20 C273.52036671 22.44663437 271.14559624 24.92107774 268.875 27.5625 C265.43704413 31.55775008 261.853198 35.40450139 258.25 39.25 C253.02956714 44.82255023 247.84540056 50.42446023 242.69140625 56.05859375 C235.12615047 64.32657286 227.5049474 72.53761554 219.8125 80.6875 C214.94695302 85.84291899 210.13401207 91.03153682 205.421875 96.328125 C201.42255111 100.74028232 197.32332773 105.05968432 193.22631836 109.38110352 C191.47023572 111.24168487 189.73115424 113.11623713 188 115 C187.17113281 115.90105469 186.34226562 116.80210937 185.48828125 117.73046875 C183.76062914 119.82380752 183.76062914 119.82380752 184.26318359 121.93383789 C185.03082866 124.08644895 185.91135226 125.52162807 187.30078125 127.328125 C188.01621094 128.26906006 188.01621094 128.26906006 188.74609375 129.22900391 C189.26300781 129.89593262 189.77992188 130.56286133 190.3125 131.25 C191.4024689 132.67959209 192.4923088 134.10928254 193.58203125 135.5390625 C194.42628662 136.63976074 194.42628662 136.63976074 195.28759766 137.76269531 C198.04654362 141.36734043 200.77371209 144.99563188 203.5 148.625 C204.23730347 149.60001465 204.23730347 149.60001465 204.98950195 150.59472656 C213 161.23489871 213 161.23489871 213 164 C213.99 164.33 214.98 164.66 216 165 C218.04296875 167.3984375 218.04296875 167.3984375 220.1875 170.375 C220.90292969 171.35210937 221.61835938 172.32921875 222.35546875 173.3359375 C224 176 224 176 224 179 C224.99 179.33 225.98 179.66 227 180 C228.41943359 181.58789063 228.41943359 181.58789063 229.8984375 183.65625 C230.45345947 184.42267822 231.00848145 185.18910645 231.58032227 185.97875977 C232.17256592 186.81076904 232.76480957 187.64277832 233.375 188.5 C234.64053241 190.24970751 235.90748883 191.99838583 237.17578125 193.74609375 C237.81596191 194.63022949 238.45614258 195.51436523 239.11572266 196.42529297 C241.86848786 200.18671586 244.71097624 203.87573433 247.5625 207.5625 C252.621146 214.12465165 257.49958431 220.80079507 262.32519531 227.53564453 C266.3512791 233.14104116 270.51271067 238.62059624 274.74609375 244.0703125 C277.50849954 247.66096127 280.16085859 251.32335655 282.8125 254.99609375 C285.46990721 258.64528329 288.16751203 262.26288046 290.875 265.875 C291.38248779 266.55312744 291.88997559 267.23125488 292.4128418 267.92993164 C294.89554363 271.23717612 297.39886449 274.52412893 299.95703125 277.7734375 C300.41803223 278.36141113 300.8790332 278.94938477 301.35400391 279.55517578 C302.60928897 281.15059668 303.87273948 282.73958327 305.13671875 284.328125 C306.84703691 286.7806567 307.40714446 288.1666713 308 291 C295.97834601 291.23177388 283.95722391 291.40941828 271.93379021 291.51812172 C266.35056488 291.5702974 260.7688686 291.64105053 255.18652344 291.75439453 C249.79825984 291.86311228 244.41146584 291.92285335 239.02219009 291.94877243 C236.96709168 291.9672401 234.91207317 292.00330661 232.85760117 292.05730057 C216.71158085 292.46473113 216.71158085 292.46473113 212.47085571 288.83561707 C210.91082256 286.24929146 209.95661458 283.85341558 209 281 C207.67796507 278.98517158 207.67796507 278.98517158 206.2890625 277.34765625 C205.85327881 276.80488037 205.41749512 276.26210449 204.96850586 275.70288086 C204.30347046 274.89089233 204.30347046 274.89089233 203.625 274.0625 C202.65858139 272.85803275 201.6937501 271.65229026 200.73046875 270.4453125 C200.03123291 269.56987793 200.03123291 269.56987793 199.31787109 268.67675781 C196.79010315 265.46062031 194.43002307 262.12438651 192.046875 258.80078125 C189.24872832 254.97201948 186.34188928 251.23026973 183.41186523 247.50170898 C181.59165751 245.16552532 179.91122733 242.85096559 178.39453125 240.3046875 C177.08365153 238.13824763 175.7969106 236.75153407 174 235 C172.72548267 233.30987919 171.47804886 231.59918061 170.25 229.875 C167.14508307 225.55437111 163.95626238 221.32861081 160.640625 217.16796875 C159.41920468 215.55394904 158.26348436 213.88979958 157.14453125 212.203125 C154.70054755 208.5527304 152.09006907 205.06244149 149.4375 201.5625 C143.55294985 193.76042977 137.76126408 185.89338543 132 178 C128.23610892 179.68508931 126.54842584 181.77199394 124 185 C123.34 185 122.68 185 122 185 C121.63455078 185.85851562 121.63455078 185.85851562 121.26171875 186.734375 C119.77482702 189.40433538 118.01916092 191.13829007 115.8125 193.25 C112.27668222 196.6433943 109.04639806 200.20373014 105.84057617 203.90332031 C102.8918523 207.26233883 99.82032863 210.50245183 96.75 213.75 C91.39377653 219.43839237 86.08429487 225.16325376 80.81640625 230.93359375 C76.9344013 235.1737224 72.99532123 239.36074874 69.06591797 243.55688477 C65.68983072 247.16878447 62.35397693 250.81040576 59.0625 254.5 C56.03758044 257.88835721 52.90848173 261.11613839 49.671875 264.30078125 C47.30038789 266.71105436 45.10385485 269.25797959 42.89453125 271.81640625 C40.72508297 274.31686313 38.5232403 276.78598339 36.3125 279.25 C35.58675781 280.05953125 34.86101562 280.8690625 34.11328125 281.703125 C32.72054034 283.21686188 31.27999301 284.68814827 29.79296875 286.109375 C27.77465722 287.97044074 27.77465722 287.97044074 27 291 C17.76 291 8.52 291 -1 291 C0.97302114 287.05395771 3.26275408 284.33601112 6.25 281.1875 C6.77722656 280.62417969 7.30445312 280.06085938 7.84765625 279.48046875 C8.97791717 278.27344538 10.11014181 277.06825839 11.24414062 275.86474609 C13.58338818 273.38043397 15.91048314 270.88489483 18.23779297 268.3894043 C19.41854906 267.12342045 20.59987 265.8579632 21.78173828 264.59301758 C27.05420198 258.94955017 32.29510673 253.2774635 37.52783203 247.59716797 C39.02650133 245.97124848 40.52667664 244.3467319 42.02734375 242.72265625 C46.82147016 237.53390078 51.60799484 232.33869379 56.375 227.125 C61.23672494 221.81233246 66.15427213 216.55365298 71.07836914 211.29882812 C74.04819116 208.12113915 76.97868135 204.9256426 79.8125 201.625 C82.96025649 197.96186776 86.37864754 194.60809322 89.8125 191.21484375 C92.39064197 188.60447501 94.79524647 185.88144971 97.1875 183.1015625 C111.85131195 166.09912536 111.85131195 166.09912536 118 162 C117.39360382 158.72827054 116.29904245 156.78410353 114.2265625 154.19921875 C113.36840942 153.11568115 113.36840942 153.11568115 112.49291992 152.01025391 C111.87650635 151.24374512 111.26009277 150.47723633 110.625 149.6875 C109.34077191 148.06512736 108.05824182 146.4414093 106.77734375 144.81640625 C106.13780762 144.00574707 105.49827148 143.19508789 104.83935547 142.35986328 C102.21910794 138.99812813 99.69246043 135.57310537 97.1875 132.125 C96.74027588 131.51027832 96.29305176 130.89555664 95.83227539 130.26220703 C94.96384299 129.06833259 94.09559115 127.87432677 93.22753906 126.68017578 C89.8687456 122.08287733 86.42507774 117.54796154 83 113 C77.14289777 105.21957727 71.29944558 97.43210412 65.5625 89.5625 C61.59875316 84.12592873 57.54213535 78.7683742 53.4375 73.4375 C49.03403612 67.71751664 44.76181917 61.92879582 40.59960938 56.03149414 C37.00771754 50.96123219 33.23405292 46.04540596 29.42578125 41.13671875 C25.99095888 36.69523346 22.63240409 32.19829553 19.27294922 27.69970703 C17.82315188 25.76386333 16.36692195 23.8329487 14.91015625 21.90234375 C14.10940674 20.83947144 14.10940674 20.83947144 13.29248047 19.75512695 C12.24975884 18.37122884 11.20587836 16.98820285 10.16064453 15.60620117 C7.93661099 12.65060698 5.77427922 9.6953803 3.76953125 6.5859375 C2.25664058 3.92598879 2.25664058 3.92598879 0 3 C0 2.01 0 1.02 0 0 Z " fill="#F7F7F7" transform="translate(70,78)"/>
<path d="M0 0 C5.76090516 -0.39910348 11.51361589 -0.68728804 17.28515625 -0.87890625 C19.24166022 -0.95881616 21.19722498 -1.06761337 23.15039062 -1.20703125 C38.86051224 -2.29935054 38.86051224 -2.29935054 44.0071106 1.47000122 C47.65817113 5.2128888 50.31880944 9.50328531 52.87518311 14.04083252 C54.31913542 16.55585912 56.00950097 18.82528909 57.77734375 21.12109375 C58.83101833 22.55968408 59.88440849 23.99848278 60.9375 25.4375 C66.93705638 33.60480964 73.05989899 41.6702407 79.23583984 49.70458984 C96.49774367 72.16465347 96.49774367 72.16465347 103.56640625 82.18969727 C106.57074676 86.4384951 109.70493125 90.57106038 112.89550781 94.68115234 C118.79900047 102.29642994 124.55519915 110.02296688 130.31445312 117.74755859 C131.76771157 119.68958676 133.2319753 121.62230573 134.703125 123.55078125 C135.41984375 124.50339844 136.1365625 125.45601563 136.875 126.4375 C137.76832031 127.61119141 137.76832031 127.61119141 138.6796875 128.80859375 C140.13254808 131.21999844 140.61852702 133.22698488 141 136 C141.5775 136.020625 142.155 136.04125 142.75 136.0625 C145.72219181 137.30091325 146.30820599 139.14772021 147.7421875 141.9140625 C149.21329063 144.353718 150.94366263 146.28210589 152.875 148.375 C156.11112265 151.9085604 158.75119068 155.50118443 161.3359375 159.5234375 C163.65399023 162.97330941 166.21174282 166.22129743 168.76513672 169.49902344 C173.21911367 175.23795882 177.50813076 181.09436641 181.79760742 186.95678711 C184.51536098 190.66199985 187.24723347 194.34809654 190.08203125 197.96484375 C190.54673828 198.5578125 191.01144531 199.15078125 191.49023438 199.76171875 C192.72291486 201.32396373 193.96462809 202.87906973 195.20703125 204.43359375 C196.82831607 206.75425634 197.60137128 208.23573856 198 211 C198.66 211 199.32 211 200 211 C201.29003906 212.44262695 201.29003906 212.44262695 202.765625 214.48828125 C203.59682861 215.62922241 203.59682861 215.62922241 204.44482422 216.79321289 C205.04053223 217.62457764 205.63624023 218.45594238 206.25 219.3125 C207.50743992 221.04714515 208.76526422 222.78151171 210.0234375 224.515625 C210.6740918 225.41603516 211.32474609 226.31644531 211.99511719 227.24414062 C213.9895673 229.98565948 216.00903144 232.70662219 218.0390625 235.421875 C218.68198242 236.28385498 219.32490234 237.14583496 219.98730469 238.03393555 C221.23236744 239.70169485 222.48035352 241.36727627 223.73144531 243.03051758 C224.29186523 243.78486084 224.85228516 244.5392041 225.4296875 245.31640625 C225.92710449 245.98099854 226.42452148 246.64559082 226.93701172 247.33032227 C228 249 228 249 228 251 C222.20227912 251.34842993 216.41073827 251.60108006 210.60498047 251.76904297 C208.63515051 251.8390828 206.66603916 251.934365 204.69873047 252.05615234 C188.87038058 253.01082727 188.87038058 253.01082727 184.20974731 249.74584961 C181.0815946 246.52267953 179.00125946 242.77329356 176.96704102 238.79815674 C175.57198704 236.20413469 173.81156837 233.97199154 171.98046875 231.671875 C171.35720703 230.86145752 170.73394531 230.05104004 170.09179688 229.21606445 C169.46337891 228.40226318 168.83496094 227.58846191 168.1875 226.75 C162.45543327 219.28347955 156.86859858 211.73278921 151.40039062 204.07128906 C147.86798547 199.14073371 144.20102498 194.39132039 140.29296875 189.75 C139 188 139 188 139 186 C138.34 186 137.68 186 137 186 C135.76564939 184.23289901 134.61073584 182.40980432 133.5 180.5625 C131.37758703 176.62163235 131.37758703 176.62163235 128 174 C128 173.34 128 172.68 128 172 C127.34 172 126.68 172 126 172 C124.94921875 170.41015625 124.94921875 170.41015625 123.6875 168.0625 C119.33425854 160.53256883 113.85526853 153.85545547 108.53613281 146.99755859 C104.72906172 142.04691402 101.06353154 136.9842674 97.51171875 131.84765625 C95.48581718 128.92533806 93.99818493 126.99878995 91 125 C90.01409757 123.32396587 89.03319039 121.64429919 88.1015625 119.9375 C85.84498916 115.96849157 83.28307045 112.2429745 80 109.0625 C77.56961484 106.5561653 75.98160547 103.82049476 74.24609375 100.8046875 C72.96268683 98.70825181 72.96268683 98.70825181 70 97 C69.07696346 95.38256901 68.15874148 93.76216178 67.26757812 92.12695312 C64.65049103 87.7355697 61.3795375 83.78313635 58.25 79.75 C56.80901544 77.87697907 55.36890124 76.00328821 53.9296875 74.12890625 C53.24616211 73.23961426 52.56263672 72.35032227 51.85839844 71.43408203 C49.04399541 67.74785001 46.31853533 64.00425597 43.6171875 60.234375 C41.48731923 57.29165845 39.26834453 54.42040883 37.03125 51.55859375 C36 50 36 50 36 48 C35.01 47.67 34.02 47.34 33 47 C31.38671875 44.7421875 31.38671875 44.7421875 29.6875 41.875 C27.51178846 38.31516559 25.34083047 35.05160026 22.5625 31.9375 C20 29 20 29 20 27 C19.34 27 18.68 27 18 27 C16.84375 25.5234375 16.84375 25.5234375 15.5 23.375 C12.68200473 19.00850238 9.75560548 14.73842418 6.75 10.5 C6.31365234 9.87657715 5.87730469 9.2531543 5.42773438 8.61083984 C3.18910211 5.28955859 3.18910211 5.28955859 0 3 C0 2.01 0 1.02 0 0 Z " fill="#050505" transform="translate(110,98)"/>
<path d="M0 0 C0.33 0 0.66 0 1 0 C1 15.18 1 30.36 1 46 C-14.51 46 -30.02 46 -46 46 C-46 45.67 -46 45.34 -46 45 C-45.23816406 44.82984375 -44.47632813 44.6596875 -43.69140625 44.484375 C-27.69704228 40.73039195 -16.43420908 33.79724524 -7 20 C-3.70168518 13.75676124 -2.00089988 6.7543067 0 0 Z " fill="#F6F6F6" transform="translate(446,401)"/>
<path d="M0 0 C2.73860298 3.65147064 3.74325347 5.85073188 5.125 10.0625 C7.79463639 17.25433865 11.79531191 22.43882642 17 28 C17.81855469 28.88042969 18.63710938 29.76085937 19.48046875 30.66796875 C21.90578636 32.91279761 23.77639771 34.08899609 26.8125 35.3125 C27.60269531 35.63863281 28.39289062 35.96476562 29.20703125 36.30078125 C29.79871094 36.53152344 30.39039062 36.76226562 31 37 C31 37.66 31 38.32 31 39 C35.98283716 40.14051606 40.94468132 41.22225866 46 42 C46 42.33 46 42.66 46 43 C30.82 43 15.64 43 0 43 C0 28.81 0 14.62 0 0 Z " fill="#F7F7F7" transform="translate(0,404)"/>
<path d="M0 0 C14.19 0 28.38 0 43 0 C43 14.52 43 29.04 43 44 C42.505 42.02 42.505 42.02 42 40 C41.34 40 40.68 40 40 40 C39.78085937 39.32195313 39.56171875 38.64390625 39.3359375 37.9453125 C35.63270121 27.07646452 31.11278388 19.09617618 22 12 C21.175 11.278125 20.35 10.55625 19.5 9.8125 C13.56375479 5.50872222 6.96598713 3.12849607 0 1 C0 0.67 0 0.34 0 0 Z " fill="#F7F7F7" transform="translate(404,0)"/>
<path d="M0 0 C14.19 0 28.38 0 43 0 C37.48360602 3.67759599 31.64579136 6.31838037 25 7 C25 7.66 25 8.32 25 9 C23.6218415 9.89580303 22.24206829 10.78919406 20.85546875 11.671875 C15.22761193 15.70023567 10.57928858 20.55177855 8 27 C7.34 27 6.68 27 6 27 C5.81824219 27.61488281 5.63648438 28.22976562 5.44921875 28.86328125 C5.19785156 29.67152344 4.94648437 30.47976562 4.6875 31.3125 C4.44386719 32.11300781 4.20023437 32.91351563 3.94921875 33.73828125 C3 36 3 36 0 39 C0 26.13 0 13.26 0 0 Z " fill="#FAFAFA" transform="translate(0,0)"/>
<path d="M0 0 C1.52901769 3.05803539 0.15438508 4.97275658 -0.90743637 8.16321754 C-3.28367707 15.90747098 -3.55210229 23.30875515 -3.48101807 31.38851929 C-3.48276683 32.88965794 -3.4862773 34.39079539 -3.49137473 35.89192641 C-3.50023888 39.97642387 -3.48443054 44.06049478 -3.46426249 48.14493799 C-3.44687702 52.56463668 -3.45284198 56.98431418 -3.45587158 61.40403748 C-3.45796197 69.04806524 -3.44548562 76.69195571 -3.42292023 84.33594894 C-3.39031648 95.3876541 -3.37998467 106.43929334 -3.37496826 117.49104138 C-3.36622871 135.42472921 -3.33964959 153.35834399 -3.30175781 171.29199219 C-3.26500298 188.70572547 -3.23670823 206.11943885 -3.21972656 223.53320312 C-3.21867567 224.6078304 -3.21762477 225.68245767 -3.21654204 226.78964941 C-3.21132162 232.18111013 -3.20626685 237.57257098 -3.20129442 242.96403193 C-3.15987413 287.64273854 -3.08946231 332.32136549 -3 377 C-5.71136027 374.28863973 -5.25334586 372.8773817 -5.26006222 369.08149719 C-5.26712781 367.8122427 -5.2741934 366.5429882 -5.2814731 365.23527145 C-5.27922137 363.81350423 -5.27677483 362.3917373 -5.27415466 360.9699707 C-5.27860347 359.46981666 -5.28391632 357.96966497 -5.29002339 356.46951675 C-5.30425779 352.33174919 -5.30586565 348.19405653 -5.30542648 344.05626798 C-5.30706999 339.59933992 -5.32012805 335.14244315 -5.33161926 330.68553162 C-5.3545081 320.93115793 -5.36239457 311.17680595 -5.36744571 301.42240906 C-5.37069931 295.33266881 -5.37721988 289.24293491 -5.3844471 283.15319824 C-5.40402088 266.29666344 -5.4204196 249.44013455 -5.42332363 232.58358765 C-5.4235112 231.5039954 -5.42369877 230.42440316 -5.42389202 229.312096 C-5.42425828 227.12340514 -5.42462198 224.93471428 -5.42498314 222.74602342 C-5.42516595 221.65952807 -5.42534876 220.57303273 -5.42553711 219.45361328 C-5.42571766 218.365793 -5.42589821 217.27797271 -5.42608423 216.15718818 C-5.42962412 198.53949819 -5.45663143 180.92193058 -5.494035 163.30428302 C-5.53211857 145.22170642 -5.55148113 127.13919051 -5.55178314 109.05657291 C-5.55236783 98.90188146 -5.5608666 88.74733582 -5.58978081 78.59268188 C-5.61429575 69.94306792 -5.62157706 61.2936529 -5.60653328 52.64401358 C-5.59936391 48.23158464 -5.60022267 43.81954853 -5.62294388 39.40716362 C-5.64356424 35.36392911 -5.6409054 31.32138865 -5.62006903 27.27816141 C-5.61657985 25.81909751 -5.62146 24.35998322 -5.63577347 22.90098536 C-5.71707201 14.03958365 -4.86684008 7.52875001 0 0 Z " fill="#5A5A5A" transform="translate(5,29)"/>
<path d="M0 0 C2.70556641 -0.34057617 2.70556641 -0.34057617 6.1015625 -0.29296875 C7.91914063 -0.2784668 7.91914063 -0.2784668 9.7734375 -0.26367188 C11.04445313 -0.23853516 12.31546875 -0.21339844 13.625 -0.1875 C14.90375 -0.17396484 16.1825 -0.16042969 17.5 -0.14648438 C20.66708282 -0.11103196 23.83333541 -0.06161441 27 0 C26.67 0.99 26.34 1.98 26 3 C26 2.34 26 1.68 26 1 C11.37291018 -0.33671802 11.37291018 -0.33671802 -1.57421875 5.18359375 C-4.09658137 7.63026656 -6.34198811 10.24233277 -8.55078125 12.97265625 C-9.35902344 13.97167969 -10.16726563 14.97070312 -11 16 C-11.66 16 -12.32 16 -13 16 C-13 15.34 -13 14.68 -13 14 C-12.34 14 -11.68 14 -11 14 C-10.7421875 13.41347656 -10.484375 12.82695313 -10.21875 12.22265625 C-8.90493528 9.82662877 -7.4781599 8.31088448 -5.5 6.4375 C-3.27903267 4.32475777 -1.72257583 2.58386374 0 0 Z " fill="#BEBEBE" transform="translate(336,78)"/>
<path d="M0 0 C1.32 0.66 2.64 1.32 4 2 C3.67 2.66 3.34 3.32 3 4 C2.01 4 1.02 4 0 4 C-2.12708293 5.76248102 -2.12708293 5.76248102 -4.1875 8 C-4.90292969 8.7425 -5.61835938 9.485 -6.35546875 10.25 C-6.89816406 10.8275 -7.44085938 11.405 -8 12 C-8.66 11.67 -9.32 11.34 -10 11 C-9.34 10.01 -8.68 9.02 -8 8 C-7.34 8 -6.68 8 -6 8 C-5.7525 7.4225 -5.505 6.845 -5.25 6.25 C-3.83316683 3.6997003 -2.12372463 1.98214299 0 0 Z " fill="#424242" transform="translate(200,255)"/>
<path d="M0 0 C1.57159226 3.14318453 0.04018399 5.92933389 -0.9375 9.125 C-1.13279297 9.78371094 -1.32808594 10.44242188 -1.52929688 11.12109375 C-2.01304986 12.74933552 -2.50569075 14.37493182 -3 16 C-3.66 16 -4.32 16 -5 16 C-5.82200425 9.75276774 -2.92551394 5.28682163 0 0 Z " fill="#A7A7A7" transform="translate(5,29)"/>
</svg>
