<?xml version="1.0" encoding="UTF-8"?>
<svg version="1.1" xmlns="http://www.w3.org/2000/svg" width="3840" height="2160">
<path d="M0 0 C1.0257172 -0.00262956 1.0257172 -0.00262956 2.07215595 -0.00531223 C4.3862992 -0.01000091 6.7003804 -0.00749942 9.01452637 -0.00507832 C10.68124697 -0.00694484 12.34796713 -0.00924491 14.01468658 -0.01194364 C18.61254745 -0.01808753 23.2103902 -0.01792502 27.80825424 -0.01674926 C32.75990838 -0.01654591 37.7115566 -0.0220577 42.66320801 -0.02680683 C52.37054155 -0.03512784 62.07786903 -0.03786232 71.78520584 -0.03841921 C79.67129859 -0.03889363 87.55738933 -0.04094468 95.44348145 -0.04411983 C117.77789631 -0.05292995 140.11230637 -0.05753859 162.44672298 -0.05678936 C163.65181294 -0.0567494 164.8569029 -0.05670945 166.09851074 -0.05666828 C167.30506349 -0.0566274 168.51161623 -0.05658652 169.75473118 -0.0565444 C189.32097021 -0.05613771 208.88719003 -0.06571217 228.4534235 -0.07980665 C248.52025806 -0.09414827 268.58708322 -0.10107807 288.65392303 -0.10021287 C299.92948722 -0.09988016 311.20503124 -0.10265963 322.48059082 -0.11339092 C332.07863368 -0.1224668 341.67664725 -0.12469525 351.27469254 -0.1178815 C356.17611966 -0.11460163 361.07749048 -0.11461206 365.97891235 -0.12323475 C370.45946257 -0.13103633 374.93991125 -0.12973408 379.42045879 -0.12095062 C381.04761135 -0.11940152 382.67477126 -0.12128407 384.30191517 -0.12681069 C386.50145137 -0.13379089 388.70062339 -0.12864102 390.90014648 -0.12025452 C392.12555901 -0.12047188 393.35097153 -0.12068925 394.61351776 -0.12091321 C397.45007324 0.12863445 397.45007324 0.12863445 399.45007324 2.12863445 C399.1395586 7.0968687 397.75398499 11.53304785 396.26647949 16.26144695 C395.34273653 19.50559686 394.67473584 22.75893982 394.01257324 26.06613445 C392.90587588 31.42579447 391.38354977 36.34273831 389.41101074 41.4372282 C388.42097494 44.21013336 387.73152746 46.94704339 387.07507324 49.81613445 C385.72306421 55.52874405 383.7568983 60.87473355 381.64416504 66.33737469 C380.23690726 69.987655 378.94827558 73.60859527 377.88757324 77.37863445 C376.23260699 83.16617724 373.82217396 88.60542952 371.45007324 94.12863445 C370.61504938 96.14876983 369.78170115 98.16959869 368.95007324 100.19113445 C366.98186236 104.91851948 364.89964288 109.58073195 362.75476074 114.23019695 C361.31825957 117.42146602 359.98100143 120.64714504 358.63757324 123.87863445 C355.62499971 130.94927618 352.10351348 137.67046215 348.40075684 144.40060711 C347.00990065 146.92872217 345.63857243 149.46740973 344.26257324 152.00363445 C331.69056017 175.02067349 318.06624893 196.89647491 302.80456543 218.22922039 C301.52367224 220.02542606 300.25489188 221.82955675 298.98913574 223.63644695 C298.27499512 224.64449383 297.56085449 225.6525407 296.82507324 226.69113445 C296.21405762 227.55867352 295.60304199 228.42621258 294.97351074 229.3200407 C294.21940918 230.21529461 294.21940918 230.21529461 293.45007324 231.12863445 C292.79007324 231.12863445 292.13007324 231.12863445 291.45007324 231.12863445 C291.04788574 232.24238445 291.04788574 232.24238445 290.63757324 233.37863445 C289.49730574 236.01925394 288.35627018 237.98416289 286.45007324 240.12863445 C285.79007324 240.12863445 285.13007324 240.12863445 284.45007324 240.12863445 C283.79007324 241.77863445 283.13007324 243.42863445 282.45007324 245.12863445 C281.79007324 245.12863445 281.13007324 245.12863445 280.45007324 245.12863445 C280.07882324 245.95621258 280.07882324 245.95621258 279.70007324 246.80050945 C278.2077285 249.58000153 276.41334801 251.91010515 274.45007324 254.37863445 C273.74882324 255.2706657 273.04757324 256.16269695 272.32507324 257.08175945 C271.70632324 257.7572282 271.08757324 258.43269695 270.45007324 259.12863445 C269.79007324 259.12863445 269.13007324 259.12863445 268.45007324 259.12863445 C268.04788574 259.99488445 268.04788574 259.99488445 267.63757324 260.87863445 C266.42078135 263.18413488 265.14673445 265.14919638 263.45007324 267.12863445 C262.79007324 267.12863445 262.13007324 267.12863445 261.45007324 267.12863445 C261.12007324 268.11863445 260.79007324 269.10863445 260.45007324 270.12863445 C259.79007324 270.12863445 259.13007324 270.12863445 258.45007324 270.12863445 C258.17711426 270.72625591 257.90415527 271.32387737 257.6229248 271.93960857 C256.48307456 274.06704035 255.37792381 275.45403917 253.68444824 277.15304852 C253.13047363 277.71332745 252.57649902 278.27360638 252.0057373 278.85086346 C251.40986816 279.44268414 250.81399902 280.03450481 250.20007324 280.64425945 C249.58615723 281.26008892 248.97224121 281.87591839 248.33972168 282.51040936 C247.04432841 283.80716091 245.7464168 285.10140102 244.44616699 286.39328289 C242.45032256 288.37838647 240.46540599 290.37397036 238.48132324 292.37082195 C237.22154769 293.62927657 235.96115223 294.88711099 234.70007324 296.14425945 C234.1042041 296.74417706 233.50833496 297.34409466 232.89440918 297.96219158 C228.68000571 302.12863445 228.68000571 302.12863445 226.45007324 302.12863445 C226.45007324 302.78863445 226.45007324 303.44863445 226.45007324 304.12863445 C225.79007324 304.12863445 225.13007324 304.12863445 224.45007324 304.12863445 C224.45007324 304.78863445 224.45007324 305.44863445 224.45007324 306.12863445 C222.73674571 307.71397148 220.95318277 309.2240466 219.13757324 310.69113445 C217.65837402 311.89963055 217.65837402 311.89963055 216.14929199 313.1325407 C213.45007324 315.12863445 213.45007324 315.12863445 210.45007324 316.12863445 C210.45007324 316.78863445 210.45007324 317.44863445 210.45007324 318.12863445 C209.79007324 318.12863445 209.13007324 318.12863445 208.45007324 318.12863445 C208.45007324 318.78863445 208.45007324 319.44863445 208.45007324 320.12863445 C204.98853478 323.12863445 204.98853478 323.12863445 202.45007324 323.12863445 C202.45007324 323.78863445 202.45007324 324.44863445 202.45007324 325.12863445 C200.80007324 325.78863445 199.15007324 326.44863445 197.45007324 327.12863445 C197.45007324 327.78863445 197.45007324 328.44863445 197.45007324 329.12863445 C193.98853478 332.12863445 193.98853478 332.12863445 191.45007324 332.12863445 C191.45007324 332.78863445 191.45007324 333.44863445 191.45007324 334.12863445 C189.98913574 335.41769695 189.98913574 335.41769695 188.07507324 336.75363445 C187.44858887 337.19965008 186.82210449 337.6456657 186.17663574 338.10519695 C184.45007324 339.12863445 184.45007324 339.12863445 182.45007324 339.12863445 C182.45007324 339.78863445 182.45007324 340.44863445 182.45007324 341.12863445 C181.07653809 342.28610516 181.07653809 342.28610516 179.16101074 343.5544157 C178.46620605 344.02170086 177.77140137 344.48898602 177.05554199 344.97043133 C175.95145996 345.69842937 175.95145996 345.69842937 174.82507324 346.44113445 C168.86014662 350.38651043 168.86014662 350.38651043 163.23913574 354.7966032 C160.71721978 356.90526403 158.29081519 358.49775608 155.45007324 360.12863445 C153.4217943 361.4506139 151.40123563 362.78449572 149.38757324 364.12863445 C148.36534668 364.80925945 147.34312012 365.48988445 146.28991699 366.19113445 C143.51191299 368.03316038 143.51191299 368.03316038 141.26647949 369.87863445 C139.45007324 371.12863445 139.45007324 371.12863445 136.45007324 371.12863445 C136.45007324 371.78863445 136.45007324 372.44863445 136.45007324 373.12863445 C134.95733887 373.96781414 134.95733887 373.96781414 133.43444824 374.82394695 C129.44746898 377.1019346 125.57628925 379.54355578 121.70007324 382.00363445 C115.40304732 385.96405078 109.04012723 389.67255594 102.45007324 393.12863445 C101.14117117 393.8220632 99.83260304 394.51612251 98.52429199 395.2106657 C95.61463499 396.75446333 92.70294292 398.2943291 89.78991699 399.83175945 C86.39360364 401.6260382 83.0067673 403.43723198 79.62316895 405.25534344 C58.68209486 416.49114608 58.68209486 416.49114608 50.48522949 419.3278532 C47.81398362 420.37891924 45.31433183 421.68949542 42.76257324 423.00363445 C37.51208217 425.6853012 32.19481445 427.85168956 26.65319824 429.85519695 C24.18981684 430.83454127 21.93975785 431.87374855 19.59460449 433.0856657 C15.47530561 435.18608569 11.26508497 436.72139975 6.88757324 438.19113445 C1.63344289 439.97403917 -3.44989774 441.9314341 -8.54992676 444.12863445 C-11.20104132 445.13222924 -13.87288909 446.07170703 -16.54992676 447.00363445 C-17.28759277 447.26193035 -18.02525879 447.52022625 -18.78527832 447.7863493 C-28.30060775 451.10550811 -37.84402042 454.32399202 -47.48742676 457.25363445 C-51.61542127 458.50866575 -55.65618047 459.86832727 -59.68273926 461.4137907 C-66.75085676 464.11978548 -73.76995398 465.85315132 -81.18664551 467.3747282 C-84.71913172 468.16656309 -88.04233491 469.2180809 -91.44445801 470.4372282 C-94.51169886 471.44446685 -97.63601817 472.07275671 -100.79992676 472.69894695 C-102.5664646 472.972473 -102.5664646 472.972473 -103.54992676 474.12863445 C-105.96435748 474.60010911 -108.37504874 475.03074915 -110.79992676 475.44113445 C-115.99984236 476.36002286 -120.9626789 477.4664555 -125.98742676 479.12863445 C-132.56385675 481.28227087 -139.18240214 482.41499533 -145.99523926 483.5153532 C-149.498951 484.02812428 -149.498951 484.02812428 -152.54992676 485.12863445 C-153.9443234 485.19528821 -155.34162551 485.21401644 -156.73742676 485.19113445 C-157.99555176 485.17050945 -159.25367676 485.14988445 -160.54992676 485.12863445 C-160.54992676 485.78863445 -160.54992676 486.44863445 -160.54992676 487.12863445 C-159.37430176 487.23175945 -158.19867676 487.33488445 -156.98742676 487.44113445 C-147.90066525 488.45394461 -138.94268271 490.54781717 -130.04992676 492.62863445 C-120.00783171 494.97261241 -110.03508634 497.26139702 -99.72180176 497.91769695 C-97.54992676 498.12863445 -97.54992676 498.12863445 -94.54992676 499.12863445 C-91.56776294 499.47856912 -88.59359968 499.78865713 -85.60461426 500.06613445 C-84.72016632 500.15113201 -83.83571838 500.23612957 -82.92446899 500.32370281 C-80.09159209 500.5953148 -77.25828876 500.86213487 -74.42492676 501.12863445 C-71.61308857 501.3961067 -68.80134747 501.66457135 -65.98965454 501.93356609 C-64.2411225 502.10052061 -62.49249101 502.26643817 -60.7437439 502.43112469 C-59.93325592 502.50790447 -59.12276794 502.58468426 -58.28771973 502.6637907 C-57.58839325 502.72961346 -56.88906677 502.79543621 -56.16854858 502.86325359 C-54.63088066 503.01908657 -53.09407752 503.18512623 -51.56026649 503.37520599 C-46.26765491 504.01645399 -41.08033332 504.2770729 -35.75158691 504.27389812 C-34.50792358 504.27893604 -34.50792358 504.27893604 -33.23913574 504.28407574 C-30.52240459 504.29350239 -27.80573571 504.29552524 -25.08898926 504.2966032 C-23.17438737 504.29982357 -21.25978572 504.3031882 -19.34518433 504.30668926 C-15.3357893 504.31266138 -11.32641576 504.31453134 -7.3170166 504.31393719 C-2.2330992 504.31383615 2.85067671 504.3274366 7.93456078 504.3447094 C11.89165857 504.35595237 15.84872361 504.3578526 19.80583572 504.35732746 C21.6769115 504.35849115 23.5479886 504.36281978 25.41904831 504.37065983 C36.44116354 504.41249113 47.21179564 503.93975696 58.1579895 502.61296368 C63.80015115 501.93729478 69.45688385 501.66011934 75.12976074 501.3747282 C78.00684486 501.1614855 80.630747 500.69339615 83.45007324 500.12863445 C85.594587 500.00013496 87.74084663 499.89989748 89.88757324 499.81613445 C103.1531573 499.13263919 116.31070365 496.98976043 129.45007324 495.12863445 C130.46375977 494.98635418 131.47744629 494.84407391 132.52185059 494.69748211 C142.12343858 493.34170622 151.63496693 491.79116471 161.12976074 489.8122282 C164.12586919 489.19538235 167.12338576 488.64817389 170.13757324 488.12863445 C175.11908352 487.25612442 179.9541089 485.98435812 184.82116699 484.6169157 C187.49140582 484.12095753 188.95374147 484.09939516 191.45007324 485.12863445 C193.02524775 488.27898347 191.62228954 491.18296434 190.76257324 494.44113445 C190.57831787 495.1595451 190.3940625 495.87795574 190.20422363 496.61813641 C188.76733994 502.13545223 187.10252487 507.56638318 185.37585449 512.9997282 C184.45583097 516.10917478 183.74709001 519.20718691 183.07507324 522.37863445 C181.57055212 529.19857909 179.24934473 535.62344518 176.86413574 542.1716032 C175.73056365 545.29520767 174.73042088 548.4300711 173.82507324 551.62863445 C172.69617682 555.55985024 171.14288978 559.14065347 169.41882324 562.8434782 C168.39376176 565.26146598 167.66007381 567.66368677 166.95007324 570.19113445 C166.07994543 573.23890835 165.12996825 575.95923228 163.63757324 578.75363445 C161.60288429 582.57731407 160.16076597 586.56146514 158.70007324 590.62863445 C156.12143824 597.72132752 152.97088088 604.36060795 149.51647949 611.0622282 C147.7496167 614.4971025 146.10834733 617.97747051 144.49645996 621.48727703 C138.63955355 634.23440511 131.71999034 646.2850141 124.27429199 658.1637907 C122.60758864 660.87262977 121.02683801 663.61944712 119.45715332 666.38522625 C108.34919415 685.6147866 94.7492108 703.75565371 80.29382324 720.57760906 C77.18801041 724.20310852 74.29464877 727.91611477 71.57116699 731.8356657 C71.20120605 732.26234539 70.83124512 732.68902508 70.45007324 733.12863445 C69.79007324 733.12863445 69.13007324 733.12863445 68.45007324 733.12863445 C68.19226074 733.7009782 67.93444824 734.27332195 67.66882324 734.86300945 C66.33641382 737.3399244 64.79951206 739.26275106 62.95007324 741.37863445 C62.03741699 742.43824383 62.03741699 742.43824383 61.10632324 743.51925945 C59.45007324 745.12863445 59.45007324 745.12863445 57.45007324 745.12863445 C57.45007324 745.78863445 57.45007324 746.44863445 57.45007324 747.12863445 C56.79007324 747.12863445 56.13007324 747.12863445 55.45007324 747.12863445 C55.45007324 747.78863445 55.45007324 748.44863445 55.45007324 749.12863445 C53.07507324 751.75363445 53.07507324 751.75363445 50.45007324 754.12863445 C49.79007324 754.12863445 49.13007324 754.12863445 48.45007324 754.12863445 C48.45007324 754.78863445 48.45007324 755.44863445 48.45007324 756.12863445 C46.07507324 758.75363445 46.07507324 758.75363445 43.45007324 761.12863445 C42.79007324 761.12863445 42.13007324 761.12863445 41.45007324 761.12863445 C41.45007324 761.78863445 41.45007324 762.44863445 41.45007324 763.12863445 C40.79007324 763.12863445 40.13007324 763.12863445 39.45007324 763.12863445 C39.45007324 763.78863445 39.45007324 764.44863445 39.45007324 765.12863445 C38.05163574 766.5387907 38.05163574 766.5387907 36.07507324 768.19113445 C32.77465149 770.99415222 29.53165228 773.84342105 26.32507324 776.75363445 C15.90840658 786.12863445 15.90840658 786.12863445 13.45007324 786.12863445 C13.45007324 786.78863445 13.45007324 787.44863445 13.45007324 788.12863445 C12.01306152 789.45724773 12.01306152 789.45724773 10.02038574 790.94894695 C9.30753418 791.48390789 8.59468262 792.01886883 7.86022949 792.5700407 C7.10612793 793.12562664 6.35202637 793.68121258 5.57507324 794.25363445 C4.82870605 794.81695477 4.08233887 795.38027508 3.31335449 795.9606657 C-2.28766889 800.12863445 -2.28766889 800.12863445 -4.54992676 800.12863445 C-4.54992676 800.78863445 -4.54992676 801.44863445 -4.54992676 802.12863445 C-6.23059082 803.53317547 -6.23059082 803.53317547 -8.56555176 805.1325407 C-9.40473145 805.70810711 -10.24391113 806.28367352 -11.10852051 806.87668133 C-11.99668457 807.47545086 -12.88484863 808.07422039 -13.79992676 808.69113445 C-14.67262207 809.29377117 -15.54531738 809.89640789 -16.44445801 810.51730633 C-23.61322746 815.39316402 -23.61322746 815.39316402 -27.54992676 816.12863445 C-27.54992676 816.78863445 -27.54992676 817.44863445 -27.54992676 818.12863445 C-28.43680176 818.62363445 -29.32367676 819.11863445 -30.23742676 819.62863445 C-33.64224666 821.57134481 -36.97130744 823.62084376 -40.29992676 825.69113445 C-52.46394619 833.20320195 -64.66448534 840.48428219 -77.68859863 846.41501141 C-81.66535798 848.22609232 -85.49825946 850.15160134 -89.29992676 852.31613445 C-95.14502489 855.5830322 -101.27269724 857.83460581 -107.54992676 860.12863445 C-117.12379727 863.75148699 -126.66568323 867.45397831 -135.98742676 871.69113445 C-146.97401813 876.12432045 -158.70154842 878.96341983 -170.05969238 882.3044157 C-171.19986816 882.64086102 -172.34004395 882.97730633 -173.51477051 883.32394695 C-174.53176025 883.62317059 -175.54875 883.92239422 -176.59655762 884.23068523 C-178.64300815 884.85289281 -180.67877973 885.51091743 -182.70471191 886.19699383 C-186.10308443 887.30976108 -189.46336176 887.9003202 -192.98742676 888.50363445 C-199.83158759 889.71858837 -206.44305592 891.37135464 -213.14758301 893.21457195 C-220.23765539 895.11936752 -227.20102728 896.3151913 -234.51867676 896.8825407 C-236.6148843 897.02095052 -236.6148843 897.02095052 -238.54992676 898.12863445 C-240.23397912 898.30999394 -241.92264514 898.44967974 -243.61242676 898.56613445 C-247.16713378 898.85697412 -250.52590728 899.27276425 -253.98742676 900.12863445 C-258.60995839 901.25710058 -263.20791692 901.58243486 -267.94836426 901.8825407 C-270.66145127 902.04054213 -270.66145127 902.04054213 -273.54992676 903.12863445 C-275.36415314 903.25836914 -277.17905724 903.38341596 -278.99597168 903.46750164 C-281.85956548 903.60095324 -284.71680291 903.80756825 -287.57629395 904.00900555 C-289.26587817 904.11141726 -290.95903094 904.15170543 -292.65148926 904.1794157 C-295.44080118 904.39430227 -297.161592 904.65852401 -299.54992676 906.12863445 C-301.25118396 909.07969791 -302.20600735 911.99065825 -303.22180176 915.2419157 C-304.59715899 919.57252202 -306.67496382 923.41026459 -308.86242676 927.37863445 C-311.95243547 933.04620309 -314.8154376 938.752836 -317.48742676 944.62863445 C-321.24819351 952.83342612 -325.75843967 960.49093683 -330.41320801 968.21310711 C-332.92434164 972.44471245 -335.24146881 976.78385384 -337.54992676 981.12863445 C-338.20992676 981.12863445 -338.86992676 981.12863445 -339.54992676 981.12863445 C-339.63242676 981.64425945 -339.71492676 982.15988445 -339.79992676 982.69113445 C-341.53763073 988.33867237 -345.27945335 993.26964539 -348.54992676 998.12863445 C-349.70025324 999.91741965 -350.84563464 1001.7093897 -351.98742676 1003.50363445 C-352.58812988 1004.44593914 -353.18883301 1005.38824383 -353.80773926 1006.3591032 C-354.90337234 1008.10081588 -355.98386307 1009.85224029 -357.04211426 1011.6169157 C-358.16305078 1013.48403779 -359.34984636 1015.31136986 -360.54992676 1017.12863445 C-361.20992676 1017.12863445 -361.86992676 1017.12863445 -362.54992676 1017.12863445 C-362.77680176 1017.80281414 -363.00367676 1018.47699383 -363.23742676 1019.1716032 C-364.91361606 1022.94801779 -367.14097217 1026.0995703 -369.54992676 1029.44113445 C-370.00109863 1030.08631023 -370.45227051 1030.73148602 -370.91711426 1031.39621258 C-372.07413613 1033.013647 -373.30659253 1034.57656689 -374.54992676 1036.12863445 C-375.20992676 1036.12863445 -375.86992676 1036.12863445 -376.54992676 1036.12863445 C-376.80258301 1036.85437664 -377.05523926 1037.58011883 -377.31555176 1038.3278532 C-378.63969005 1041.33230622 -380.20159188 1043.42394591 -382.29992676 1045.94113445 C-385.46205153 1049.7759294 -388.45297504 1053.67316638 -391.32336426 1057.73019695 C-391.72812988 1058.19168133 -392.13289551 1058.6531657 -392.54992676 1059.12863445 C-393.20992676 1059.12863445 -393.86992676 1059.12863445 -394.54992676 1059.12863445 C-394.81160645 1059.69711102 -395.07328613 1060.26558758 -395.34289551 1060.8512907 C-398.62502121 1067.0437803 -403.56211495 1072.27562837 -408.54992676 1077.12863445 C-409.27180176 1078.05675945 -409.99367676 1078.98488445 -410.73742676 1079.94113445 C-411.63461426 1081.02394695 -411.63461426 1081.02394695 -412.54992676 1082.12863445 C-413.20992676 1082.12863445 -413.86992676 1082.12863445 -414.54992676 1082.12863445 C-414.8064502 1082.71386883 -415.06297363 1083.2991032 -415.32727051 1083.90207195 C-416.65554838 1086.32098053 -418.11517477 1087.86062318 -420.11242676 1089.75363445 C-422.69008065 1092.17385404 -422.69008065 1092.17385404 -424.54992676 1095.12863445 C-425.20992676 1095.12863445 -425.86992676 1095.12863445 -426.54992676 1095.12863445 C-426.95211426 1096.08769695 -426.95211426 1096.08769695 -427.36242676 1097.06613445 C-428.54992676 1099.12863445 -428.54992676 1099.12863445 -431.54992676 1100.12863445 C-431.54992676 1100.78863445 -431.54992676 1101.44863445 -431.54992676 1102.12863445 C-432.20992676 1102.12863445 -432.86992676 1102.12863445 -433.54992676 1102.12863445 C-433.95211426 1103.08769695 -433.95211426 1103.08769695 -434.36242676 1104.06613445 C-435.54992676 1106.12863445 -435.54992676 1106.12863445 -438.54992676 1107.12863445 C-438.54992676 1107.78863445 -438.54992676 1108.44863445 -438.54992676 1109.12863445 C-439.20992676 1109.12863445 -439.86992676 1109.12863445 -440.54992676 1109.12863445 C-440.87992676 1110.11863445 -441.20992676 1111.10863445 -441.54992676 1112.12863445 C-442.20992676 1112.12863445 -442.86992676 1112.12863445 -443.54992676 1112.12863445 C-443.54992676 1112.78863445 -443.54992676 1113.44863445 -443.54992676 1114.12863445 C-444.20992676 1114.12863445 -444.86992676 1114.12863445 -445.54992676 1114.12863445 C-445.54992676 1114.78863445 -445.54992676 1115.44863445 -445.54992676 1116.12863445 C-447.22961426 1117.85519695 -447.22961426 1117.85519695 -449.42492676 1119.75363445 C-450.50387207 1120.70109539 -450.50387207 1120.70109539 -451.60461426 1121.66769695 C-453.54992676 1123.12863445 -453.54992676 1123.12863445 -455.54992676 1123.12863445 C-455.87992676 1124.11863445 -456.20992676 1125.10863445 -456.54992676 1126.12863445 C-457.20992676 1126.12863445 -457.86992676 1126.12863445 -458.54992676 1126.12863445 C-458.54992676 1126.78863445 -458.54992676 1127.44863445 -458.54992676 1128.12863445 C-463.02051499 1132.12863445 -463.02051499 1132.12863445 -465.54992676 1132.12863445 C-465.54992676 1132.78863445 -465.54992676 1133.44863445 -465.54992676 1134.12863445 C-467.15930176 1135.7497282 -467.15930176 1135.7497282 -469.29992676 1137.56613445 C-469.99602051 1138.16297039 -470.69211426 1138.75980633 -471.40930176 1139.3747282 C-477.21139669 1144.12863445 -477.21139669 1144.12863445 -479.54992676 1144.12863445 C-479.54992676 1144.78863445 -479.54992676 1145.44863445 -479.54992676 1146.12863445 C-481.44836426 1147.85519695 -481.44836426 1147.85519695 -483.92492676 1149.75363445 C-484.73703613 1150.38527508 -485.54914551 1151.0169157 -486.38586426 1151.66769695 C-488.54992676 1153.12863445 -488.54992676 1153.12863445 -490.54992676 1153.12863445 C-490.54992676 1153.78863445 -490.54992676 1154.44863445 -490.54992676 1155.12863445 C-492.01086426 1156.41769695 -492.01086426 1156.41769695 -493.92492676 1157.75363445 C-494.86465332 1158.42265789 -494.86465332 1158.42265789 -495.82336426 1159.10519695 C-497.54992676 1160.12863445 -497.54992676 1160.12863445 -499.54992676 1160.12863445 C-499.54992676 1160.78863445 -499.54992676 1161.44863445 -499.54992676 1162.12863445 C-501.66711426 1163.85519695 -501.66711426 1163.85519695 -504.42492676 1165.75363445 C-505.32984863 1166.38527508 -506.23477051 1167.0169157 -507.16711426 1167.66769695 C-509.54992676 1169.12863445 -509.54992676 1169.12863445 -511.54992676 1169.12863445 C-511.54992676 1169.78863445 -511.54992676 1170.44863445 -511.54992676 1171.12863445 C-515.93454214 1174.12863445 -515.93454214 1174.12863445 -518.54992676 1174.12863445 C-518.54992676 1174.78863445 -518.54992676 1175.44863445 -518.54992676 1176.12863445 C-520.63195801 1177.85519695 -520.63195801 1177.85519695 -523.36242676 1179.75363445 C-524.25574707 1180.38527508 -525.14906738 1181.0169157 -526.06945801 1181.66769695 C-528.54992676 1183.12863445 -528.54992676 1183.12863445 -531.54992676 1183.12863445 C-531.54992676 1183.78863445 -531.54992676 1184.44863445 -531.54992676 1185.12863445 C-532.53992676 1185.12863445 -533.52992676 1185.12863445 -534.54992676 1185.12863445 C-534.54992676 1185.78863445 -534.54992676 1186.44863445 -534.54992676 1187.12863445 C-536.85070801 1188.85519695 -536.85070801 1188.85519695 -539.86242676 1190.75363445 C-541.34162598 1191.70109539 -541.34162598 1191.70109539 -542.85070801 1192.66769695 C-545.54992676 1194.12863445 -545.54992676 1194.12863445 -548.54992676 1194.12863445 C-548.54992676 1194.78863445 -548.54992676 1195.44863445 -548.54992676 1196.12863445 C-549.43680176 1196.62363445 -550.32367676 1197.11863445 -551.23742676 1197.62863445 C-554.88048656 1199.70192052 -558.43029371 1201.9116306 -561.98742676 1204.12863445 C-566.14063075 1206.71097716 -570.30873104 1209.10085368 -574.72570801 1211.2028532 C-576.7528789 1212.23163158 -578.63568378 1213.40307463 -580.54992676 1214.62863445 C-585.86596253 1218.01251577 -591.19376469 1221.33411419 -597.54992676 1222.12863445 C-597.54992676 1222.78863445 -597.54992676 1223.44863445 -597.54992676 1224.12863445 C-598.86992676 1224.12863445 -600.18992676 1224.12863445 -601.54992676 1224.12863445 C-601.54992676 1224.78863445 -601.54992676 1225.44863445 -601.54992676 1226.12863445 C-602.27180176 1226.39675945 -602.99367676 1226.66488445 -603.73742676 1226.94113445 C-606.53586855 1228.03653167 -606.53586855 1228.03653167 -608.86242676 1229.56613445 C-611.0975883 1230.86564698 -613.01345546 1231.7112005 -615.42492676 1232.56613445 C-618.67107385 1233.72633147 -621.41740997 1235.24623354 -624.37414551 1237.02707195 C-628.46970649 1239.10058757 -632.87806168 1240.41826603 -637.21008301 1241.9137907 C-639.76027395 1242.84140402 -642.04663173 1243.78958857 -644.42492676 1245.06613445 C-648.97708283 1247.49526763 -653.81492278 1249.17127389 -658.6529541 1250.93503094 C-661.88079056 1252.11435674 -665.03332966 1253.33944173 -668.18664551 1254.71457195 C-671.2242901 1255.99172334 -674.10808727 1256.90219108 -677.29992676 1257.69113445 C-680.67798409 1258.52621287 -682.60861788 1259.16776187 -685.54992676 1261.12863445 C-687.43150014 1261.66105003 -689.33033971 1262.1339265 -691.23742676 1262.56613445 C-695.46825948 1263.57807641 -699.47378342 1264.72604446 -703.51062012 1266.3356657 C-710.62739452 1269.10296886 -717.86081662 1271.00911026 -725.29992676 1272.69113445 C-730.55875685 1273.88230003 -735.55982282 1275.0555398 -740.54992676 1277.12863445 C-742.75305176 1277.5075407 -742.75305176 1277.5075407 -744.79992676 1277.69113445 C-748.33910189 1277.71100856 -748.33910189 1277.71100856 -749.54992676 1279.12863445 C-751.86809764 1279.44961196 -754.18772033 1279.64084401 -756.51867676 1279.84738445 C-758.54173269 1279.91929283 -758.54173269 1279.91929283 -759.54992676 1281.12863445 C-761.31250853 1281.48474181 -763.0859751 1281.78733983 -764.86242676 1282.06613445 C-765.93750488 1282.23886883 -767.01258301 1282.4116032 -768.12023926 1282.58957195 C-770.40669759 1282.94894695 -772.69315592 1283.30832195 -774.97961426 1283.66769695 C-776.05469238 1283.84043133 -777.12977051 1284.0131657 -778.23742676 1284.19113445 C-779.72822754 1284.4250993 -779.72822754 1284.4250993 -781.24914551 1284.6637907 C-783.50433252 1284.89868361 -783.50433252 1284.89868361 -784.54992676 1286.12863445 C-786.50408833 1286.33863391 -788.46392975 1286.49696079 -790.42492676 1286.62863445 C-793.73710863 1286.85210696 -796.39368871 1287.0765551 -799.54992676 1288.12863445 C-803.16325729 1288.43798023 -806.77718006 1288.6381558 -810.39758301 1288.84738445 C-813.44934001 1288.92585785 -813.44934001 1288.92585785 -815.54992676 1290.12863445 C-838.46850975 1294.34264733 -862.08926726 1293.55821598 -885.27508545 1293.45120525 C-889.24446002 1293.43771093 -893.21372137 1293.44296318 -897.18310833 1293.44833374 C-901.06719069 1293.45170284 -904.95120608 1293.44499158 -908.83527565 1293.43520451 C-910.66054749 1293.43141582 -912.48582685 1293.43017723 -914.31110191 1293.43179035 C-924.60307082 1293.43331483 -934.62743751 1292.98794001 -944.82978821 1291.59218121 C-948.47390185 1291.13810751 -952.06951693 1290.90504946 -955.73742676 1290.75363445 C-973.96317349 1289.72198841 -992.17438834 1286.86899949 -1010.01477051 1283.0622282 C-1014.60766049 1282.08869762 -1019.22469174 1281.35187855 -1023.86242676 1280.62863445 C-1030.54028696 1279.56436176 -1036.97637275 1278.06757003 -1043.49133301 1276.23019695 C-1047.47298209 1275.12021029 -1051.49047543 1274.1951666 -1055.51818848 1273.26877117 C-1062.74493186 1271.60574492 -1069.7501469 1269.91194761 -1076.65539551 1267.16769695 C-1081.49404373 1265.43074631 -1086.47475565 1264.17503052 -1091.44714355 1262.87863445 C-1092.56536499 1262.58086102 -1092.56536499 1262.58086102 -1093.70617676 1262.27707195 C-1094.37455566 1262.10353191 -1095.04293457 1261.92999187 -1095.73156738 1261.75119305 C-1097.54992676 1261.12863445 -1097.54992676 1261.12863445 -1100.54992676 1259.12863445 C-1102.24484365 1258.62293794 -1103.95586618 1258.16993117 -1105.67492676 1257.75363445 C-1110.00547251 1256.61877175 -1113.87301688 1255.19311001 -1117.91320801 1253.29269695 C-1121.3606843 1251.77070001 -1124.88849028 1250.48775933 -1128.42492676 1249.19113445 C-1134.08078294 1247.10746696 -1139.57844729 1244.83965023 -1145.03820801 1242.27707195 C-1147.53466199 1241.13561399 -1150.05329753 1240.12054501 -1152.61242676 1239.12863445 C-1156.88913675 1237.4518926 -1160.95550143 1235.49200707 -1165.03039551 1233.3747282 C-1166.95453505 1232.4230995 -1168.91553744 1231.54565445 -1170.88977051 1230.7028532 C-1174.63497115 1229.0920572 -1178.28550581 1227.33666773 -1181.92492676 1225.50363445 C-1182.60829102 1225.16026043 -1183.29165527 1224.81688641 -1183.99572754 1224.46310711 C-1205.04844841 1213.83385204 -1205.04844841 1213.83385204 -1215.01452637 1207.67331219 C-1217.67229386 1206.05408302 -1220.36073176 1204.49796761 -1223.05773926 1202.9450407 C-1229.51358752 1199.18532808 -1235.82435424 1195.22374497 -1242.11242676 1191.19113445 C-1243.15850098 1190.52662273 -1244.2045752 1189.86211102 -1245.28234863 1189.17746258 C-1252.22762238 1184.73265983 -1258.91599662 1180.02273374 -1265.54992676 1175.12863445 C-1266.80874793 1174.228734 -1268.07008149 1173.3323262 -1269.33508301 1172.44113445 C-1275.52263401 1168.07657055 -1281.55376252 1163.61518142 -1287.41711426 1158.81613445 C-1289.28502346 1157.33822827 -1291.16423047 1156.02551675 -1293.17492676 1154.75363445 C-1293.95867676 1154.21738445 -1294.74242676 1153.68113445 -1295.54992676 1153.12863445 C-1295.54992676 1152.46863445 -1295.54992676 1151.80863445 -1295.54992676 1151.12863445 C-1296.47805176 1150.66457195 -1296.47805176 1150.66457195 -1297.42492676 1150.19113445 C-1298.79992676 1149.50363445 -1300.17492676 1148.81613445 -1301.54992676 1148.12863445 C-1301.54992676 1147.46863445 -1301.54992676 1146.80863445 -1301.54992676 1146.12863445 C-1302.08359863 1145.90304852 -1302.61727051 1145.67746258 -1303.16711426 1145.4450407 C-1306.33118894 1143.69701912 -1308.95205638 1141.41726686 -1311.67492676 1139.06613445 C-1312.24388672 1138.58023846 -1312.81284668 1138.09434246 -1313.39904785 1137.59372234 C-1317.84786098 1133.77805264 -1322.21014475 1129.87099235 -1326.52648926 1125.9059782 C-1328.62793467 1123.98104439 -1328.62793467 1123.98104439 -1331.54992676 1122.12863445 C-1331.54992676 1121.46863445 -1331.54992676 1120.80863445 -1331.54992676 1120.12863445 C-1332.44635895 1119.71919598 -1332.44635895 1119.71919598 -1333.36090088 1119.30148602 C-1335.48833266 1118.16163577 -1336.87533148 1117.05648502 -1338.57434082 1115.36300945 C-1339.13461975 1114.80903484 -1339.69489868 1114.25506023 -1340.27215576 1113.68429852 C-1340.86397644 1113.08842937 -1341.45579712 1112.49256023 -1342.06555176 1111.87863445 C-1342.68138123 1111.26471844 -1343.29721069 1110.65080242 -1343.93170166 1110.01828289 C-1345.22845322 1108.72288962 -1346.52269333 1107.42497801 -1347.8145752 1106.1247282 C-1349.79967878 1104.12888378 -1351.79526266 1102.1439672 -1353.79211426 1100.15988445 C-1355.05056887 1098.9001089 -1356.3084033 1097.63971344 -1357.56555176 1096.37863445 C-1358.16546936 1095.78276531 -1358.76538696 1095.18689617 -1359.38348389 1094.57297039 C-1363.54992676 1090.35856692 -1363.54992676 1090.35856692 -1363.54992676 1088.12863445 C-1364.09262207 1087.93269695 -1364.63531738 1087.73675945 -1365.19445801 1087.53488445 C-1368.56685072 1085.52151567 -1370.77208704 1082.62398077 -1373.23742676 1079.62863445 C-1374.30146067 1078.35950722 -1375.36657421 1077.09128439 -1376.43273926 1075.82394695 C-1376.95770996 1075.19778484 -1377.48268066 1074.57162273 -1378.02355957 1073.92648602 C-1380.83607833 1070.613724 -1383.77430377 1067.41823421 -1386.71008301 1064.21457195 C-1391.54992676 1058.72736057 -1391.54992676 1058.72736057 -1391.54992676 1056.12863445 C-1392.20992676 1056.12863445 -1392.86992676 1056.12863445 -1393.54992676 1056.12863445 C-1395.13428787 1054.26701015 -1396.59876848 1052.40317807 -1398.04992676 1050.44113445 C-1398.9597393 1049.2312405 -1399.86990471 1048.02161182 -1400.78039551 1046.8122282 C-1401.24365234 1046.19331707 -1401.70690918 1045.57440594 -1402.1842041 1044.93673992 C-1404.20463947 1042.26184819 -1406.29036613 1039.63864444 -1408.36242676 1037.00363445 C-1413.13260392 1030.8638686 -1417.49657313 1024.46039945 -1421.8536377 1018.02365398 C-1424.86331335 1013.57913295 -1427.92042649 1009.19407615 -1431.11242676 1004.87863445 C-1433.44084502 1001.71276014 -1435.56600929 998.5667924 -1437.44445801 995.10519695 C-1438.96048393 992.39456403 -1440.6023897 989.76910688 -1442.23742676 987.12863445 C-1448.93917869 976.27104752 -1455.57131004 965.40583565 -1461.54992676 954.12863445 C-1462.3076922 952.71715086 -1463.06550909 951.30569488 -1463.82336426 949.89425945 C-1472.66334753 933.35147942 -1480.56350557 916.5081382 -1487.70812988 899.16769695 C-1488.80821431 896.50299129 -1489.93055179 893.84778438 -1491.04992676 891.19113445 C-1491.88473096 889.17090829 -1492.71788731 887.15000086 -1493.54992676 885.12863445 C-1493.96661621 884.13235027 -1493.96661621 884.13235027 -1494.39172363 883.11593914 C-1503.15856351 862.10703215 -1510.14954693 840.57342237 -1515.89050293 818.55343914 C-1516.58422915 816.00249919 -1517.34701247 813.47954901 -1518.12414551 810.9528532 C-1519.32516294 806.99866904 -1520.24133998 803.07235616 -1520.98742676 799.00363445 C-1522.03524995 793.52612488 -1523.26942605 788.14943556 -1524.67492676 782.75363445 C-1526.11562892 777.20653168 -1527.05768549 771.8386331 -1527.54992676 766.12863445 C-1527.87992676 765.46863445 -1528.20992676 764.80863445 -1528.54992676 764.12863445 C-1528.87439688 762.42013647 -1529.15651482 760.70350256 -1529.41711426 758.9841032 C-1529.57905273 757.92578289 -1529.74099121 756.86746258 -1529.90783691 755.77707195 C-1530.16379639 754.06390789 -1530.16379639 754.06390789 -1530.42492676 752.31613445 C-1530.60201172 751.13922039 -1530.77909668 749.96230633 -1530.96154785 748.7497282 C-1531.32263769 746.34289674 -1531.68217485 743.93583183 -1532.04016113 741.5285368 C-1532.48430435 738.56630574 -1532.94313654 735.60698925 -1533.40930176 732.6481657 C-1537.05354876 709.08271248 -1537.90235419 685.40816578 -1538.20910645 661.59616375 C-1538.2468757 658.88882451 -1538.29579881 656.18173037 -1538.34439087 653.47456741 C-1538.64036147 636.65686075 -1538.48023596 619.92481125 -1537.54992676 603.12863445 C-1537.51148651 602.419781 -1537.47304626 601.71092754 -1537.43344116 600.98059368 C-1537.22559268 597.25511678 -1536.96944595 593.53569792 -1536.67492676 589.81613445 C-1536.59178223 588.74838787 -1536.5086377 587.68064129 -1536.42297363 586.58053875 C-1535.66279374 577.41804673 -1534.3799698 568.38582093 -1532.89367676 559.31711102 C-1532.37135191 555.99174174 -1531.96489385 552.65661951 -1531.54992676 549.31613445 C-1530.72670129 542.95862015 -1529.5094169 536.74988436 -1528.19836426 530.48019695 C-1527.68610265 527.83248333 -1527.3232879 525.3095833 -1527.11242676 522.62863445 C-1526.68351545 517.95437653 -1525.38909943 513.55725588 -1524.12780762 509.04733562 C-1522.92722265 504.70453184 -1521.98595572 500.37765598 -1521.17492676 495.94113445 C-1519.50381039 487.22941307 -1516.86538117 478.85821749 -1514.24035645 470.39425945 C-1513.34825768 467.46686321 -1512.54198915 464.51865698 -1511.73742676 461.56613445 C-1509.73508483 454.4990453 -1507.42559976 447.53685505 -1505.11242676 440.56613445 C-1504.74077393 439.44199139 -1504.36912109 438.31784832 -1503.98620605 437.15964031 C-1501.71981072 430.38515886 -1499.28477355 423.70054943 -1496.67858887 417.04928875 C-1495.58404052 414.2169111 -1494.55564094 411.36859127 -1493.54992676 408.50363445 C-1491.89032047 403.90320581 -1489.95480504 399.48967265 -1487.88977051 395.05832195 C-1486.43593726 391.87938628 -1485.08653642 388.6658356 -1483.73742676 385.44113445 C-1481.25535622 379.61366449 -1478.5285629 373.95896721 -1475.65661621 368.31491375 C-1473.13295506 363.34366669 -1470.76114271 358.31524902 -1468.42492676 353.25363445 C-1465.88089747 347.77291049 -1463.17071399 342.54223859 -1459.96008301 337.4137907 C-1458.50036386 335.04831784 -1457.17525045 332.64099062 -1455.86242676 330.19113445 C-1452.90681325 324.73704233 -1449.87121705 319.33071818 -1446.79992676 313.94113445 C-1446.31564209 313.07818768 -1445.83135742 312.2152409 -1445.33239746 311.32614422 C-1444.87308838 310.52491131 -1444.4137793 309.7236784 -1443.94055176 308.8981657 C-1443.52837402 308.17218182 -1443.11619629 307.44619793 -1442.69152832 306.69821453 C-1442.3147998 306.18025311 -1441.93807129 305.66229168 -1441.54992676 305.12863445 C-1440.88992676 305.12863445 -1440.22992676 305.12863445 -1439.54992676 305.12863445 C-1439.44422363 304.5666032 -1439.33852051 304.00457195 -1439.22961426 303.42550945 C-1433.81605368 285.13140818 -1414.32920796 265.53364232 -1402.70227051 250.78488445 C-1400.08235498 247.44741244 -1397.51009904 244.15190628 -1395.23742676 240.56613445 C-1394.68055176 239.76175945 -1394.12367676 238.95738445 -1393.54992676 238.12863445 C-1392.88992676 238.12863445 -1392.22992676 238.12863445 -1391.54992676 238.12863445 C-1391.24055176 237.50988445 -1390.93117676 236.89113445 -1390.61242676 236.25363445 C-1389.92492676 234.87863445 -1389.23742676 233.50363445 -1388.54992676 232.12863445 C-1387.88992676 232.12863445 -1387.22992676 232.12863445 -1386.54992676 232.12863445 C-1386.30242676 231.5769157 -1386.05492676 231.02519695 -1385.79992676 230.45675945 C-1384.30758202 227.67726738 -1382.51320153 225.34716376 -1380.54992676 222.87863445 C-1379.84867676 221.9866032 -1379.14742676 221.09457195 -1378.42492676 220.17550945 C-1377.49680176 219.16230633 -1377.49680176 219.16230633 -1376.54992676 218.12863445 C-1375.88992676 218.12863445 -1375.22992676 218.12863445 -1374.54992676 218.12863445 C-1374.31660645 217.5666032 -1374.08328613 217.00457195 -1373.84289551 216.42550945 C-1372.23055599 213.56129304 -1370.23057055 211.65611424 -1367.86242676 209.37863445 C-1364.8658841 206.48927762 -1362.01952442 203.55265915 -1359.30773926 200.3981657 C-1355.12561669 195.568749 -1350.63884669 191.07098288 -1346.11242676 186.56613445 C-1345.3048291 185.75466961 -1344.49723145 184.94320477 -1343.66516113 184.10715008 C-1339.32109777 179.77008763 -1334.89496511 175.6062073 -1330.2401123 171.60495281 C-1327.66513023 169.35579542 -1325.3410347 166.8959696 -1322.99523926 164.4137907 C-1321.54992676 163.12863445 -1321.54992676 163.12863445 -1319.54992676 163.12863445 C-1319.54992676 162.46863445 -1319.54992676 161.80863445 -1319.54992676 161.12863445 C-1317.54318934 159.42687233 -1315.52517601 157.83302409 -1313.42492676 156.25363445 C-1308.42517325 152.42186395 -1303.58953956 148.47852523 -1298.86242676 144.31613445 C-1291.22949444 137.64541953 -1283.05212319 131.75107997 -1274.83654785 125.8254118 C-1271.64255013 123.45531953 -1268.56197818 120.94879345 -1265.48864746 118.42477703 C-1263.54992676 117.12863445 -1263.54992676 117.12863445 -1260.54992676 117.12863445 C-1260.54992676 116.46863445 -1260.54992676 115.80863445 -1260.54992676 115.12863445 C-1259.16052246 114.04709148 -1259.16052246 114.04709148 -1257.22570801 112.88644695 C-1256.5263916 112.45976727 -1255.8270752 112.03308758 -1255.10656738 111.5934782 C-1254.36600098 111.15132977 -1253.62543457 110.70918133 -1252.86242676 110.25363445 C-1248.18181329 107.43439095 -1243.77491972 104.61520522 -1239.54992676 101.12863445 C-1237.96000665 100.20118106 -1236.36746846 99.27766625 -1234.75695801 98.38644695 C-1231.87394833 96.74338657 -1229.06006166 94.99829481 -1226.23742676 93.25363445 C-1225.09685642 92.55042079 -1223.95623165 91.84729539 -1222.81555176 91.14425945 C-1220.84519615 89.92810695 -1218.87606502 88.70996296 -1216.90930176 87.48800945 C-1211.56498647 84.21246137 -1206.09729073 81.37487336 -1200.46789551 78.62082195 C-1197.83669813 77.27528327 -1195.36306909 75.82449636 -1192.86242676 74.25363445 C-1186.42637078 70.30329881 -1179.55943833 67.26688415 -1172.70617676 64.1222868 C-1170.6694613 63.18371887 -1168.63970609 62.23191698 -1166.61242676 61.2731657 C-1154.12929571 55.37427753 -1141.45053303 49.9988197 -1128.60510254 44.93918133 C-1127.1677394 44.37229541 -1125.73128829 43.80309401 -1124.29553223 43.23215008 C-1108.45457972 36.93405936 -1108.45457972 36.93405936 -1100.79211426 34.79269695 C-1098.38676245 34.08031053 -1096.07982206 33.21368779 -1093.73742676 32.31613445 C-1085.72265694 29.35021681 -1077.45983027 27.16954639 -1069.23352051 24.87668133 C-1066.69189086 24.16820669 -1064.1519695 23.45392255 -1061.61242676 22.73800945 C-1050.14866597 19.51535657 -1038.73795224 16.44742961 -1027.00964355 14.32126141 C-1023.33937827 13.6557667 -1019.68092381 12.95818973 -1016.03039551 12.19113445 C-998.52449566 8.52281818 -980.72075584 5.27042481 -962.83508301 4.33957195 C-959.64103009 4.13448413 -956.49166981 3.79686415 -953.31541443 3.41366863 C-934.43684287 1.16264754 -915.57592446 0.96625751 -896.57922363 0.99826336 C-892.81941663 1.00360675 -889.05973009 0.99829324 -885.29992676 0.9919157 C-865.09381344 0.98512679 -844.8991451 1.26142631 -824.79992676 3.50363445 C-822.97147217 3.70098186 -822.97147217 3.70098186 -821.1060791 3.90231609 C-810.87195918 5.03471937 -800.70554814 6.43769455 -790.54992676 8.12863445 C-789.65676758 8.27413738 -788.7636084 8.41964031 -787.84338379 8.56955242 C-774.17645219 10.80518516 -760.64177187 13.48196749 -747.13635254 16.54367352 C-744.81650905 17.06834267 -742.49436322 17.58068513 -740.17102051 18.08957195 C-723.70088586 21.75898209 -707.57116686 26.80951423 -691.48742676 31.87863445 C-690.58999756 32.16005291 -689.69256836 32.44147137 -688.76794434 32.73141766 C-685.01276494 33.9302593 -681.33189741 35.16723676 -677.71789551 36.74582195 C-675.1085084 37.8848146 -672.66155428 38.75903969 -669.92492676 39.50363445 C-660.2175164 42.33802205 -651.01381532 46.28649491 -641.87805176 50.58957195 C-638.40116136 52.19742972 -634.89149576 53.70159234 -631.36242676 55.19113445 C-626.4320784 57.28230103 -621.65365556 59.54238116 -616.89367676 61.9919157 C-614.56424381 63.12169068 -612.22564252 64.03936674 -609.79992676 64.94113445 C-604.87656619 66.84720038 -600.40793069 69.40119767 -595.86779785 72.06320477 C-592.11669765 74.25634327 -588.33259291 76.28333409 -584.42492676 78.19113445 C-578.2816463 81.21002525 -572.42041919 84.61349813 -566.54992676 88.12863445 C-565.31568127 88.8619254 -564.08130064 89.59498893 -562.84680176 90.3278532 C-556.13953682 94.32069867 -549.5036918 98.39985049 -542.93664551 102.62082195 C-539.86196752 104.56325355 -536.72867719 106.36266199 -533.54992676 108.12863445 C-533.54992676 108.78863445 -533.54992676 109.44863445 -533.54992676 110.12863445 C-532.86285645 110.36453289 -532.17578613 110.60043133 -531.46789551 110.8434782 C-527.95633831 112.39006765 -524.96512081 114.46689285 -521.86242676 116.69113445 C-517.84022221 119.62664976 -517.84022221 119.62664976 -513.54992676 122.12863445 C-513.54992676 122.78863445 -513.54992676 123.44863445 -513.54992676 124.12863445 C-512.86930176 124.35550945 -512.18867676 124.58238445 -511.48742676 124.81613445 C-507.85105586 126.44089592 -504.52163413 128.45666702 -501.54992676 131.12863445 C-501.54992676 131.78863445 -501.54992676 132.44863445 -501.54992676 133.12863445 C-500.86285645 133.34390789 -500.17578613 133.55918133 -499.46789551 133.7809782 C-495.69454004 135.52369257 -492.95722895 137.95382923 -489.86242676 140.69113445 C-485.96387443 144.27783148 -485.96387443 144.27783148 -481.54992676 147.12863445 C-481.54992676 147.78863445 -481.54992676 148.44863445 -481.54992676 149.12863445 C-480.80742676 149.37613445 -480.06492676 149.62363445 -479.29992676 149.87863445 C-476.54992676 151.12863445 -476.54992676 151.12863445 -474.48742676 153.31613445 C-473.84805176 153.91425945 -473.20867676 154.51238445 -472.54992676 155.12863445 C-469.49592178 155.01290374 -468.57163709 154.15185471 -466.47180176 151.9059782 C-465.75508301 150.96882977 -465.03836426 150.03168133 -464.29992676 149.06613445 C-460.89992378 144.75203231 -457.38549557 140.84358363 -453.44836426 137.0231657 C-451.54986735 135.12857517 -449.79636395 133.16351037 -448.04992676 131.12863445 C-444.43785035 126.94360799 -440.73765868 122.74837515 -436.54992676 119.12863445 C-435.88992676 119.12863445 -435.22992676 119.12863445 -434.54992676 119.12863445 C-434.54992676 118.46863445 -434.54992676 117.80863445 -434.54992676 117.12863445 C-433.08117676 115.6481657 -433.08117676 115.6481657 -431.04992676 113.94113445 C-427.37599744 110.82940784 -423.78129636 107.6471069 -420.21398926 104.4137907 C-418.54992676 103.12863445 -418.54992676 103.12863445 -416.54992676 103.12863445 C-416.54992676 102.46863445 -416.54992676 101.80863445 -416.54992676 101.12863445 C-415.08117676 99.83175945 -415.08117676 99.83175945 -413.04992676 98.37863445 C-412.32547363 97.85527508 -411.60102051 97.3319157 -410.85461426 96.79269695 C-409.71379395 95.96898602 -409.71379395 95.96898602 -408.54992676 95.12863445 C-406.43475464 93.49987822 -404.32215306 91.86801345 -402.21398926 90.23019695 C-400.54992676 89.12863445 -400.54992676 89.12863445 -398.54992676 89.12863445 C-398.54992676 88.46863445 -398.54992676 87.80863445 -398.54992676 87.12863445 C-397.55992676 87.12863445 -396.56992676 87.12863445 -395.54992676 87.12863445 C-395.54992676 86.46863445 -395.54992676 85.80863445 -395.54992676 85.12863445 C-394.07556152 83.95871258 -394.07556152 83.95871258 -391.99133301 82.65988445 C-390.83564819 81.93382 -390.83564819 81.93382 -389.65661621 81.19308758 C-388.81703369 80.67681805 -387.97745117 80.16054852 -387.11242676 79.62863445 C-386.25802002 79.09689617 -385.40361328 78.56515789 -384.52331543 78.01730633 C-378.83842126 74.49566261 -373.1175393 71.03425723 -367.36242676 67.62863445 C-366.69348389 67.23224773 -366.02454102 66.83586102 -365.33532715 66.42746258 C-361.41875812 64.13655606 -357.44857256 62.02953174 -353.36706543 60.04684734 C-351.54379617 59.12553662 -349.79932297 58.12003194 -348.04992676 57.06613445 C-345.05246842 55.31534629 -342.03229879 54.11423909 -338.73742676 53.03488445 C-336.31065832 52.08776505 -336.31065832 52.08776505 -333.29992676 50.2262907 C-329.53005054 48.02887085 -325.65254555 46.52405741 -321.54992676 45.06613445 C-317.63655428 43.65297217 -313.77209845 42.22488473 -309.95227051 40.5700407 C-306.70167683 39.19292352 -303.49711391 38.1229122 -300.11242676 37.12863445 C-296.52991237 36.05673311 -293.01506593 34.97131828 -289.54992676 33.56613445 C-285.14313458 31.84776266 -280.57442107 30.95721596 -275.96398926 29.9450407 C-272.65489382 29.15373527 -269.47089102 28.18372267 -266.23742676 27.12863445 C-260.4414977 25.27705858 -254.65327166 24.0935713 -248.66589355 23.07980633 C-245.32117327 22.74773385 -245.32117327 22.74773385 -242.54992676 21.12863445 C-240.87228605 20.77304858 -239.18337987 20.47023497 -237.49133301 20.19113445 C-235.95315918 19.93203289 -235.95315918 19.93203289 -234.38391113 19.66769695 C-233.30432129 19.48980633 -232.22473145 19.3119157 -231.11242676 19.12863445 C-228.98824816 18.77736226 -226.86452332 18.42333157 -224.74133301 18.06613445 C-223.32122925 17.83216961 -223.32122925 17.83216961 -221.87243652 17.5934782 C-219.53758207 17.23203748 -219.53758207 17.23203748 -217.54992676 16.12863445 C-214.7304946 15.81536421 -211.91014594 15.61833481 -209.08117676 15.40988445 C-206.55918672 15.27730833 -206.55918672 15.27730833 -204.54992676 14.12863445 C-202.81981584 13.86177602 -201.08241606 13.6414216 -199.34289551 13.4450407 C-198.28787842 13.32314373 -197.23286133 13.20124676 -196.14587402 13.07565594 C-195.02108643 12.94876385 -193.89629883 12.82187176 -192.73742676 12.69113445 C-182.65421162 11.53288904 -182.65421162 11.53288904 -172.61242676 10.06613445 C-160.24911863 8.08800515 -147.87115912 6.95022115 -135.36218262 6.47018719 C-131.9257615 6.33273034 -128.61205322 6.13792439 -125.20617676 5.62863445 C-120.05890881 4.92473456 -114.92647288 4.84262817 -109.73742676 4.69113445 C-100.87521592 4.39794293 -92.07066263 3.89421425 -83.23742676 3.12863445 C-60.71649888 1.23780363 -37.96960204 0.88807529 -15.37756348 1.16525555 C-14.04942627 1.17806561 -14.04942627 1.17806561 -12.69445801 1.19113445 C-11.9349585 1.20273602 -11.17545898 1.21433758 -10.39294434 1.2262907 C-6.83250323 1.03763307 -3.81936156 0.00219555 0 0 Z M-921.54992676 457.12863445 C-923.04912335 457.26292731 -924.54907935 457.38925761 -926.04992676 457.50363445 C-933.00445584 458.25114622 -939.80920704 460.32247598 -946.54992676 462.12863445 C-947.48449707 462.37742352 -948.41906738 462.62621258 -949.38195801 462.8825407 C-969.55703603 468.58631882 -988.70294148 479.53989312 -1005.79992676 491.44113445 C-1006.56426025 491.96932781 -1007.32859375 492.49752117 -1008.11608887 493.04172039 C-1008.82128662 493.54090984 -1009.52648438 494.0400993 -1010.25305176 494.5544157 C-1010.88888184 495.00212322 -1011.52471191 495.44983074 -1012.17980957 495.91110516 C-1012.63194824 496.31288982 -1013.08408691 496.71467449 -1013.54992676 497.12863445 C-1013.54992676 497.78863445 -1013.54992676 498.44863445 -1013.54992676 499.12863445 C-1014.12742676 499.39675945 -1014.70492676 499.66488445 -1015.29992676 499.94113445 C-1017.60542718 501.15792634 -1019.57048868 502.43197325 -1021.54992676 504.12863445 C-1021.54992676 504.78863445 -1021.54992676 505.44863445 -1021.54992676 506.12863445 C-1022.20992676 506.12863445 -1022.86992676 506.12863445 -1023.54992676 506.12863445 C-1023.54992676 506.78863445 -1023.54992676 507.44863445 -1023.54992676 508.12863445 C-1024.20992676 508.12863445 -1024.86992676 508.12863445 -1025.54992676 508.12863445 C-1025.54992676 508.78863445 -1025.54992676 509.44863445 -1025.54992676 510.12863445 C-1026.53992676 510.45863445 -1027.52992676 510.78863445 -1028.54992676 511.12863445 C-1028.54992676 511.78863445 -1028.54992676 512.44863445 -1028.54992676 513.12863445 C-1029.20992676 513.12863445 -1029.86992676 513.12863445 -1030.54992676 513.12863445 C-1030.54992676 513.78863445 -1030.54992676 514.44863445 -1030.54992676 515.12863445 C-1031.20992676 515.12863445 -1031.86992676 515.12863445 -1032.54992676 515.12863445 C-1032.54992676 515.78863445 -1032.54992676 516.44863445 -1032.54992676 517.12863445 C-1033.20992676 517.12863445 -1033.86992676 517.12863445 -1034.54992676 517.12863445 C-1037.80706869 520.57189879 -1040.64510061 524.38653489 -1043.54992676 528.12863445 C-1043.99078613 528.6906657 -1044.43164551 529.25269695 -1044.88586426 529.83175945 C-1055.30969415 543.2080036 -1065.01037076 558.52575488 -1070.61242676 574.62863445 C-1071.70563581 577.74404566 -1072.82335019 580.84121529 -1074.01086426 583.9216032 C-1079.36493956 598.15548542 -1082.47379345 612.90130157 -1083.30383301 628.0622282 C-1083.54992676 631.12863445 -1083.54992676 631.12863445 -1084.05700684 632.96286297 C-1084.66549818 635.63642748 -1084.6796495 638.10544781 -1084.68273926 640.84738445 C-1084.68402832 641.94437664 -1084.68531738 643.04136883 -1084.68664551 644.1716032 C-1084.68277832 645.31242352 -1084.67891113 646.45324383 -1084.67492676 647.62863445 C-1084.67879395 648.76945477 -1084.68266113 649.91027508 -1084.68664551 651.0856657 C-1084.68535645 652.18265789 -1084.68406738 653.27965008 -1084.68273926 654.40988445 C-1084.68161133 655.41084148 -1084.6804834 656.41179852 -1084.67932129 657.44308758 C-1084.56339358 659.84913431 -1084.18657237 661.82125591 -1083.54992676 664.12863445 C-1083.3989687 666.27279801 -1083.27728246 668.41910185 -1083.17492676 670.56613445 C-1082.69769139 677.68061243 -1081.32672462 684.2406075 -1079.54992676 691.12863445 C-1079.2206668 692.50305291 -1078.89395814 693.87808442 -1078.56945801 695.25363445 C-1078.23005975 696.67040792 -1077.89022188 698.08707614 -1077.54992676 699.50363445 C-1077.39612549 700.15767254 -1077.24232422 700.81171062 -1077.0838623 701.48556805 C-1075.99064718 705.92976212 -1074.40246644 709.95182085 -1072.54992676 714.12863445 C-1072.01749251 715.70810448 -1071.49610238 717.29135347 -1070.98742676 718.87863445 C-1065.0390314 735.38429638 -1055.17527986 751.46002817 -1044.18273926 765.0856657 C-1041.95114941 767.87782238 -1039.88349773 770.78309498 -1037.81164551 773.6950407 C-1037.18709473 774.40466961 -1037.18709473 774.40466961 -1036.54992676 775.12863445 C-1035.88992676 775.12863445 -1035.22992676 775.12863445 -1034.54992676 775.12863445 C-1034.32820801 775.67390789 -1034.10648926 776.21918133 -1033.87805176 776.7809782 C-1032.12926253 779.87222034 -1029.80500563 782.2138138 -1027.29992676 784.69113445 C-1026.50582397 785.47786541 -1026.50582397 785.47786541 -1025.69567871 786.28048992 C-1010.13246255 801.40085957 -990.59766021 814.85978816 -970.54992676 823.12863445 C-969.21574707 823.71064617 -969.21574707 823.71064617 -967.85461426 824.3044157 C-925.83467652 842.40100222 -881.44652127 844.03149411 -837.54992676 832.12863445 C-836.31629395 831.79863445 -835.08266113 831.46863445 -833.81164551 831.12863445 C-820.34020522 827.25660371 -808.01193241 820.42343594 -795.54992676 814.12863445 C-794.21701617 813.46112297 -792.88393829 812.793943 -791.54992676 812.12863445 C-791.54992676 811.46863445 -791.54992676 810.80863445 -791.54992676 810.12863445 C-790.9701709 810.01382732 -790.39041504 809.8990202 -789.79309082 809.78073406 C-785.81761696 808.62504287 -782.67017066 806.03422805 -779.29992676 803.69113445 C-778.55484863 803.18775555 -777.80977051 802.68437664 -777.04211426 802.16574383 C-775.98637207 801.43774578 -775.98637207 801.43774578 -774.90930176 800.6950407 C-774.26444824 800.25103924 -773.61959473 799.80703777 -772.9552002 799.34958172 C-772.49145996 798.94666912 -772.02771973 798.54375652 -771.54992676 798.12863445 C-771.54992676 797.46863445 -771.54992676 796.80863445 -771.54992676 796.12863445 C-771.0123877 795.90820477 -770.47484863 795.68777508 -769.92102051 795.4606657 C-766.74798714 793.67812142 -764.24688161 791.29271936 -761.61242676 788.81613445 C-761.10002441 788.34240398 -760.58762207 787.86867352 -760.05969238 787.38058758 C-758.54562844 785.97425881 -757.04598038 784.55408668 -755.54992676 783.12863445 C-754.6205127 782.24820477 -753.69109863 781.36777508 -752.73352051 780.4606657 C-750.3580723 778.24904852 -750.3580723 778.24904852 -749.54992676 775.12863445 C-748.88992676 775.12863445 -748.22992676 775.12863445 -747.54992676 775.12863445 C-744.65517123 771.99091383 -742.14584212 768.51518394 -739.54992676 765.12863445 C-738.7077722 764.05158209 -737.8653197 762.97476263 -737.02258301 761.8981657 C-736.19748108 760.82983681 -735.3732443 759.7608391 -734.54992676 758.69113445 C-733.78680176 757.70242352 -733.02367676 756.71371258 -732.23742676 755.6950407 C-730.27522363 753.22277303 -730.27522363 753.22277303 -730.54992676 750.12863445 C-729.88992676 750.12863445 -729.22992676 750.12863445 -728.54992676 750.12863445 C-724.34743282 742.55818438 -720.33606285 734.916028 -716.54992676 727.12863445 C-716.17867676 726.3809782 -715.80742676 725.63332195 -715.42492676 724.86300945 C-712.75786961 719.23718578 -711.13325254 713.43077217 -709.49523926 707.43332195 C-708.73388974 704.77174473 -707.89038776 702.25604685 -706.86242676 699.69113445 C-705.55128502 696.13232115 -705.00915561 692.87900339 -704.54992676 689.12863445 C-704.21992676 688.79863445 -703.88992676 688.46863445 -703.54992676 688.12863445 C-700.16159519 675.69209513 -700.08475174 663.24139081 -700.15881348 650.43820477 C-700.17490027 647.13407394 -700.15888348 643.83116593 -700.13977051 640.52707195 C-700.12805041 628.68066121 -700.76365863 617.66322305 -703.54992676 606.12863445 C-703.73361816 605.28333172 -703.91730957 604.43802898 -704.10656738 603.56711102 C-705.68246623 596.37094221 -707.58073057 589.35356548 -710.50695801 582.58175945 C-711.24603934 580.84339587 -711.92538771 579.07908337 -712.56164551 577.30050945 C-722.9080098 548.4032955 -741.64807088 523.93029381 -763.86242676 503.12863445 C-764.70607788 502.33670696 -764.70607788 502.33670696 -765.56677246 501.52878094 C-771.85382822 495.18286253 -771.85382822 495.18286253 -779.54992676 492.12863445 C-779.54992676 491.46863445 -779.54992676 490.80863445 -779.54992676 490.12863445 C-781.18175782 489.07274376 -782.85785675 488.08502185 -784.54992676 487.12863445 C-786.09680176 486.04582195 -786.09680176 486.04582195 -787.67492676 484.94113445 C-790.40644889 482.86198399 -790.40644889 482.86198399 -793.54992676 483.12863445 C-793.54992676 482.46863445 -793.54992676 481.80863445 -793.54992676 481.12863445 C-794.76229004 480.53115398 -794.76229004 480.53115398 -795.99914551 479.9216032 C-797.06777832 479.39179852 -798.13641113 478.86199383 -799.23742676 478.31613445 C-800.29316895 477.79406414 -801.34891113 477.27199383 -802.43664551 476.7341032 C-805.54992676 475.12863445 -805.54992676 475.12863445 -807.81945801 473.6794157 C-815.55328021 469.28695874 -824.33459855 466.74558494 -832.73742676 463.94113445 C-834.29880371 463.40842937 -834.29880371 463.40842937 -835.89172363 462.86496258 C-841.14385889 461.10758145 -846.05244344 459.7597425 -851.54992676 459.12863445 C-851.87992676 458.79863445 -852.20992676 458.46863445 -852.54992676 458.12863445 C-875.14619045 453.88684232 -898.86701915 453.55452866 -921.54992676 457.12863445 Z " fill="#0099CC" transform="translate(2807.5499267578125,451.8713655471802)"/>
<path d="M0 0 C3.75980701 0.00534339 7.51949355 0.00002988 11.27929688 -0.00634766 C31.48541019 -0.01313657 51.68007853 0.26316295 71.77929688 2.50537109 C73.60775146 2.70271851 73.60775146 2.70271851 75.47314453 2.90405273 C85.70726445 4.03645601 95.87367549 5.43943119 106.02929688 7.13037109 C107.36903564 7.34862549 107.36903564 7.34862549 108.73583984 7.57128906 C122.40277144 9.80692181 135.93745176 12.48370413 149.44287109 15.54541016 C151.76271458 16.07007931 154.08486041 16.58242177 156.40820312 17.09130859 C172.87833778 20.76071873 189.00805677 25.81125087 205.09179688 30.88037109 C205.98922607 31.16178955 206.88665527 31.44320801 207.8112793 31.7331543 C211.56645869 32.93199594 215.24732623 34.1689734 218.86132812 35.74755859 C221.47071524 36.88655124 223.91766936 37.76077633 226.65429688 38.50537109 C236.36170724 41.33975869 245.56540831 45.28823155 254.70117188 49.59130859 C258.17806227 51.19916636 261.68772787 52.70332898 265.21679688 54.19287109 C270.14714523 56.28403767 274.92556807 58.5441178 279.68554688 60.99365234 C282.01497983 62.12342733 284.35358111 63.04110338 286.77929688 63.94287109 C291.70265745 65.84893702 296.17129294 68.40293431 300.71142578 71.06494141 C304.46252598 73.25807991 308.24663072 75.28507073 312.15429688 77.19287109 C318.29757733 80.21176189 324.15880444 83.61523477 330.02929688 87.13037109 C331.26354237 87.86366204 332.49792299 88.59672557 333.73242188 89.32958984 C340.43968681 93.32243531 347.07553183 97.40158713 353.64257812 101.62255859 C356.71725611 103.56499019 359.85054644 105.36439863 363.02929688 107.13037109 C363.02929688 107.79037109 363.02929688 108.45037109 363.02929688 109.13037109 C363.71636719 109.36626953 364.4034375 109.60216797 365.11132812 109.84521484 C368.62288532 111.39180429 371.61410283 113.46862949 374.71679688 115.69287109 C378.73900143 118.6283864 378.73900143 118.6283864 383.02929688 121.13037109 C383.02929688 121.79037109 383.02929688 122.45037109 383.02929688 123.13037109 C383.70992187 123.35724609 384.39054687 123.58412109 385.09179688 123.81787109 C388.72816777 125.44263256 392.05758951 127.45840366 395.02929688 130.13037109 C395.02929688 130.79037109 395.02929688 131.45037109 395.02929688 132.13037109 C395.71636719 132.34564453 396.4034375 132.56091797 397.11132812 132.78271484 C400.88468359 134.52542921 403.62199468 136.95556587 406.71679688 139.69287109 C410.6153492 143.27956812 410.6153492 143.27956812 415.02929688 146.13037109 C415.02929688 146.79037109 415.02929688 147.45037109 415.02929688 148.13037109 C415.77179688 148.37787109 416.51429687 148.62537109 417.27929688 148.88037109 C420.02929688 150.13037109 420.02929688 150.13037109 422.09179688 152.25537109 C424.05899717 154.59398538 424.05899717 154.59398538 428.02929688 154.13037109 C428.34179688 156.31787109 428.34179688 156.31787109 428.02929688 159.13037109 C426.87677543 160.3061972 425.71744852 161.47612849 424.5246582 162.61108398 C421.61477255 165.56752781 419.20861045 168.9469004 416.71679688 172.25537109 C416.1421167 173.01382324 415.56743652 173.77227539 414.9753418 174.55371094 C413.3212587 176.74193231 411.67377944 178.93492915 410.02929688 181.13037109 C409.2790625 182.13068359 408.52882813 183.13099609 407.75585938 184.16162109 C402.24072277 191.63519396 397.12393263 199.36740961 392.02929688 207.13037109 C390.98515625 208.71011719 390.98515625 208.71011719 389.91992188 210.32177734 C384.87900154 218.04423989 380.09632165 225.91624583 375.34179688 233.81787109 C374.71184814 234.86313965 374.08189941 235.9084082 373.43286133 236.98535156 C366.39418286 248.74028777 360.05122875 260.83079176 353.77929688 273.00537109 C353.40590179 273.72937103 353.03250671 274.45337097 352.64779663 275.1993103 C346.87471367 286.40444827 341.32434939 297.69257147 335.98583984 309.11181641 C334.67698203 311.87384715 333.29467312 314.5961266 331.90429688 317.31787109 C329.08891634 322.88518697 326.57353333 328.5709347 324.06445312 334.28076172 C322.22459702 338.46257206 320.35291574 342.62233193 318.3840332 346.74511719 C315.84235152 352.12236051 313.43954754 357.48739931 311.26367188 363.02490234 C309.09556831 368.5021261 306.86945413 373.95108095 304.58398438 379.38037109 C304.28837112 380.08323746 303.99275787 380.78610382 303.68818665 381.51026917 C303.07586967 382.96597948 302.46348766 384.42166244 301.8510437 385.87731934 C294.58280052 403.17415903 287.68145471 420.58789903 281.02929688 438.13037109 C280.70638672 438.97986328 280.38347656 439.82935547 280.05078125 440.70458984 C276.94813207 448.87846561 273.93054612 457.08418862 270.91699219 465.29125977 C269.14968772 470.10241516 267.36739583 474.90764692 265.57226562 479.70849609 C259.48347289 496.00640186 259.48347289 496.00640186 253.91772461 512.48803711 C252.94646234 515.50421941 251.90720802 518.40498647 250.61914062 521.30224609 C248.74224458 525.5604391 247.50706772 529.99966042 246.16748047 534.44970703 C244.28946521 540.52284262 242.19294603 546.51956484 240.1133728 552.52606201 C238.78063306 556.37673788 237.45564023 560.23007612 236.13085938 564.08349609 C235.86591171 564.85394257 235.60096405 565.62438904 235.32798767 566.41818237 C231.82328206 576.62337707 228.42599074 586.8640691 225.03320312 597.10693359 C224.0477111 600.07491345 223.05548188 603.04054471 222.06054688 606.00537109 C219.27206911 614.31931363 216.52815979 622.63413223 213.99023438 631.02880859 C212.88970307 634.58092995 211.71588426 638.10634952 210.52929688 641.63037109 C208.57365298 647.44931152 206.72920804 653.29255348 204.94335938 659.16552734 C203.70635915 663.17784859 202.37719396 667.15407469 201.02929688 671.13037109 C200.36929688 671.13037109 199.70929687 671.13037109 199.02929688 671.13037109 C199.09117187 672.67724609 199.09117187 672.67724609 199.15429688 674.25537109 C199.03354538 677.99866737 198.38057669 680.66771657 197.02929688 684.13037109 C196.03929688 684.13037109 195.04929687 684.13037109 194.02929688 684.13037109 C193.69929688 684.79037109 193.36929688 685.45037109 193.02929688 686.13037109 C193.17192099 684.56757489 193.31855199 683.00514414 193.46679688 681.44287109 C193.54800781 680.57275391 193.62921875 679.70263672 193.71289062 678.80615234 C194.02929688 676.13037109 194.02929688 676.13037109 194.53900146 673.76960754 C195.01765122 671.1930591 195.16887176 668.8438214 195.19042969 666.22680664 C195.204841 664.80328133 195.204841 664.80328133 195.21954346 663.35099792 C195.22379333 662.33330826 195.22804321 661.31561859 195.23242188 660.26708984 C195.23812195 659.20230911 195.24382202 658.13752838 195.24969482 657.04048157 C195.25913439 654.78358956 195.26567466 652.52668384 195.26953125 650.26977539 C195.2791544 646.86823293 195.31015366 643.46731661 195.34179688 640.06591797 C195.40052562 628.02403984 194.89825631 616.85142673 192.02929688 605.13037109 C191.84544434 604.28595459 191.6615918 603.44153809 191.47216797 602.5715332 C189.89960355 595.37415242 187.9986039 588.35555862 185.07226562 581.58349609 C184.33318429 579.84513252 183.65383592 578.08082001 183.01757812 576.30224609 C171.75062643 544.83384766 147.9054312 509.61353865 118.54101562 492.21630859 C118.04214844 491.85794922 117.54328125 491.49958984 117.02929688 491.13037109 C117.02929688 490.47037109 117.02929688 489.81037109 117.02929688 489.13037109 C116.44277344 489.01693359 115.85625 488.90349609 115.25195312 488.78662109 C112.85624701 488.07927728 111.43611275 487.14590725 109.46679688 485.63037109 C107.20029046 483.89389402 105.80457395 483.05546345 103.02929688 482.13037109 C103.02929688 481.47037109 103.02929688 480.81037109 103.02929688 480.13037109 C102.22878906 479.98535156 102.22878906 479.98535156 101.41210938 479.83740234 C97.19548032 478.58623864 93.52497044 476.1676639 89.70898438 474.01708984 C81.53694752 469.65539787 72.60055772 466.86611438 63.84179688 463.94287109 C62.80087891 463.58773438 61.75996094 463.23259766 60.6875 462.86669922 C55.43536474 461.10931809 50.52678019 459.76147914 45.02929688 459.13037109 C44.69929688 458.80037109 44.36929688 458.47037109 44.02929688 458.13037109 C21.43303318 453.88857896 -2.28779552 453.5562653 -24.97070312 457.13037109 C-26.46989972 457.26466395 -27.96985572 457.39099425 -29.47070312 457.50537109 C-36.42523221 458.25288286 -43.22998341 460.32421263 -49.97070312 462.13037109 C-50.90527344 462.37916016 -51.83984375 462.62794922 -52.80273438 462.88427734 C-73.29854189 468.67873019 -93.22169423 479.7282074 -110.07250977 492.57495117 C-114.77014333 496.13037109 -114.77014333 496.13037109 -116.97070312 496.13037109 C-116.97070312 496.79037109 -116.97070312 497.45037109 -116.97070312 498.13037109 C-122.4468936 503.13037109 -122.4468936 503.13037109 -124.97070312 503.13037109 C-124.97070312 503.79037109 -124.97070312 504.45037109 -124.97070312 505.13037109 C-125.63070312 505.13037109 -126.29070313 505.13037109 -126.97070312 505.13037109 C-126.97070312 505.79037109 -126.97070312 506.45037109 -126.97070312 507.13037109 C-127.63070312 507.13037109 -128.29070313 507.13037109 -128.97070312 507.13037109 C-128.97070312 507.79037109 -128.97070312 508.45037109 -128.97070312 509.13037109 C-130.34570312 510.75537109 -130.34570312 510.75537109 -131.97070312 512.13037109 C-132.63070313 512.13037109 -133.29070312 512.13037109 -133.97070312 512.13037109 C-133.97070312 512.79037109 -133.97070312 513.45037109 -133.97070312 514.13037109 C-134.63070313 514.13037109 -135.29070312 514.13037109 -135.97070312 514.13037109 C-135.97070312 514.79037109 -135.97070312 515.45037109 -135.97070312 516.13037109 C-136.63070313 516.13037109 -137.29070312 516.13037109 -137.97070312 516.13037109 C-138.3791748 517.01752808 -138.3791748 517.01752808 -138.79589844 517.92260742 C-139.94112842 520.07479253 -141.14507444 521.64687989 -142.76757812 523.45458984 C-155.41648752 537.87817956 -166.70240851 555.43276232 -173.03320312 573.63037109 C-174.12641218 576.7457823 -175.24412656 579.84295193 -176.43164062 582.92333984 C-181.78571593 597.15722206 -184.89456982 611.90303821 -185.72460938 627.06396484 C-185.97070312 630.13037109 -185.97070312 630.13037109 -186.4777832 631.96459961 C-187.08627455 634.63816412 -187.10042587 637.10718445 -187.10351562 639.84912109 C-187.10544922 641.49460937 -187.10544922 641.49460937 -187.10742188 643.17333984 C-187.10355469 644.31416016 -187.0996875 645.45498047 -187.09570312 646.63037109 C-187.09957031 647.77119141 -187.1034375 648.91201172 -187.10742188 650.08740234 C-187.10613281 651.18439453 -187.10484375 652.28138672 -187.10351562 653.41162109 C-187.1023877 654.41257812 -187.10125977 655.41353516 -187.10009766 656.44482422 C-186.98416995 658.85087095 -186.60734873 660.82299255 -185.97070312 663.13037109 C-185.81974506 665.27453465 -185.69805882 667.42083849 -185.59570312 669.56787109 C-185.11846776 676.68234908 -183.74750099 683.24234414 -181.97070312 690.13037109 C-181.64144317 691.50478955 -181.31473451 692.87982106 -180.99023438 694.25537109 C-180.65083612 695.67214456 -180.31099825 697.08881278 -179.97070312 698.50537109 C-179.74000122 699.48642822 -179.74000122 699.48642822 -179.50463867 700.48730469 C-178.41142354 704.93149876 -176.82324281 708.95355749 -174.97070312 713.13037109 C-174.43826887 714.70984112 -173.91687874 716.29309011 -173.40820312 717.88037109 C-166.62438659 736.70416737 -154.98045842 754.44460651 -142.03320312 769.56787109 C-139.97070312 772.13037109 -139.97070312 772.13037109 -139.97070312 774.13037109 C-139.31070312 774.13037109 -138.65070313 774.13037109 -137.97070312 774.13037109 C-136.49023437 775.63427734 -136.49023437 775.63427734 -134.78320312 777.69287109 C-118.93740014 796.1904207 -96.4693716 811.85061726 -73.97070312 821.13037109 C-73.08125 821.51837891 -72.19179687 821.90638672 -71.27539062 822.30615234 C-29.25545289 840.40273886 15.13270236 842.03323075 59.02929688 830.13037109 C60.26292969 829.80037109 61.4965625 829.47037109 62.76757812 829.13037109 C72.09517964 826.44938383 80.61911701 822.35681101 89.26367188 818.00146484 C89.98256592 817.63956055 90.70145996 817.27765625 91.44213867 816.90478516 C92.84721408 816.19434839 94.24984447 815.47904958 95.6496582 814.75830078 C98.7566846 813.17574813 101.62952665 811.88768351 105.02929688 811.13037109 C105.02929688 810.47037109 105.02929688 809.81037109 105.02929688 809.13037109 C106.42148438 808.38787109 106.42148438 808.38787109 107.84179688 807.63037109 C112.39866451 805.05312629 116.50334417 801.89205673 120.67382812 798.73974609 C123.02929688 797.13037109 123.02929688 797.13037109 125.02929688 797.13037109 C125.02929688 796.47037109 125.02929688 795.81037109 125.02929688 795.13037109 C126.70784818 793.6340793 128.44888585 792.20744449 130.21679688 790.81787109 C133.24598027 788.42939851 136.06457453 786.0943889 138.76757812 783.33740234 C141.02929688 781.13037109 141.02929688 781.13037109 143.02929688 781.13037109 C143.31804688 780.53224609 143.60679687 779.93412109 143.90429688 779.31787109 C145.02929688 777.13037109 145.02929688 777.13037109 147.02929688 774.13037109 C147.68929687 774.13037109 148.34929688 774.13037109 149.02929688 774.13037109 C149.27035156 773.57994141 149.51140625 773.02951172 149.75976562 772.46240234 C151.3174879 769.60098636 153.24428264 767.31021153 155.34179688 764.81787109 C161.68730598 757.57440855 161.68730598 757.57440855 166.02929688 749.13037109 C166.68929687 749.13037109 167.34929688 749.13037109 168.02929688 749.13037109 C168.12339844 748.59541016 168.2175 748.06044922 168.31445312 747.50927734 C169.2538507 744.38308541 170.79686924 741.86959999 172.46679688 739.06787109 C173.39298828 737.50359375 173.39298828 737.50359375 174.33789062 735.90771484 C175.52657112 733.95586304 176.76162951 732.03187214 178.02929688 730.13037109 C178.02929688 730.79037109 178.02929688 731.45037109 178.02929688 732.13037109 C178.68929687 732.13037109 179.34929688 732.13037109 180.02929688 732.13037109 C179.65360198 739.82895054 177.85163468 746.45729248 175.27929688 753.69287109 C174.54265489 755.83141447 173.80828501 757.97074182 173.07617188 760.11083984 C172.72103516 761.14515137 172.36589844 762.17946289 172 763.24511719 C170.7458912 766.97274743 169.61116845 770.72472856 168.52929688 774.50537109 C163.49698045 791.98100107 157.99968919 809.3126524 152.38717651 826.60925293 C149.14448843 836.60626818 146.00304268 846.63069756 142.93432617 856.68261719 C139.98625966 866.32227932 136.91350958 875.92004281 133.83007812 885.51708984 C130.85603039 894.77498778 127.9678419 904.05856547 125.12304688 913.35693359 C118.55160947 934.8209452 118.55160947 934.8209452 115.23242188 944.49365234 C113.40708469 950.01114883 111.73009191 955.57343653 110.02929688 961.13037109 C105.42445026 976.07442208 100.7706914 990.99983678 95.97949219 1005.88525391 C93.25970094 1014.3573093 90.64034131 1022.85829576 88.04003906 1031.36767578 C85.35312503 1040.13786907 82.57027668 1048.87530243 79.73046875 1057.59716797 C78.20116437 1062.32497588 76.75933528 1067.0493047 75.48632812 1071.85302734 C74.48587628 1075.59430726 73.31106755 1079.17805875 71.89990234 1082.7890625 C70.00511848 1087.88468147 68.40976763 1093.08819797 66.75024414 1098.2644043 C66.09862307 1100.29658258 65.44409864 1102.32780697 64.7890625 1104.35888672 C62.47621225 1111.54260146 60.20957795 1118.73918487 58.0012207 1125.95581055 C56.29795904 1131.51911409 54.56761227 1137.07403103 52.84179688 1142.63037109 C52.04359248 1145.20067512 51.24541061 1147.77098612 50.44726562 1150.34130859 C50.24540649 1150.99130829 50.04354736 1151.64130798 49.83557129 1152.31100464 C48.49842343 1156.61736792 47.16363111 1160.92445538 45.83007812 1165.23193359 C28.93095793 1219.80074279 28.93095793 1219.80074279 23.34570312 1236.15380859 C21.8486919 1240.59879856 20.4919005 1245.0864723 19.11987305 1249.57128906 C18.00292933 1253.21642125 16.87338183 1256.85743294 15.74023438 1260.49755859 C15.35609375 1261.73248047 14.97195313 1262.96740234 14.57617188 1264.23974609 C13.98625874 1266.13533364 13.39633535 1268.0309181 12.80566406 1269.92626953 C12.22061816 1271.80397005 11.63666514 1273.68201098 11.05273438 1275.56005859 C10.71161621 1276.65560059 10.37049805 1277.75114258 10.01904297 1278.87988281 C8.98175601 1282.28650308 7.99819295 1285.703761 7.02929688 1289.13037109 C6.36929688 1289.13037109 5.70929687 1289.13037109 5.02929688 1289.13037109 C5.02929688 1289.79037109 5.02929688 1290.45037109 5.02929688 1291.13037109 C22.84929688 1290.80037109 40.66929687 1290.47037109 59.02929688 1290.13037109 C59.02929688 1290.46037109 59.02929688 1290.79037109 59.02929688 1291.13037109 C54.18066805 1292.09428456 49.46488967 1292.27851629 44.53979492 1292.27563477 C43.70791153 1292.27899338 42.87602814 1292.28235199 42.01893616 1292.28581238 C39.27628062 1292.29528647 36.5336865 1292.29726445 33.79101562 1292.29833984 C31.86733475 1292.3015575 29.94365412 1292.30492195 28.01997375 1292.3084259 C23.98425735 1292.31441022 19.94856232 1292.31626678 15.9128418 1292.31567383 C10.78716435 1292.31557285 5.66162743 1292.32916147 0.53598309 1292.34644604 C-3.4424856 1292.35767322 -7.42092163 1292.3595897 -11.39940453 1292.3590641 C-13.28608873 1292.3602306 -15.17277416 1292.36457586 -17.05944252 1292.37239647 C-27.59526799 1292.41194331 -37.8322202 1292.02780354 -48.27775574 1290.59638977 C-51.91302369 1290.13764975 -55.49848647 1289.90601302 -59.15820312 1289.75537109 C-77.38394986 1288.72372505 -95.5951647 1285.87073613 -113.43554688 1282.06396484 C-118.02843686 1281.09043426 -122.64546811 1280.3536152 -127.28320312 1279.63037109 C-133.96106333 1278.5660984 -140.39714912 1277.06930667 -146.91210938 1275.23193359 C-150.89375846 1274.12194693 -154.9112518 1273.19690324 -158.93896484 1272.27050781 C-166.16570823 1270.60748156 -173.17092326 1268.91368425 -180.07617188 1266.16943359 C-184.9148201 1264.43248295 -189.89553202 1263.17676717 -194.86791992 1261.88037109 C-195.98614136 1261.58259766 -195.98614136 1261.58259766 -197.12695312 1261.27880859 C-197.79533203 1261.10526855 -198.46371094 1260.93172852 -199.15234375 1260.75292969 C-200.97070312 1260.13037109 -200.97070312 1260.13037109 -203.97070312 1258.13037109 C-205.66562001 1257.62467458 -207.37664255 1257.17166781 -209.09570312 1256.75537109 C-213.42624888 1255.62050839 -217.29379325 1254.19484666 -221.33398438 1252.29443359 C-224.78146066 1250.77243665 -228.30926665 1249.48949597 -231.84570312 1248.19287109 C-237.50155931 1246.1092036 -242.99922366 1243.84138687 -248.45898438 1241.27880859 C-250.95543836 1240.13735063 -253.4740739 1239.12228165 -256.03320312 1238.13037109 C-260.30991312 1236.45362924 -264.37627779 1234.49374371 -268.45117188 1232.37646484 C-270.37531141 1231.42483614 -272.33631381 1230.5473911 -274.31054688 1229.70458984 C-278.05574752 1228.09379384 -281.70628217 1226.33840437 -285.34570312 1224.50537109 C-286.02906738 1224.16199707 -286.71243164 1223.81862305 -287.41650391 1223.46484375 C-308.46922477 1212.83558868 -308.46922477 1212.83558868 -318.43530273 1206.67504883 C-321.09307023 1205.05581966 -323.78150812 1203.49970425 -326.47851562 1201.94677734 C-332.93436389 1198.18706472 -339.24513061 1194.22548161 -345.53320312 1190.19287109 C-346.57927734 1189.52835938 -347.62535156 1188.86384766 -348.703125 1188.17919922 C-355.64839874 1183.73439647 -362.33677299 1179.02447038 -368.97070312 1174.13037109 C-370.2295243 1173.23047064 -371.49085786 1172.33406284 -372.75585938 1171.44287109 C-378.94341038 1167.07830719 -384.97453889 1162.61691806 -390.83789062 1157.81787109 C-392.70579982 1156.33996491 -394.58500684 1155.0272534 -396.59570312 1153.75537109 C-397.37945313 1153.21912109 -398.16320313 1152.68287109 -398.97070312 1152.13037109 C-398.97070312 1151.47037109 -398.97070312 1150.81037109 -398.97070312 1150.13037109 C-399.89882812 1149.66630859 -399.89882812 1149.66630859 -400.84570312 1149.19287109 C-402.22070312 1148.50537109 -403.59570312 1147.81787109 -404.97070312 1147.13037109 C-404.97070312 1146.47037109 -404.97070312 1145.81037109 -404.97070312 1145.13037109 C-405.504375 1144.90478516 -406.03804687 1144.67919922 -406.58789062 1144.44677734 C-409.75196531 1142.69875576 -412.37283275 1140.4190035 -415.09570312 1138.06787109 C-415.66466309 1137.5819751 -416.23362305 1137.0960791 -416.81982422 1136.59545898 C-421.26863735 1132.77978929 -425.63092111 1128.87272899 -429.94726562 1124.90771484 C-432.04871103 1122.98278104 -432.04871103 1122.98278104 -434.97070312 1121.13037109 C-434.97070312 1120.47037109 -434.97070312 1119.81037109 -434.97070312 1119.13037109 C-435.86713531 1118.72093262 -435.86713531 1118.72093262 -436.78167725 1118.30322266 C-438.90910903 1117.16337241 -440.29610785 1116.05822166 -441.99511719 1114.36474609 C-442.55539612 1113.81077148 -443.11567505 1113.25679687 -443.69293213 1112.68603516 C-444.28475281 1112.09016602 -444.87657349 1111.49429687 -445.48632812 1110.88037109 C-446.10215759 1110.26645508 -446.71798706 1109.65253906 -447.35247803 1109.02001953 C-448.64922959 1107.72462626 -449.9434697 1106.42671466 -451.23535156 1105.12646484 C-453.22045514 1103.13062042 -455.21603903 1101.14570384 -457.21289062 1099.16162109 C-458.47134524 1097.90184554 -459.72917967 1096.64145008 -460.98632812 1095.38037109 C-461.58624573 1094.78450195 -462.18616333 1094.18863281 -462.80426025 1093.57470703 C-466.97070312 1089.36030356 -466.97070312 1089.36030356 -466.97070312 1087.13037109 C-467.51339844 1086.93443359 -468.05609375 1086.73849609 -468.61523438 1086.53662109 C-471.98762709 1084.52325231 -474.19286341 1081.62571741 -476.65820312 1078.63037109 C-477.72223704 1077.36124386 -478.78735058 1076.09302104 -479.85351562 1074.82568359 C-480.37848633 1074.19952148 -480.90345703 1073.57335938 -481.44433594 1072.92822266 C-484.2568547 1069.61546064 -487.19508014 1066.41997085 -490.13085938 1063.21630859 C-494.97070312 1057.72909721 -494.97070312 1057.72909721 -494.97070312 1055.13037109 C-495.63070313 1055.13037109 -496.29070312 1055.13037109 -496.97070312 1055.13037109 C-498.55506424 1053.26874679 -500.01954484 1051.40491471 -501.47070312 1049.44287109 C-502.38051566 1048.23297714 -503.29068107 1047.02334846 -504.20117188 1045.81396484 C-504.66442871 1045.19505371 -505.12768555 1044.57614258 -505.60498047 1043.93847656 C-507.62541584 1041.26358483 -509.7111425 1038.64038108 -511.78320312 1036.00537109 C-516.55338029 1029.86560524 -520.9173495 1023.46213609 -525.27441406 1017.02539062 C-528.28408972 1012.58086959 -531.34120286 1008.19581279 -534.53320312 1003.88037109 C-536.86162139 1000.71449678 -538.98678566 997.56852904 -540.86523438 994.10693359 C-542.3812603 991.39630067 -544.02316606 988.77084352 -545.65820312 986.13037109 C-552.35995506 975.27278416 -558.99208641 964.4075723 -564.97070312 953.13037109 C-565.72846857 951.7188875 -566.48628546 950.30743152 -567.24414062 948.89599609 C-576.08412389 932.35321606 -583.98428194 915.50987484 -591.12890625 898.16943359 C-592.22899067 895.50472793 -593.35132816 892.84952102 -594.47070312 890.19287109 C-595.30550732 888.17264493 -596.13866368 886.15173751 -596.97070312 884.13037109 C-597.38739258 883.13408691 -597.38739258 883.13408691 -597.8125 882.11767578 C-606.57933988 861.10876879 -613.5703233 839.57515901 -619.3112793 817.55517578 C-620.00500552 815.00423583 -620.76778884 812.48128565 -621.54492188 809.95458984 C-622.74593931 806.00040568 -623.66211634 802.0740928 -624.40820312 798.00537109 C-625.45602631 792.52786152 -626.69020241 787.1511722 -628.09570312 781.75537109 C-629.53640529 776.20826832 -630.47846186 770.84036974 -630.97070312 765.13037109 C-631.30070312 764.47037109 -631.63070313 763.81037109 -631.97070312 763.13037109 C-632.29517325 761.42187311 -632.57729118 759.7052392 -632.83789062 757.98583984 C-632.9998291 756.92751953 -633.16176758 755.86919922 -633.32861328 754.77880859 C-633.58457275 753.06564453 -633.58457275 753.06564453 -633.84570312 751.31787109 C-634.02278809 750.14095703 -634.19987305 748.96404297 -634.38232422 747.75146484 C-634.74341406 745.34463338 -635.10295122 742.93756847 -635.4609375 740.53027344 C-635.90508072 737.56804239 -636.36391291 734.60872589 -636.83007812 731.64990234 C-640.47432512 708.08444912 -641.32313056 684.40990242 -641.62988281 660.59790039 C-641.66765207 657.89056115 -641.71657518 655.18346701 -641.76516724 652.47630405 C-642.06113784 635.65859739 -641.90101233 618.92654789 -640.97070312 602.13037109 C-640.93226288 601.42151764 -640.89382263 600.71266418 -640.85421753 599.98233032 C-640.64636905 596.25685342 -640.39022232 592.53743456 -640.09570312 588.81787109 C-640.01255859 587.75012451 -639.92941406 586.68237793 -639.84375 585.58227539 C-639.08357011 576.41978338 -637.80074617 567.38755757 -636.31445312 558.31884766 C-635.79212828 554.99347838 -635.38567021 551.65835615 -634.97070312 548.31787109 C-634.14747766 541.9603568 -632.93019327 535.751621 -631.61914062 529.48193359 C-631.10687901 526.83421997 -630.74406427 524.31131994 -630.53320312 521.63037109 C-630.10429182 516.95611317 -628.8098758 512.55899252 -627.54858398 508.04907227 C-626.34799901 503.70626848 -625.40673209 499.37939262 -624.59570312 494.94287109 C-622.92458676 486.23114971 -620.28615753 477.85995413 -617.66113281 469.39599609 C-616.76903404 466.46859985 -615.96276551 463.52039362 -615.15820312 460.56787109 C-613.1558612 453.50078194 -610.84637612 446.53859169 -608.53320312 439.56787109 C-608.16155029 438.44372803 -607.78989746 437.31958496 -607.40698242 436.16137695 C-605.14058709 429.3868955 -602.70554991 422.70228607 -600.09936523 416.05102539 C-599.00481689 413.21864774 -597.97641731 410.37032791 -596.97070312 407.50537109 C-595.31109683 402.90494245 -593.37558141 398.4914093 -591.31054688 394.06005859 C-589.85671363 390.88112292 -588.50731279 387.66757224 -587.15820312 384.44287109 C-584.67613258 378.61540113 -581.94933926 372.96070385 -579.07739258 367.31665039 C-576.55373143 362.34540333 -574.18191907 357.31698566 -571.84570312 352.25537109 C-569.30167384 346.77464713 -566.59149036 341.54397523 -563.38085938 336.41552734 C-561.92114022 334.05005448 -560.59602681 331.64272727 -559.28320312 329.19287109 C-556.32758962 323.73877897 -553.29199341 318.33245482 -550.22070312 312.94287109 C-549.73641846 312.07992432 -549.25213379 311.21697754 -548.75317383 310.32788086 C-548.29386475 309.52664795 -547.83455566 308.72541504 -547.36132812 307.89990234 C-546.94915039 307.17391846 -546.53697266 306.44793457 -546.11230469 305.69995117 C-545.73557617 305.18198975 -545.35884766 304.66402832 -544.97070312 304.13037109 C-544.31070312 304.13037109 -543.65070313 304.13037109 -542.97070312 304.13037109 C-542.865 303.56833984 -542.75929688 303.00630859 -542.65039062 302.42724609 C-537.23683005 284.13314483 -517.74998432 264.53537896 -506.12304688 249.78662109 C-503.50313135 246.44914908 -500.93087541 243.15364292 -498.65820312 239.56787109 C-498.10132813 238.76349609 -497.54445313 237.95912109 -496.97070312 237.13037109 C-496.31070312 237.13037109 -495.65070313 237.13037109 -494.97070312 237.13037109 C-494.66132812 236.51162109 -494.35195312 235.89287109 -494.03320312 235.25537109 C-493.34570312 233.88037109 -492.65820312 232.50537109 -491.97070312 231.13037109 C-491.31070312 231.13037109 -490.65070313 231.13037109 -489.97070312 231.13037109 C-489.72320313 230.57865234 -489.47570313 230.02693359 -489.22070312 229.45849609 C-487.72835839 226.67900402 -485.93397789 224.3489004 -483.97070312 221.88037109 C-483.26945312 220.98833984 -482.56820313 220.09630859 -481.84570312 219.17724609 C-480.91757813 218.16404297 -480.91757813 218.16404297 -479.97070312 217.13037109 C-479.31070312 217.13037109 -478.65070313 217.13037109 -477.97070312 217.13037109 C-477.73738281 216.56833984 -477.5040625 216.00630859 -477.26367188 215.42724609 C-475.65133236 212.56302968 -473.65134692 210.65785089 -471.28320312 208.38037109 C-468.28666047 205.49101426 -465.44030079 202.55439579 -462.72851562 199.39990234 C-458.54639306 194.57048564 -454.05962306 190.07271952 -449.53320312 185.56787109 C-448.72560547 184.75640625 -447.91800781 183.94494141 -447.0859375 183.10888672 C-442.74187414 178.77182427 -438.31574148 174.60794394 -433.66088867 170.60668945 C-431.08590659 168.35753206 -428.76181107 165.89770624 -426.41601562 163.41552734 C-424.97070312 162.13037109 -424.97070312 162.13037109 -422.97070312 162.13037109 C-422.97070312 161.47037109 -422.97070312 160.81037109 -422.97070312 160.13037109 C-420.96396571 158.42860897 -418.94595238 156.83476073 -416.84570312 155.25537109 C-411.84594962 151.42360059 -407.01031593 147.48026187 -402.28320312 143.31787109 C-394.65027081 136.64715618 -386.47289956 130.75281661 -378.25732422 124.82714844 C-375.0633265 122.45705617 -371.98275455 119.95053009 -368.90942383 117.42651367 C-366.97070312 116.13037109 -366.97070312 116.13037109 -363.97070312 116.13037109 C-363.97070312 115.47037109 -363.97070312 114.81037109 -363.97070312 114.13037109 C-362.58129883 113.04882812 -362.58129883 113.04882812 -360.64648438 111.88818359 C-359.94716797 111.46150391 -359.24785156 111.03482422 -358.52734375 110.59521484 C-357.78677734 110.15306641 -357.04621094 109.71091797 -356.28320312 109.25537109 C-351.60258966 106.43612759 -347.19569609 103.61694186 -342.97070312 100.13037109 C-341.38078302 99.2029177 -339.78824483 98.27940289 -338.17773438 97.38818359 C-335.2947247 95.74512321 -332.48083803 94.00003145 -329.65820312 92.25537109 C-328.51763279 91.55215743 -327.37700802 90.84903204 -326.23632812 90.14599609 C-324.26597252 88.92984359 -322.29684139 87.7116996 -320.33007812 86.48974609 C-314.98576284 83.21419801 -309.5180671 80.37661 -303.88867188 77.62255859 C-301.2574745 76.27701991 -298.78384546 74.826233 -296.28320312 73.25537109 C-289.84714714 69.30503545 -282.9802147 66.26862079 -276.12695312 63.12402344 C-274.09023767 62.18545551 -272.06048245 61.23365362 -270.03320312 60.27490234 C-257.55007208 54.37601417 -244.8713094 49.00055634 -232.02587891 43.94091797 C-230.58851576 43.37403205 -229.15206466 42.80483065 -227.71630859 42.23388672 C-211.87535609 35.935796 -211.87535609 35.935796 -204.21289062 33.79443359 C-201.80753881 33.08204717 -199.50059843 32.21542443 -197.15820312 31.31787109 C-189.1434333 28.35195345 -180.88060663 26.17128303 -172.65429688 23.87841797 C-170.11266723 23.16994333 -167.57274587 22.45565919 -165.03320312 21.73974609 C-153.56944233 18.51709321 -142.15872861 15.44916625 -130.43041992 13.32299805 C-126.76015464 12.65750334 -123.10170018 11.95992637 -119.45117188 11.19287109 C-101.94527203 7.52455482 -84.14153221 4.27216145 -66.25585938 3.34130859 C-63.06180646 3.13622077 -59.91244618 2.7986008 -56.7361908 2.41540527 C-37.85761923 0.16438418 -18.99670082 -0.03200585 0 0 Z " fill="#01B0F3" transform="translate(1910.970703125,452.86962890625)"/>
<path d="M0 0 C2.32694964 0.37531446 4.65976685 0.71917202 7 1 C7 1.33 7 1.66 7 2 C1.75088587 2.09259738 -3.10618266 1.77851474 -8.3125 1 C-25.75593543 -1.29041106 -43.65338253 -0.73781385 -61 2 C-62.60323894 2.15570151 -64.20734032 2.30303636 -65.8125 2.4375 C-70.20939155 2.88564472 -74.31365326 4.15350131 -78.51953125 5.4765625 C-81.11296688 6.02383868 -82.52687679 5.86472839 -85 5 C-84.01 5 -83.02 5 -82 5 C-82 4.34 -82 3.68 -82 3 C-75.87566539 1.21373574 -69.78439584 0.39829949 -63.4609375 -0.30224609 C-59.60756218 -0.6929488 -59.60756218 -0.6929488 -56 -2 C-39.08780348 -4.70728838 -16.22963948 -5.64509199 0 0 Z " fill="#97E3FC" transform="translate(1947,908)"/>
<path d="M0 0 C0.33 0 0.66 0 1 0 C0.99777939 1.05378342 0.99555878 2.10756683 0.99327087 3.19328308 C0.97299749 13.12512163 0.9580076 23.05695599 0.94818783 32.98881054 C0.94296969 38.09484406 0.93589139 43.20086086 0.92456055 48.30688477 C0.91369376 53.23463925 0.9077151 58.16237766 0.90512276 63.0901432 C0.90327536 64.9699968 0.89966788 66.84984952 0.89426994 68.72969627 C0.88700925 71.36302973 0.88601119 73.99629681 0.88647461 76.62963867 C0.88287933 77.40647507 0.87928406 78.18331146 0.87557983 78.98368835 C0.88283223 82.79318792 1.13664169 86.29054772 2 90 C2.04436204 91.79111738 2.03925998 93.58376353 2 95.375 C1.90549349 105.59351643 2.50830651 115.79605249 3 126 C1.26560443 122.95392014 0.6682027 120.51485926 0.39135742 117.03149414 C0.31097733 116.03452011 0.23059723 115.03754608 0.14778137 114.01036072 C0.07194321 112.92541824 -0.00389496 111.84047577 -0.08203125 110.72265625 C-0.16540237 109.57805435 -0.2487735 108.43345245 -0.33467102 107.25416565 C-1.25410637 93.67145542 -1.48387035 80.07612141 -1.65917969 66.4675293 C-1.69694857 63.76021709 -1.74587123 61.05314997 -1.7944622 58.34601402 C-2.50634986 17.89552277 -2.50634986 17.89552277 0 0 Z " fill="#8EDEFA" transform="translate(1271,1047)"/>
<path d="M0 0 C4.87789252 -0.17223328 8.78589437 0.29811829 13.4375 1.75 C18.33220641 3.22455591 23.21483179 4.56502375 28.1875 5.75 C35.81507626 7.60627284 43.34425813 9.78684247 50.875 12 C52.01606201 12.33225586 53.15712402 12.66451172 54.33276367 13.00683594 C61.04911872 14.99984289 67.55242842 17.2568182 74 20 C70.68022072 21.65988964 67.39122192 20.02873046 64 19 C61.95890538 18.27186757 59.93902452 17.50058976 57.91796875 16.71875 C54.02981614 15.26168263 50.03381119 14.24768393 46 13.28125 C44.9275 13.0234375 43.855 12.765625 42.75 12.5 C41.73421875 12.2628125 40.7184375 12.025625 39.671875 11.78125 C37 11 37 11 34 9 C31.9507906 8.54860541 31.9507906 8.54860541 29.8125 8.375 C28.554375 8.25125 27.29625 8.1275 26 8 C26 7.34 26 6.68 26 6 C24.1128125 6.12375 24.1128125 6.12375 22.1875 6.25 C17.14018451 6.2738832 13.17863174 4.80423495 8.53125 2.95703125 C5.71219683 1.89118553 2.99455812 1.32373601 0 1 C0 0.67 0 0.34 0 0 Z " fill="#9AE4FC" transform="translate(2053,468)"/>
<path d="M0 0 C4.92101165 4.92101165 3.1840194 14.92529895 3.1875 21.4375 C3.19974609 22.63955078 3.21199219 23.84160156 3.22460938 25.08007812 C3.2345721 31.1008842 3.11157976 36.33295394 1 42 C0.67 42 0.34 42 0 42 C0 28.14 0 14.28 0 0 Z " fill="#78DCFE" transform="translate(2107,1078)"/>
<path d="M0 0 C0 3 0 3 -1.21484375 4.5756073 C-1.78332031 5.13742203 -2.35179688 5.69923676 -2.9375 6.27807617 C-3.89849609 7.23873238 -3.89849609 7.23873238 -4.87890625 8.21879578 C-5.57886719 8.90327286 -6.27882813 9.58774994 -7 10.29296875 C-7.71027344 10.99899734 -8.42054688 11.70502594 -9.15234375 12.43244934 C-11.42796996 14.69125019 -13.71379365 16.93941307 -16 19.1875 C-17.54234842 20.71480664 -19.08402406 22.242793 -20.625 23.77148438 C-24.40888829 27.52225221 -28.20120662 31.26433217 -32 35 C-32.66 34.67 -33.32 34.34 -34 34 C-33.35933594 33.3709375 -32.71867187 32.741875 -32.05859375 32.09375 C-28.04254765 28.11960005 -24.05704749 24.16360288 -20.375 19.875 C-16.81000745 15.72572126 -13.14379705 11.5817648 -9 8 C-8.34 8 -7.68 8 -7 8 C-7 7.34 -7 6.68 -7 6 C-5.46875 4.4921875 -5.46875 4.4921875 -3.5 2.875 C-2.8503125 2.33617187 -2.200625 1.79734375 -1.53125 1.2421875 C-1.0259375 0.83226562 -0.520625 0.42234375 0 0 Z " fill="#37ACDF" transform="translate(2380,563)"/>
<path d="M0 0 C6.20389659 -0.1233379 12.00656727 0.25996841 18.125 1.25 C19.38751587 1.44807251 19.38751587 1.44807251 20.67553711 1.65014648 C23.45194497 2.09076964 26.2259788 2.5446056 29 3 C30.02851074 3.16580566 31.05702148 3.33161133 32.11669922 3.50244141 C35.2669852 4.01279063 38.41498533 4.53534962 41.5625 5.0625 C42.55588379 5.22459961 43.54926758 5.38669922 44.57275391 5.55371094 C45.49878418 5.71258789 46.42481445 5.87146484 47.37890625 6.03515625 C48.1994751 6.1731665 49.02004395 6.31117676 49.86547852 6.45336914 C52 7 52 7 55 9 C50.05 8.67 45.1 8.34 40 8 C40 7.34 40 6.68 40 6 C30.57633001 4.78518397 21.21369745 3.74679257 11.71118164 3.42993164 C7.48259534 3.24809573 3.94774279 2.52261308 0 1 C0 0.67 0 0.34 0 0 Z " fill="#AFECFC" transform="translate(1988,457)"/>
<path d="M0 0 C0 0.33 0 0.66 0 1 C-5.94 1.495 -5.94 1.495 -12 2 C-12 2.66 -12 3.32 -12 4 C-17.47218766 5.09020373 -22.86673966 6.04770919 -28.4375 6.4375 C-33.57198479 6.83529366 -38.32404338 7.98480467 -43.2734375 9.37890625 C-45.95051918 9.98872858 -48.26582814 10.1143381 -51 10 C-42.16709298 5.17250252 -31.03391863 4.12575704 -21.25 2.3125 C-20.08339844 2.08755859 -18.91679688 1.86261719 -17.71484375 1.63085938 C-11.70807692 0.51181844 -6.11022272 -0.27842148 0 0 Z " fill="#A9EAFC" transform="translate(1815,461)"/>
<path d="M0 0 C1.1300345 3.47434905 0.92326916 6.29321213 0.51171875 9.90234375 C0.38216797 11.03994141 0.25261719 12.17753906 0.11914062 13.34960938 C-0.02330078 14.53361328 -0.16574219 15.71761719 -0.3125 16.9375 C-0.44333984 18.11763672 -0.57417969 19.29777344 -0.70898438 20.51367188 C-1.31826718 25.71465115 -1.96048726 30.15853025 -4 35 C-4.2759478 36.92903132 -4.48449903 38.8689032 -4.625 40.8125 C-4.73714844 42.27623047 -4.73714844 42.27623047 -4.8515625 43.76953125 C-4.90054687 44.50558594 -4.94953125 45.24164062 -5 46 C-5.33 46 -5.66 46 -6 46 C-6.83555761 30.49576443 -3.18103949 15.09301715 0 0 Z " fill="#A3E6FC" transform="translate(1280,979)"/>
<path d="M0 0 C0 0.33 0 0.66 0 1 C-1.74384384 1.22038763 -3.48771134 1.44058955 -5.23168945 1.65991211 C-6.71080363 1.84604967 -8.18980677 2.03307152 -9.66870117 2.22094727 C-13.3806176 2.68877398 -17.08519372 3.10982472 -20.8125 3.4375 C-25.20939155 3.88564472 -29.31365326 5.15350131 -33.51953125 6.4765625 C-36.11296688 7.02383868 -37.52687679 6.86472839 -40 6 C-39.01 6 -38.02 6 -37 6 C-37 5.34 -37 4.68 -37 4 C-24.98064667 0.49435528 -12.46348268 -0.38414844 0 0 Z " fill="#B3ECFC" transform="translate(1902,907)"/>
<path d="M0 0 C1.24964981 3.74894943 0.75598428 6.15135277 0 10 C-0.99 11.485 -0.99 11.485 -2 13 C-2.38193326 15.11171939 -2.38193326 15.11171939 -2.5 17.375 C-2.81749863 20.91366655 -3.43571139 23.76713688 -5 27 C-5.33 27 -5.66 27 -6 27 C-6.41493789 20.69813084 -4.90979874 15.53707309 -3 9.5625 C-2.57074219 8.17901367 -2.57074219 8.17901367 -2.1328125 6.76757812 C-1.43060845 4.50882178 -0.71952111 2.25328753 0 0 Z " fill="#B3EBFD" transform="translate(1294,920)"/>
<path d="M0 0 C0.66 0 1.32 0 2 0 C0.68663064 6.45739933 -1.07193985 12.6711369 -3.046875 18.95703125 C-4.09090059 22.29021131 -5.06120774 25.63599439 -6 29 C-7.13732426 25.59598052 -6.83989957 23.22543336 -6.0625 19.75 C-5.77052734 18.41195313 -5.77052734 18.41195313 -5.47265625 17.046875 C-5.31667969 16.37140625 -5.16070313 15.6959375 -5 15 C-4.34 15 -3.68 15 -3 15 C-2.814375 13.515 -2.814375 13.515 -2.625 12 C-2.04805273 7.91119976 -1.05036346 3.99138113 0 0 Z " fill="#AAEAFC" transform="translate(1734,1029)"/>
<path d="M0 0 C4.37204556 3.5934621 4.35454368 8.66571157 5 14 C5.1259018 16.36776606 5.1054138 18.62818943 5 21 C4.67 21 4.34 21 4 21 C3.32595716 18.43923903 2.660586 15.87673417 2 13.3125 C1.71382812 12.2306543 1.71382812 12.2306543 1.421875 11.12695312 C0.45134572 7.33149039 -0.24955239 3.95384561 0 0 Z " fill="#A1E6FC" transform="translate(2100,1043)"/>
<path d="M0 0 C1 2 1 2 0.25 5.3125 C-0.87830504 8.64099986 -2.18756751 11.02761071 -4 14 C-5.08808213 16.64107207 -6.04164167 19.30746945 -7 22 C-8.32256051 18.03231848 -7.29090379 16.52647582 -5.75 12.6875 C-5.09257813 11.02267578 -5.09257813 11.02267578 -4.421875 9.32421875 C-3.06280598 6.14683487 -1.58036656 3.07241852 0 0 Z " fill="#ABE9FB" transform="translate(1319,849)"/>
<path d="M0 0 C-2.98796724 1.99197816 -5.48014588 2.9492249 -8.875 4.0625 C-9.90367188 4.40410156 -10.93234375 4.74570312 -11.9921875 5.09765625 C-14.65568891 5.89670667 -17.26509169 6.51054224 -20 7 C-19.01 6.67 -18.02 6.34 -17 6 C-17 5.34 -17 4.68 -17 4 C-11.46691215 1.6526294 -6.08266759 -0.36864652 0 0 Z " fill="#9FE6FC" transform="translate(1861,914)"/>
<path d="M0 0 C0.33 0 0.66 0 1 0 C1.19477739 1.62414378 1.38059458 3.24936423 1.5625 4.875 C1.66691406 5.77992187 1.77132812 6.68484375 1.87890625 7.6171875 C2 10 2 10 1 12 C0.34 12 -0.32 12 -1 12 C-1.33 12.99 -1.66 13.98 -2 15 C-1.03644647 4.44191344 -1.03644647 4.44191344 0 0 Z " fill="#75D5F8" transform="translate(2106,1124)"/>
<path d="M0 0 C9.41002278 -0.3690205 9.41002278 -0.3690205 14 2 C14 2.33 14 2.66 14 3 C8.78020872 3.1799928 4.92737019 2.97094808 0 1 C0 0.67 0 0.34 0 0 Z " fill="#83DEFC" transform="translate(1988,457)"/>
<path d="M0 0 C6.19518473 0.41588046 11.26689311 1.60251894 17 4 C17 4.33 17 4.66 17 5 C10.80138093 5.67012098 5.64376389 3.24947173 0 1 C0 0.67 0 0.34 0 0 Z " fill="#A3E8FD" transform="translate(1728,1717)"/>
<path d="M0 0 C0.33 0 0.66 0 1 0 C-0.53488372 12.53488372 -0.53488372 12.53488372 -4 16 C-3.27275406 10.47293087 -1.66554027 5.30039859 0 0 Z " fill="#A4E7FC" transform="translate(1306,881)"/>
<path d="M0 0 C0.33 0 0.66 0 1 0 C1.19622241 4.21878192 0.80230168 7.17010894 -1 11 C-1.33 11 -1.66 11 -2 11 C-2.28571429 3.57142857 -2.28571429 3.57142857 0 0 Z " fill="#93E0FB" transform="translate(1290,936)"/>
<path d="M0 0 C2.12046792 3.53411321 2.53199289 6.94393835 3 11 C1 10 1 10 0 7 C-0.03954234 4.66700175 -0.04401732 2.33291811 0 0 Z " fill="#A7E7FC" transform="translate(1729,1147)"/>
</svg>
