<?xml version="1.0" encoding="UTF-8"?>
<svg version="1.1" xmlns="http://www.w3.org/2000/svg" width="1200" height="1200">
<path d="M0 0 C396 0 792 0 1200 0 C1200 396 1200 792 1200 1200 C804 1200 408 1200 0 1200 C0 804 0 408 0 0 Z " fill="#FEFEFE" transform="translate(0,0)"/>
<path d="M0 0 C3.87012812 3.41374509 6.25493326 6.8123605 8.625 11.375 C8.95854492 12.0136499 9.29208984 12.6522998 9.63574219 13.31030273 C12.6523942 19.15797718 15.44101339 25.11323599 18.25 31.0625 C22.30057515 39.64068374 26.63197113 47.99699908 31.22851562 56.29370117 C40.97418375 73.92879415 50.06548567 91.94268755 59 110 C63.75479305 119.59562716 68.52828631 129.17238181 73.5625 138.625 C78.37431534 147.66755531 82.93615133 156.83078728 87.5 166 C94.12119883 179.31595019 94.12119883 179.31595019 101 192.5 C106.07167986 201.98493111 110.83492316 211.62311674 115.62017822 221.25463867 C120.27282449 230.61873161 124.94299752 239.96309406 130.04492188 249.09375 C134.20484112 256.73163451 136.58215391 264.58546739 136.5 273.3125 C136.49427979 274.03888672 136.48855957 274.76527344 136.48266602 275.51367188 C135.99516957 290.47012839 127.76933166 300.64800906 117.40625 310.56640625 C115.49571413 312.49865275 113.74759982 314.44389868 111.98828125 316.5078125 C106.87068399 322.41183268 101.24327257 327.82618493 95.6875 333.3125 C93.52183822 335.45152309 91.35955569 337.59388197 89.19921875 339.73828125 C88.70653 340.22267166 88.21384125 340.70706207 87.70622253 341.20613098 C85.51084625 343.38566507 83.72532842 345.41200737 82 348 C81.34 348 80.68 348 80 348 C80 348.66 80 349.32 80 350 C79.34 350 78.68 350 78 350 C77.67 350.99 77.34 351.98 77 353 C76.34 353 75.68 353 75 353 C74.72729782 353.59834656 74.45459564 354.19669312 74.17362976 354.81317139 C73.0299039 356.94427996 71.93403106 358.30322739 70.22192383 359.98925781 C69.66406693 360.54373596 69.10621002 361.09821411 68.53144836 361.66949463 C67.92939072 362.25809265 67.32733307 362.84669067 66.70703125 363.453125 C65.77065071 364.38170319 65.77065071 364.38170319 64.81535339 365.32904053 C62.8191003 367.30751147 60.816312 369.27918743 58.8125 371.25 C56.82736234 373.20732784 54.8437716 375.16615943 52.86320496 377.12811279 C51.63274322 378.34652827 50.39962165 379.56226621 49.1632843 380.77471924 C46.16664941 383.737236 43.30245102 386.75748941 40.5480957 389.94750977 C36.96623093 394.09259253 33.16078101 397.96682013 29.2734375 401.82421875 C28.56273102 402.53351028 27.85202454 403.24280182 27.11978149 403.97358704 C24.87388523 406.21394485 22.62452373 408.45078512 20.375 410.6875 C18.85914163 412.1983336 17.34351466 413.7093994 15.828125 415.22070312 C8.32705656 422.69985309 8.32705656 422.69985309 5.66052246 425.33139038 C4.18361453 426.81549122 2.75924786 428.35146436 1.34326172 429.89379883 C-2.08639805 432.97649052 -4.35663543 433.20209406 -8.86523438 432.984375 C-15.98546111 430.74849072 -20.8036469 424.32316609 -25.75 419 C-26.93885127 417.76446354 -28.13024184 416.53136518 -29.32421875 415.30078125 C-33.79945297 410.65862879 -38.18259329 405.9604311 -42.39550781 401.078125 C-46.04514684 396.88697679 -49.92280803 392.96685698 -53.875 389.0625 C-54.60315918 388.33812744 -55.33131836 387.61375488 -56.08154297 386.86743164 C-58.38525646 384.57581697 -60.69219474 382.28749348 -63 380 C-66.04464779 376.98214919 -69.08582967 373.96086584 -72.125 370.9375 C-73.15343018 369.92151733 -73.15343018 369.92151733 -74.20263672 368.88500977 C-78.05370322 365.05328824 -81.68272738 361.10613951 -85.23095703 356.99389648 C-88.29809226 353.53691423 -91.58845222 350.30926935 -94.875 347.0625 C-95.96723877 345.97594116 -95.96723877 345.97594116 -97.08154297 344.86743164 C-99.38525646 342.57581697 -101.69219474 340.28749348 -104 338 C-107.04464779 334.98214919 -110.08582967 331.96086584 -113.125 328.9375 C-113.81062012 328.26017822 -114.49624023 327.58285645 -115.20263672 326.88500977 C-119.12427844 322.98306754 -122.84998177 318.97644712 -126.44309998 314.76925659 C-128.3792474 312.56902438 -130.45494796 310.5558059 -132.57836914 308.53881836 C-143.24322834 298.37921981 -148.98515998 287.9300973 -149.375 272.9375 C-149.44993915 262.43352975 -145.03816418 253.49397089 -140.37109375 244.31640625 C-139.82195816 243.22142319 -139.27282257 242.12644012 -138.70704651 240.99827576 C-136.9580157 237.51585909 -135.19776092 234.0392511 -133.4375 230.5625 C-132.28250626 228.26402192 -131.12820361 225.96519643 -129.97460938 223.66601562 C-124.52891824 212.83368757 -119.01238156 202.04420558 -113.33641052 191.33070374 C-109.95213485 184.93754875 -106.70353853 178.4858696 -103.5 172 C-99.8335359 164.61998354 -96.13001671 157.27006544 -92.25 150 C-87.496285 141.08478364 -83.0016329 132.04410577 -78.5 123 C-73.72972575 113.41628624 -68.93498154 103.85910583 -63.88671875 94.41796875 C-59.60506085 86.35585037 -55.56777003 78.17133653 -51.5 70 C-46.70189158 60.36463338 -41.90313595 50.73766954 -36.83178711 41.2421875 C-34.14940993 36.21280135 -31.53562544 31.15143054 -28.9453125 26.07421875 C-28.21630036 24.64864423 -27.48721457 23.22310738 -26.75805664 21.79760742 C-25.66560454 19.6616217 -24.57505511 17.52477883 -23.49069214 15.38467407 C-22.47939049 13.38920419 -21.46106392 11.3974599 -20.44140625 9.40625 C-19.85045166 8.24416016 -19.25949707 7.08207031 -18.65063477 5.88476562 C-16.36535191 1.89084428 -15.02175697 0.41263262 -10.75 -1.3125 C-6.34424784 -2.12022123 -4.10627226 -1.74896781 0 0 Z " fill="#C231B4" transform="translate(607,310)"/>
<path d="M0 0 C1.82591248 1.20289612 1.82591248 1.20289612 3.60717773 2.85375977 C4.64501907 3.81126633 4.64501907 3.81126633 5.7038269 4.78811646 C10.19439516 9.11384174 14.63151013 13.48856656 19.03515625 17.90234375 C20.08297946 18.94949136 21.1309509 19.99649066 22.17906189 21.04335022 C24.36326988 23.22609326 26.54568332 25.41061025 28.72680664 27.59643555 C31.50253881 30.37786424 34.28273782 33.15477776 37.06430912 35.93036556 C39.22559203 38.08801021 41.38445714 40.24806147 43.54263115 42.40881538 C44.56601321 43.4328577 45.59011961 44.45617674 46.6150074 45.47871208 C55.55650608 54.40417985 55.55650608 54.40417985 59.51147461 59.01586914 C63.51415794 63.6808151 67.86714274 67.97984198 72.23036194 72.30552673 C73.75593977 73.81812332 75.27818086 75.33401202 76.79968262 76.85070801 C80.03028953 80.06999112 83.26483223 83.28530112 86.5 86.5 C90.25451127 90.2307565 94.00730613 93.96320751 97.75587463 97.69993591 C99.24203689 99.17970556 100.73121996 100.65638565 102.22058105 102.13293457 C106.70879577 106.60499684 111.03297938 111.12317287 115.15637207 115.93151855 C118.67961143 119.88446108 122.47112697 123.57863046 126.23036194 127.30552673 C127.75593977 128.81812332 129.27818086 130.33401202 130.79968262 131.85070801 C134.03028953 135.06999112 137.26483223 138.28530112 140.5 141.5 C144.25451127 145.2307565 148.00730613 148.96320751 151.75587463 152.69993591 C153.24203689 154.17970556 154.73121996 155.65638565 156.22058105 157.13293457 C160.70879577 161.60499684 165.03297938 166.12317287 169.15637207 170.93151855 C172.67961143 174.88446108 176.47112697 178.57863046 180.23036194 182.30552673 C181.75593977 183.81812332 183.27818086 185.33401202 184.79968262 186.85070801 C188.03028953 190.06999112 191.26483223 193.28530112 194.5 196.5 C198.25451127 200.2307565 202.00730613 203.96320751 205.75587463 207.69993591 C207.24203689 209.17970556 208.73121996 210.65638565 210.22058105 212.13293457 C214.70879577 216.60499684 219.03297938 221.12317287 223.15637207 225.93151855 C226.67961143 229.88446108 230.47112697 233.57863046 234.23036194 237.30552673 C235.75593977 238.81812332 237.27818086 240.33401202 238.79968262 241.85070801 C242.03028953 245.06999112 245.26483223 248.28530112 248.5 251.5 C252.25451127 255.2307565 256.00730613 258.96320751 259.75587463 262.69993591 C261.24203689 264.17970556 262.73121996 265.65638565 264.22058105 267.13293457 C268.73257928 271.62869475 273.08291043 276.17098624 277.22802734 281.00540161 C280.8137063 285.04157533 284.70512361 288.784074 288.546875 292.57421875 C290.37903824 294.39374731 292.21106552 296.21341279 294.04296875 298.03320312 C296.90711445 300.87245822 299.77265642 303.71026757 302.64111328 306.54516602 C305.42747648 309.29955058 308.20583987 312.06193743 310.984375 314.82421875 C312.27344757 316.09310188 312.27344757 316.09310188 313.58856201 317.38761902 C314.38659241 318.18227066 315.1846228 318.9769223 316.00683594 319.7956543 C316.70742126 320.4887822 317.40800659 321.1819101 318.12982178 321.89604187 C320.92363519 325.03909335 322.81340813 327.7471689 323.4375 331.9375 C322.87279294 335.89044945 321.52567829 337.92822911 319 341 C314.92583288 344.04800986 311.72299689 344.43409784 306.69140625 344.625 C305.62613205 344.67271294 305.62613205 344.67271294 304.53933716 344.72138977 C303.01127186 344.78929712 301.48294526 344.85151864 299.95443726 344.90859985 C295.87160074 345.06461225 291.7914764 345.27384365 287.7109375 345.48046875 C286.88565048 345.52157272 286.06036346 345.5626767 285.21006775 345.60502625 C255.62830273 347.12322402 226.15378708 351.396388 197.38134766 358.42675781 C195.10681117 358.97428823 192.82781894 359.48965297 190.54296875 359.9921875 C183.09489149 361.64466848 175.82745871 363.60372867 168.5625 365.9375 C167.769646 366.19088135 166.97679199 366.4442627 166.15991211 366.70532227 C161.41789581 368.22164458 161.41789581 368.22164458 156.68212891 369.75732422 C138.17112941 375.73536952 121.04286061 376.30278676 103.1875 367.3125 C83.68279294 355.73700619 76.09150582 337.92949389 70.59765625 317.015625 C69.01593747 311.00215546 67.31039963 305.02955145 65.5625 299.0625 C65.27004395 298.06323486 64.97758789 297.06396973 64.67626953 296.03442383 C62.65974501 289.17658304 60.59056808 282.33558437 58.5 275.5 C53.50403148 259.16455285 48.72160149 242.77810758 44.26708984 226.28662109 C40.29270583 211.62993231 35.95828283 197.07841949 31.5 182.5625 C28.73325807 173.54954668 26.14708649 164.4950445 23.625 155.41088867 C19.43657337 140.33652621 15.0360561 125.32917019 10.4375 110.375 C7.88571875 102.06830278 5.52200868 93.7266842 3.26708984 85.33496094 C0.62754621 75.53990198 -2.23161471 65.81188651 -5.09570312 56.08056641 C-6.02237891 52.92376429 -6.94195974 49.76497383 -7.859375 46.60546875 C-8.16359375 45.55858887 -8.4678125 44.51170898 -8.78125 43.43310547 C-9.37853203 41.37640856 -9.97490796 39.31944826 -10.5703125 37.26220703 C-11.77411177 33.12000554 -12.98352583 28.98567759 -14.328125 24.88671875 C-17.8577452 14.11143455 -17.8577452 14.11143455 -17 8 C-13.18280441 0.63826565 -8.02325483 -1.52078596 0 0 Z " fill="#505EFF" transform="translate(285,493)"/>
<path d="M0 0 C3.41410237 2.11567417 5.69885769 4.09657307 7 8 C7.23277108 12.75310186 6.76756734 16.65622011 5.41455078 21.20605469 C4.89189133 22.98954567 4.89189133 22.98954567 4.3586731 24.80906677 C3.97104221 26.09671648 3.58325079 27.38431787 3.1953125 28.671875 C2.79535208 30.02469365 2.39627191 31.37777283 1.99801636 32.73109436 C1.15377582 35.59372322 0.30385931 38.45457644 -0.55078125 41.31411743 C-1.87930146 45.75959584 -3.19488498 50.20883066 -4.5078125 54.65893555 C-5.80798499 59.06402942 -7.10862851 63.46897596 -8.41375732 67.87260437 C-11.45533071 78.13588748 -14.46162874 88.40858722 -17.39801025 98.70251465 C-17.97786541 100.73491785 -18.56084287 102.76640619 -19.14404297 104.79785156 C-21.00946139 111.33947331 -22.75952281 117.89193388 -24.34399414 124.50756836 C-24.91420093 126.67401463 -25.58695659 128.6813493 -26.4375 130.75 C-28.2407099 135.27680818 -29.29775039 139.98992158 -30.44458008 144.71362305 C-32.10666783 151.53380496 -34.03218807 158.26148435 -36 165 C-36.27803467 165.97509521 -36.55606934 166.95019043 -36.8425293 167.95483398 C-39.39616318 176.90038444 -42.00690227 185.82968613 -44.60229492 194.76318359 C-45.31739677 197.22557929 -46.03192886 199.68814052 -46.74584961 202.15087891 C-50.63032245 215.54991462 -54.56038784 228.93104462 -58.64685059 242.26997375 C-60.52824923 248.41935878 -62.34140402 254.58164995 -64.08740234 260.77099609 C-65.07798235 264.27592148 -66.09326635 267.77306228 -67.11328125 271.26953125 C-67.4705127 272.49494629 -67.82774414 273.72036133 -68.19580078 274.98291016 C-68.76411342 276.93187212 -69.33242874 278.8808333 -69.90081787 280.82977295 C-72.24700893 288.88106637 -74.55108101 296.94067653 -76.7722168 305.02758789 C-86.79022918 341.41422492 -86.79022918 341.41422492 -95 352 C-95.43441406 352.62390625 -95.86882812 353.2478125 -96.31640625 353.890625 C-103.66197459 363.62624394 -117.25659733 371.36976127 -129 374 C-144.04016379 375.98994103 -156.6778523 372.36566952 -170.77734375 367.453125 C-177.83071164 364.99861787 -184.95086451 363.02188162 -192.1875 361.1875 C-193.3110791 360.90003906 -194.4346582 360.61257813 -195.59228516 360.31640625 C-200.40759106 359.10026852 -205.22550447 357.93068327 -210.08203125 356.890625 C-210.84040283 356.7253833 -211.59877441 356.5601416 -212.38012695 356.38989258 C-214.30166965 355.97982479 -216.22872807 355.59581764 -218.15625 355.21484375 C-228.10636351 352.51813289 -235.54982582 346.17371668 -242.578125 338.9453125 C-243.43380066 338.08493378 -244.28947632 337.22455505 -245.17108154 336.33810425 C-247.87605307 333.61197552 -250.56285594 330.86869008 -253.25 328.125 C-255.06659901 326.29186877 -256.88429868 324.45982757 -258.703125 322.62890625 C-272.66410163 308.52695642 -272.66410163 308.52695642 -278.57394409 301.64129639 C-280.25420337 299.70742867 -282.03019332 297.90179537 -283.875 296.125 C-286.98078375 293.1306345 -288.19668255 291.22760534 -288.5 286.875 C-288.4051422 281.90287043 -286.73827989 279.70300452 -283.328125 276.23046875 C-282.55984375 275.49441406 -281.7915625 274.75835938 -281 274 C-279.51447595 272.52330599 -278.03605442 271.03969535 -276.55761719 269.5559082 C-275.55338576 268.5527786 -274.54397569 267.55479378 -273.52832031 266.56323242 C-270.87033486 263.95527234 -268.3618501 261.28517453 -265.94848633 258.44848633 C-261.45643704 253.29366001 -256.61633274 248.51004649 -251.76171875 243.69921875 C-250.78972858 242.73164516 -249.81803916 241.76376936 -248.84663391 240.79560852 C-245.79642635 237.75671376 -242.74225218 234.72182548 -239.6875 231.6875 C-236.1268921 228.15055247 -232.56796074 224.61194984 -229.01319313 221.06913185 C-227.59602258 219.65842316 -226.17580341 218.25077919 -224.75553894 216.84318542 C-223.46828667 215.56088799 -223.46828667 215.56088799 -222.1550293 214.25268555 C-221.39892868 213.50182175 -220.64282806 212.75095795 -219.86381531 211.9773407 C-217.83903402 209.93953499 -217.83903402 209.93953499 -216 207 C-215.34 207 -214.68 207 -214 207 C-214 206.34 -214 205.68 -214 205 C-213.34 205 -212.68 205 -212 205 C-212 204.34 -212 203.68 -212 203 C-211.34 203 -210.68 203 -210 203 C-210 202.34 -210 201.68 -210 201 C-208.38031829 199.28763709 -206.70460067 197.62784893 -205 196 C-204.22830475 195.23052536 -203.4566095 194.46105072 -202.66152954 193.66825867 C-201.85879608 192.86854141 -201.05606262 192.06882416 -200.22900391 191.24487305 C-195.67328882 186.70517581 -191.11979563 182.16326135 -186.56791115 177.61972332 C-183.82459546 174.88162207 -181.08035193 172.14446426 -178.33398438 169.40942383 C-175.66108928 166.74747534 -172.99071792 164.0830181 -170.32200241 161.41687965 C-169.31272518 160.40943211 -168.3025771 159.40285612 -167.29149246 158.39722252 C-162.27008209 153.40182183 -157.38518034 148.37355145 -152.77401733 142.99763489 C-149.15847599 138.92634912 -145.24228904 135.14249913 -141.375 131.3125 C-140.01640869 129.95958862 -140.01640869 129.95958862 -138.63037109 128.5793457 C-135.27078694 125.23394556 -131.90668738 121.89311608 -128.54223633 118.5526123 C-125.23365649 115.267082 -121.92897519 111.97766209 -118.625 108.6875 C-117.76438965 107.83518799 -116.9037793 106.98287598 -116.01708984 106.10473633 C-115.19934082 105.29029053 -114.3815918 104.47584473 -113.5390625 103.63671875 C-112.82959473 102.93248779 -112.12012695 102.22825684 -111.38916016 101.50268555 C-109.44930734 99.47065701 -107.60996089 97.40792638 -105.77737427 95.28134155 C-101.71805818 90.61245855 -97.39326644 86.23817584 -93.02294922 81.86181641 C-92.15213715 80.98603943 -91.28132507 80.11026245 -90.38412476 79.20794678 C-88.01850861 76.83031965 -85.65067254 74.45495591 -83.28128195 72.08109331 C-81.7984678 70.59533043 -80.31623495 69.10898996 -78.8341713 67.62247849 C-74.18855173 62.9632329 -69.54097112 58.305957 -64.8904742 53.6515795 C-59.53574607 48.29235676 -54.18765056 42.92662809 -48.8451308 37.55523551 C-44.70162302 33.39011733 -40.55237423 29.23077589 -36.39871609 25.07578027 C-33.92294807 22.59896548 -31.44965818 20.11979247 -28.98232651 17.63457108 C-26.235935 14.86864746 -23.47768837 12.11473868 -20.71826172 9.36181641 C-19.90566895 8.54000885 -19.09307617 7.71820129 -18.25585938 6.87149048 C-17.50182831 6.12302856 -16.74779724 5.37456665 -15.97091675 4.60342407 C-14.99593137 3.62623885 -14.99593137 3.62623885 -14.00124931 2.62931252 C-9.42508712 -1.09635938 -5.65280283 -1.48757969 0 0 Z " fill="#C53CA8" transform="translate(926,494)"/>
</svg>
